<svg width="24" height="24" viewBox="0 0 24 24" fill="none" xmlns="http://www.w3.org/2000/svg">
<path d="M15.7348 4.68598C16.5281 3.69373 17.0664 2.36144 16.9244 1C15.7631 1.05774 14.346 1.76613 13.5256 2.75915C12.7889 3.60952 12.1369 4.9976 12.3069 6.30197C13.6105 6.41504 14.9129 5.65038 15.7348 4.68598Z" fill="black"/>
<path d="M16.9095 6.55663C15.0164 6.44386 13.4068 7.63107 12.5027 7.63107C11.5982 7.63107 10.2137 6.61345 8.71637 6.64088C6.76746 6.6695 4.95909 7.77143 3.9701 9.52402C1.93591 13.0301 3.43328 18.2307 5.41142 21.0862C6.37205 22.4989 7.52977 24.0544 9.05524 23.9985C10.4966 23.942 11.0615 23.0652 12.8135 23.0652C14.5642 23.0652 15.0731 23.9985 16.5988 23.9702C18.181 23.9419 19.1702 22.5568 20.1308 21.1428C21.2328 19.5324 21.6839 17.9774 21.7123 17.892C21.6839 17.8638 18.6614 16.7042 18.6333 13.2273C18.6048 10.3161 21.0064 8.93133 21.1194 8.84545C19.7632 6.83962 17.6442 6.61345 16.9095 6.55663Z" fill="black"/>
</svg>
