<svg width="28" height="28" viewBox="0 0 28 28" fill="none" xmlns="http://www.w3.org/2000/svg">
<path d="M9.36239 11.9813C8.8101 11.9813 8.36239 12.429 8.36239 12.9813C8.36239 13.5336 8.8101 13.9813 9.36239 13.9813V11.9813ZM16.0882 13.9813C16.6405 13.9813 17.0882 13.5336 17.0882 12.9813C17.0882 12.429 16.6405 11.9813 16.0882 11.9813V13.9813ZM10.2001 14.4407C9.64777 14.4407 9.20005 14.8884 9.20005 15.4407C9.20005 15.993 9.64777 16.4407 10.2001 16.4407V14.4407ZM15.2471 16.4407C15.7993 16.4407 16.2471 15.993 16.2471 15.4407C16.2471 14.8884 15.7993 14.4407 15.2471 14.4407V16.4407ZM8.77395 7.94436C8.22923 8.03546 7.86149 8.55088 7.95258 9.09561C8.04367 9.64033 8.5591 10.0081 9.10382 9.91697L8.77395 7.94436ZM9.52222 8.88283L9.52016 9.88283H9.52222V8.88283ZM15.9389 8.88283L15.9464 7.88283H15.9389V8.88283ZM19.4576 12.454L18.4576 12.4467V12.454H19.4576ZM19.4576 16.7893H18.4576L18.4576 16.7905L19.4576 16.7893ZM18.4169 17.2552C18.3205 17.799 18.6831 18.318 19.2269 18.4145C19.7707 18.5109 20.2897 18.1483 20.3862 17.6045L18.4169 17.2552ZM9.1127 9.91545C9.65658 9.81945 10.0197 9.30073 9.92366 8.75685C9.82767 8.21298 9.30895 7.84989 8.76507 7.94589L9.1127 9.91545ZM6.00005 12.4528H7.00007L7.00004 12.4475L6.00005 12.4528ZM6.00005 22.3333H5.00005C5.00005 22.6883 5.18828 23.0168 5.49461 23.1962C5.80094 23.3756 6.17944 23.3792 6.4891 23.2056L6.00005 22.3333ZM9.51872 20.3605V19.3605C9.34745 19.3605 9.17905 19.4045 9.02967 19.4882L9.51872 20.3605ZM15.9354 20.3605V21.3605L15.9419 21.3605L15.9354 20.3605ZM20.3797 17.6053C20.4746 17.0612 20.1105 16.5432 19.5665 16.4482C19.0224 16.3533 18.5044 16.7173 18.4094 17.2614L20.3797 17.6053ZM7.9536 8.75973C7.8592 9.30388 8.22379 9.82154 8.76795 9.91595C9.3121 10.0104 9.82976 9.64576 9.92417 9.10161L7.9536 8.75973ZM12.4016 6V4.99998L12.3958 5.00002L12.4016 6ZM18.8182 6L18.8267 5H18.8182V6ZM22.3334 9.57117L21.3334 9.56389V9.57117H22.3334ZM22.3334 13.9065H21.3334L21.3334 13.9132L22.3334 13.9065ZM19.2207 16.4486C18.6769 16.5445 18.3138 17.0633 18.4098 17.6071C18.5058 18.151 19.0245 18.5141 19.5684 18.4181L19.2207 16.4486ZM9.36239 13.9813H16.0882V11.9813H9.36239V13.9813ZM10.2001 16.4407H15.2471V14.4407H10.2001V16.4407ZM9.10382 9.91697C9.2414 9.89396 9.38067 9.88254 9.52016 9.88283L9.52428 7.88284C9.27289 7.88232 9.0219 7.9029 8.77395 7.94436L9.10382 9.91697ZM9.52222 9.88283H15.9389V7.88283H9.52222V9.88283ZM15.9313 9.8828C17.3369 9.89341 18.4678 11.0412 18.4576 12.4467L20.4575 12.4613C20.4758 9.95141 18.4563 7.90179 15.9464 7.88286L15.9313 9.8828ZM18.4576 12.454V16.7893H20.4576V12.454H18.4576ZM18.4576 16.7905C18.4577 16.9463 18.4441 17.1018 18.4169 17.2552L20.3862 17.6045C20.434 17.335 20.4579 17.0619 20.4576 16.7882L18.4576 16.7905ZM8.76507 7.94589C6.57833 8.33185 4.98812 10.2377 5.00007 12.4582L7.00004 12.4475C6.99333 11.2015 7.88565 10.132 9.1127 9.91545L8.76507 7.94589ZM5.00005 12.4528V22.3333H7.00005V12.4528H5.00005ZM6.4891 23.2056L10.0078 21.2328L9.02967 19.4882L5.511 21.4611L6.4891 23.2056ZM9.51872 21.3605H15.9354V19.3605H9.51872V21.3605ZM15.9419 21.3605C18.1345 21.3461 20.0027 19.7652 20.3797 17.6053L18.4094 17.2614C18.1987 18.4688 17.1544 19.3525 15.9288 19.3605L15.9419 21.3605ZM9.92417 9.10161C10.134 7.89232 11.18 7.00703 12.4073 6.99998L12.3958 5.00002C10.2002 5.01263 8.32894 6.59636 7.9536 8.75973L9.92417 9.10161ZM12.4016 7H18.8182V5H12.4016V7ZM18.8097 6.99996C20.2142 7.01194 21.3436 8.15933 21.3334 9.56389L23.3334 9.57844C23.3516 7.07032 21.3348 5.02143 18.8267 5.00004L18.8097 6.99996ZM21.3334 9.57117V13.9065H23.3334V9.57117H21.3334ZM21.3334 13.9132C21.3418 15.1605 20.4491 16.2318 19.2207 16.4486L19.5684 18.4181C21.7573 18.0318 23.3482 16.1226 23.3334 13.8998L21.3334 13.9132Z" fill="#115BCB"/>
</svg>
