<svg width="28" height="28" viewBox="0 0 28 28" fill="none" xmlns="http://www.w3.org/2000/svg">
<path fill-rule="evenodd" clip-rule="evenodd" d="M9 9.255C9.29257 7.56868 10.6901 6.00983 12.4016 6H18.8183C20.7746 6.01669 22.3477 7.61483 22.3335 9.57117V13.9065C22.3451 15.6415 21.1033 17.1318 19.3946 17.4333C19.3491 17.5785 19.3085 17.7208 19.2687 17.86C18.9542 18.9613 18.6942 19.8714 16.5 20.5H9.5L6 22.5V12.5C6.22659 10.2099 7.90419 9.36349 9 9.255ZM8.25 13.255C8.25 12.8408 8.58579 12.505 9 12.505H16C16.4142 12.505 16.75 12.8408 16.75 13.255C16.75 13.6692 16.4142 14.005 16 14.005H9C8.58579 14.005 8.25 13.6692 8.25 13.255ZM10 17.005C9.58579 17.005 9.25 16.6692 9.25 16.255C9.25 15.8408 9.58579 15.505 10 15.505H15C15.4142 15.505 15.75 15.8408 15.75 16.255C15.75 16.6692 15.4142 17.005 15 17.005H10Z" fill="#115BCB"/>
</svg>
