<svg width="170" height="170" viewBox="0 0 170 170" fill="none" xmlns="http://www.w3.org/2000/svg">
<path d="M124.177 129.897C124.153 129.461 124.253 129.027 124.465 128.646C124.677 128.265 124.991 127.953 125.372 127.745C126.405 127.136 127.686 127.026 127.791 127.124C127.896 127.223 127.569 128.46 126.459 129.316C126.148 129.582 125.78 129.772 125.385 129.873C124.989 129.973 124.576 129.982 124.177 129.897Z" fill="#6D27D7"/>
<path d="M123.168 132.71C123.347 132.311 123.633 131.971 123.995 131.729C124.357 131.488 124.779 131.354 125.213 131.343C126.409 131.276 127.597 131.767 127.651 131.901C127.706 132.034 126.845 132.989 125.466 133.24C125.068 133.331 124.655 133.33 124.257 133.238C123.86 133.147 123.487 132.966 123.168 132.71Z" fill="#6D27D7"/>
<path d="M120.878 132.777C120.518 132.533 120.234 132.19 120.059 131.79C119.885 131.389 119.827 130.947 119.892 130.514C120.029 129.316 120.597 128.283 120.738 128.256C120.878 128.228 121.766 129.34 121.863 130.612C121.897 131.028 121.824 131.446 121.652 131.825C121.479 132.204 121.213 132.532 120.878 132.777Z" fill="#6D27D7"/>
<path d="M117.945 142.588C117.912 141.499 118.065 140.412 118.397 139.375C118.666 138.403 119.014 137.455 119.437 136.539C120.311 134.63 121.435 132.846 122.779 131.237C123.608 130.166 124.603 129.237 125.727 128.487C125.75 128.487 125.801 128.523 125.778 128.542C124.863 129.356 124.03 130.257 123.289 131.233C122.587 132.074 121.949 132.967 121.38 133.904C120.417 135.505 119.654 137.22 119.11 139.01C118.78 140.197 118.52 141.402 118.331 142.62C118.314 142.66 118.286 142.694 118.249 142.717C118.212 142.74 118.169 142.751 118.126 142.747C118.083 142.744 118.042 142.726 118.01 142.698C117.977 142.669 117.954 142.631 117.945 142.588Z" fill="#202628"/>
<path d="M120.956 133.751C120.79 133.23 120.684 132.693 120.64 132.148C120.571 131.623 120.605 131.089 120.738 130.577C120.757 130.506 120.796 130.612 120.796 130.656C120.802 131.123 120.836 131.59 120.897 132.054C120.961 132.545 121.092 133.025 121.287 133.48C121.314 133.541 121.321 133.609 121.307 133.675C121.293 133.741 121.258 133.8 121.209 133.845C121.187 133.858 121.162 133.866 121.136 133.868C121.11 133.87 121.084 133.867 121.06 133.858C121.036 133.849 121.014 133.835 120.996 133.816C120.978 133.797 120.964 133.775 120.956 133.751Z" fill="#202628"/>
<path d="M121.1 133.609C121.69 133.125 122.367 132.759 123.094 132.533C123.42 132.413 123.755 132.319 124.095 132.25C124.496 132.16 124.909 132.133 125.318 132.172C125.337 132.172 125.423 132.223 125.392 132.227C124.998 132.283 124.608 132.362 124.224 132.462C123.868 132.547 123.522 132.664 123.187 132.812C122.512 133.091 121.869 133.445 121.271 133.868C121.135 133.955 121.002 133.696 121.1 133.609Z" fill="#202628"/>
<path d="M120.858 136.524C120.95 136.096 121.16 135.703 121.464 135.391C121.768 135.079 122.154 134.86 122.576 134.76C123.744 134.442 124.991 134.674 125.073 134.795C125.154 134.917 124.512 136.025 123.215 136.563C122.845 136.737 122.44 136.824 122.032 136.817C121.624 136.81 121.222 136.71 120.858 136.524Z" fill="#6D27D7"/>
<path d="M119.032 137.836C119.508 137.239 120.094 136.74 120.757 136.367C121.05 136.179 121.358 136.015 121.676 135.876C122.047 135.707 122.441 135.595 122.845 135.542C122.845 135.542 122.958 135.573 122.93 135.581C122.554 135.721 122.184 135.881 121.824 136.06C121.495 136.22 121.179 136.408 120.882 136.622C120.279 137.036 119.723 137.517 119.226 138.056C119.133 138.169 118.95 137.953 119.032 137.836Z" fill="#202628"/>
<path d="M117.513 123.146C117.765 122.744 117.898 122.279 117.898 121.804C117.898 121.329 117.765 120.864 117.513 120.463C116.854 119.336 115.697 118.55 115.546 118.585C115.394 118.621 115.055 119.968 115.659 121.378C115.815 121.795 116.063 122.171 116.384 122.477C116.705 122.783 117.091 123.012 117.513 123.146Z" fill="#6D27D7"/>
<path d="M116.998 126.351C117.038 125.877 116.945 125.402 116.728 124.981C116.512 124.559 116.181 124.207 115.775 123.967C114.677 123.263 113.294 123.099 113.174 123.181C113.053 123.263 113.364 124.638 114.541 125.616C114.868 125.919 115.26 126.142 115.686 126.269C116.111 126.397 116.56 126.424 116.998 126.351Z" fill="#6D27D7"/>
<path d="M119.129 127.635C119.599 127.595 120.048 127.421 120.423 127.134C120.799 126.847 121.086 126.458 121.252 126.013C121.75 124.807 121.758 123.523 121.641 123.421C121.524 123.318 120.083 123.9 119.339 125.047C118.494 126.296 119.039 127.266 119.129 127.635Z" fill="#6D27D7"/>
<path d="M116.749 138.503C117.356 137.488 117.783 136.374 118.011 135.212C118.269 134.148 118.439 133.064 118.518 131.971C118.692 129.692 118.561 127.4 118.128 125.157C117.905 123.696 117.451 122.281 116.784 120.966C116.784 120.938 116.695 120.966 116.702 120.993C117.144 122.251 117.461 123.549 117.649 124.87C117.873 126.036 118.01 127.218 118.058 128.405C118.13 130.434 117.953 132.464 117.532 134.45C117.217 135.751 116.827 137.032 116.364 138.287C116.335 138.339 116.328 138.4 116.344 138.456C116.36 138.513 116.398 138.561 116.449 138.59C116.5 138.618 116.561 138.625 116.617 138.609C116.673 138.593 116.721 138.555 116.749 138.503Z" fill="#202628"/>
<path d="M118.541 128.527C118.973 128.122 119.357 127.669 119.686 127.176C120.021 126.717 120.267 126.199 120.41 125.648C120.43 125.569 120.336 125.648 120.313 125.691C120.062 126.13 119.785 126.553 119.483 126.96C119.163 127.391 118.783 127.773 118.354 128.095C118.297 128.14 118.256 128.203 118.235 128.273C118.214 128.343 118.215 128.418 118.237 128.487C118.25 128.515 118.27 128.539 118.295 128.557C118.32 128.575 118.348 128.586 118.378 128.59C118.409 128.594 118.439 128.59 118.468 128.579C118.496 128.568 118.521 128.55 118.541 128.527Z" fill="#202628"/>
<path d="M118.494 128.303C118.189 127.53 117.739 126.823 117.17 126.221C116.925 125.938 116.658 125.676 116.371 125.436C116.036 125.136 115.658 124.89 115.25 124.705C115.25 124.705 115.125 124.705 115.152 124.705C115.5 124.969 115.832 125.253 116.145 125.557C116.438 125.828 116.707 126.123 116.948 126.441C117.441 127.066 117.864 127.745 118.21 128.464C118.264 128.617 118.529 128.44 118.494 128.303Z" fill="#202628"/>
<path d="M117.178 131.198C117.315 130.743 117.322 130.259 117.198 129.801C117.073 129.343 116.824 128.93 116.477 128.609C115.55 127.69 114.229 127.238 114.089 127.309C113.949 127.38 113.976 128.774 114.922 129.976C115.182 130.339 115.52 130.637 115.911 130.848C116.301 131.06 116.735 131.179 117.178 131.198Z" fill="#6D27D7"/>
<path d="M118.221 133.417C118.083 132.597 117.789 131.812 117.357 131.103C117.177 130.769 116.971 130.45 116.741 130.149C116.476 129.787 116.158 129.468 115.799 129.202C115.799 129.202 115.674 129.171 115.698 129.202C115.982 129.535 116.248 129.882 116.496 130.243C116.724 130.569 116.924 130.915 117.092 131.276C117.445 131.991 117.718 132.743 117.906 133.519C117.949 133.676 118.241 133.558 118.221 133.417Z" fill="#202628"/>
<path d="M40.6331 128.158C40.6564 127.722 40.5564 127.288 40.3447 126.907C40.133 126.526 39.8184 126.213 39.4373 126.005C38.4052 125.397 37.1238 125.287 37.0186 125.385C36.9134 125.483 37.2406 126.72 38.3507 127.577C38.6623 127.842 39.0298 128.032 39.4253 128.133C39.8208 128.234 40.2339 128.242 40.6331 128.158Z" fill="#6D27D7"/>
<path d="M41.6497 130.97C41.4709 130.571 41.1842 130.232 40.8225 129.99C40.4608 129.748 40.0387 129.614 39.6049 129.603C38.4091 129.537 37.2212 130.028 37.1666 130.161C37.1121 130.295 37.9729 131.249 39.3517 131.5C39.7497 131.591 40.1627 131.59 40.5605 131.499C40.9582 131.407 41.3304 131.226 41.6497 130.97Z" fill="#6D27D7"/>
<path d="M43.9321 131.053C44.292 130.808 44.5759 130.466 44.751 130.066C44.9261 129.665 44.9851 129.223 44.9214 128.79C44.7812 127.592 44.2125 126.559 44.0723 126.532C43.9321 126.504 43.0441 127.616 42.9467 128.888C42.9127 129.304 42.9855 129.722 43.1581 130.101C43.3307 130.48 43.5973 130.808 43.9321 131.053Z" fill="#6D27D7"/>
<path d="M46.8649 140.849C46.8978 139.759 46.745 138.673 46.4131 137.636C46.1451 136.663 45.7973 135.714 45.3732 134.8C44.4962 132.884 43.3683 131.095 42.0197 129.482C41.1907 128.41 40.1949 127.482 39.0712 126.732C39.0478 126.732 38.9972 126.767 39.0206 126.787C39.9361 127.6 40.7698 128.503 41.5094 129.482C42.2109 130.323 42.8488 131.215 43.4179 132.152C44.3812 133.753 45.144 135.468 45.6887 137.259C46.0183 138.445 46.2784 139.651 46.4677 140.868C46.4788 140.914 46.5055 140.955 46.5433 140.983C46.581 141.012 46.6273 141.026 46.6743 141.024C46.7213 141.021 46.7661 141.003 46.8009 140.971C46.8357 140.939 46.8583 140.896 46.8649 140.849Z" fill="#202628"/>
<path d="M43.8542 132.011C44.0197 131.491 44.1255 130.953 44.1697 130.409C44.2384 129.883 44.2054 129.35 44.0723 128.837C44.0528 128.767 44.0139 128.873 44.0139 128.916C44.0074 129.384 43.9736 129.851 43.9126 130.314C43.851 130.806 43.7198 131.286 43.5231 131.74C43.4967 131.802 43.4904 131.87 43.5051 131.936C43.5198 132.002 43.5547 132.061 43.6049 132.105C43.6269 132.118 43.6515 132.126 43.6769 132.128C43.7023 132.131 43.7279 132.127 43.7518 132.118C43.7757 132.109 43.7973 132.095 43.815 132.076C43.8327 132.058 43.8461 132.035 43.8542 132.011Z" fill="#202628"/>
<path d="M43.7101 131.87C43.1199 131.385 42.4429 131.02 41.7159 130.793C41.3898 130.674 41.0552 130.579 40.7149 130.511C40.3138 130.42 39.9011 130.394 39.4919 130.432C39.4919 130.432 39.3867 130.483 39.4179 130.487C39.8114 130.544 40.2015 130.622 40.5863 130.723C40.9414 130.808 41.2881 130.925 41.6224 131.072C42.2983 131.351 42.9411 131.706 43.5387 132.129C43.675 132.231 43.8074 131.956 43.7101 131.87Z" fill="#202628"/>
<path d="M43.9515 134.784C43.8597 134.354 43.6482 133.96 43.3419 133.647C43.0356 133.333 42.6472 133.115 42.2222 133.017C41.0537 132.698 39.8073 132.93 39.7255 133.052C39.6437 133.174 40.2864 134.281 41.5834 134.819C41.9548 134.996 42.3611 135.084 42.7715 135.078C43.1819 135.072 43.5855 134.971 43.9515 134.784Z" fill="#6D27D7"/>
<path d="M45.7822 136.096C45.3035 135.5 44.7166 135.001 44.0529 134.627C43.7605 134.44 43.4545 134.276 43.1376 134.136C42.7662 133.968 42.3726 133.856 41.9691 133.802C41.9691 133.802 41.8561 133.834 41.8834 133.841C42.2601 133.982 42.6294 134.142 42.9896 134.321C43.3192 134.48 43.6346 134.668 43.9321 134.882C44.5352 135.296 45.0904 135.777 45.5875 136.316C45.6771 136.43 45.8601 136.202 45.7822 136.096Z" fill="#202628"/>
<path d="M47.2856 121.406C47.0335 121.005 46.8997 120.54 46.8997 120.065C46.8997 119.59 47.0335 119.125 47.2856 118.723C47.9439 117.596 49.1006 116.811 49.2526 116.846C49.4045 116.881 49.7433 118.228 49.1396 119.639C48.9835 120.056 48.7355 120.431 48.4144 120.738C48.0932 121.044 47.7072 121.272 47.2856 121.406Z" fill="#6D27D7"/>
<path d="M47.8115 124.611C47.7715 124.138 47.8652 123.663 48.0816 123.241C48.298 122.819 48.6284 122.468 49.0345 122.227C50.1328 121.524 51.5155 121.359 51.6363 121.441C51.757 121.524 51.4454 122.899 50.2692 123.877C49.9417 124.179 49.5502 124.403 49.1243 124.53C48.6985 124.657 48.2495 124.685 47.8115 124.611Z" fill="#6D27D7"/>
<path d="M45.6809 125.895C45.2112 125.855 44.7624 125.681 44.3867 125.394C44.011 125.107 43.7237 124.718 43.5582 124.273C43.0596 123.067 43.0518 121.783 43.1687 121.681C43.2855 121.579 44.7266 122.16 45.4706 123.307C46.3002 124.556 45.7705 125.526 45.6809 125.895Z" fill="#6D27D7"/>
<path d="M48.0646 136.764C47.4583 135.748 47.0313 134.635 46.8026 133.472C46.5446 132.408 46.3753 131.324 46.2963 130.232C46.1236 127.953 46.2546 125.661 46.6858 123.417C46.9086 121.956 47.3637 120.541 48.0334 119.226C48.0334 119.199 48.1191 119.226 48.1113 119.254C47.6696 120.511 47.3526 121.81 47.1649 123.13C46.9472 124.297 46.817 125.479 46.7754 126.665C46.6971 128.699 46.8685 130.735 47.2856 132.726C47.601 134.023 47.9912 135.3 48.4541 136.552C48.482 136.604 48.4882 136.665 48.4714 136.722C48.4546 136.778 48.4161 136.826 48.3645 136.854C48.3128 136.882 48.2522 136.888 48.196 136.872C48.1397 136.855 48.0925 136.816 48.0646 136.764Z" fill="#202628"/>
<path d="M46.269 126.775C45.8372 126.371 45.453 125.917 45.1239 125.424C44.7887 124.966 44.5428 124.447 44.3995 123.896C44.38 123.818 44.4735 123.896 44.4968 123.939C44.7521 124.379 45.033 124.802 45.3381 125.208C45.6593 125.639 46.0396 126.021 46.4677 126.343C46.5248 126.389 46.5666 126.451 46.5875 126.521C46.6084 126.591 46.6074 126.666 46.5845 126.736C46.5721 126.766 46.552 126.792 46.5262 126.812C46.5005 126.832 46.4701 126.844 46.4381 126.848C46.4061 126.852 46.3735 126.847 46.3439 126.835C46.3142 126.822 46.2884 126.801 46.269 126.775Z" fill="#202628"/>
<path d="M46.3313 126.563C46.6358 125.789 47.0869 125.082 47.6595 124.482C47.8972 124.198 48.1578 123.936 48.4385 123.696C48.7735 123.397 49.1518 123.15 49.5602 122.965C49.5602 122.965 49.6849 122.965 49.6576 122.965C49.3106 123.23 48.979 123.515 48.6644 123.818C48.3717 124.088 48.1032 124.384 47.862 124.701C47.3737 125.33 46.9558 126.011 46.6157 126.732C46.5456 126.877 46.2807 126.701 46.3313 126.563Z" fill="#202628"/>
<path d="M47.6323 129.458C47.4952 129.004 47.4883 128.52 47.6124 128.062C47.7364 127.604 47.9864 127.19 48.3334 126.87C49.2604 125.951 50.5807 125.499 50.721 125.57C50.8612 125.64 50.8339 127.035 49.8874 128.236C49.6278 128.599 49.2898 128.897 48.8992 129.109C48.5085 129.32 48.0753 129.44 47.6323 129.458Z" fill="#6D27D7"/>
<path d="M46.5884 131.677C46.7271 130.857 47.0206 130.072 47.4531 129.364C47.6318 129.03 47.8362 128.711 48.0646 128.409C48.3298 128.048 48.6476 127.729 49.0072 127.463C49.0072 127.463 49.1318 127.431 49.1085 127.463C48.8311 127.796 48.571 128.143 48.3295 128.504C48.1023 128.832 47.9029 129.179 47.7335 129.54C47.3727 130.252 47.0918 131.001 46.8961 131.775C46.8611 131.936 46.569 131.838 46.5884 131.677Z" fill="#202628"/>
<path d="M85.2642 164C100.612 164 113.054 156.757 113.054 147.821C113.054 138.886 100.612 131.643 85.2642 131.643C69.916 131.643 57.4739 138.886 57.4739 147.821C57.4739 156.757 69.916 164 85.2642 164Z" fill="#D2D2D2"/>
<path d="M66.1596 55.9741L65.4624 56.9089C65.5729 57.6772 65.8405 58.414 66.2481 59.0725C66.6558 59.7311 67.1946 60.2971 67.8306 60.7346C69.1577 61.64 70.7405 62.0866 72.3409 62.0072L73.8171 59.3795L66.1986 55.8445" fill="black"/>
<path d="M77.8054 43.3816C74.5999 43.6448 72.9874 44.0847 71.1256 46.7124C69.2638 49.34 67.8344 52.5333 67.1528 53.531C66.4712 54.5286 65.478 55.1021 66.1596 55.9741C66.8412 56.846 67.6513 59.6033 71.1256 60.4792C74.5999 61.3551 74.8492 59.7919 75.0984 58.7903C75.3477 57.7887 77.8054 52.6237 77.8054 52.6237V43.3816Z" fill="#6D27D7"/>
<path opacity="0.2" d="M77.8054 43.3816C74.5999 43.6448 72.9874 44.0847 71.1256 46.7124C69.2638 49.34 67.8344 52.5333 67.1528 53.531C66.4712 54.5286 65.478 55.1021 66.1596 55.9741C66.8412 56.846 67.6513 59.6033 71.1256 60.4792C74.5999 61.3551 74.8492 59.7919 75.0984 58.7903C75.3477 57.7887 77.8054 52.6237 77.8054 52.6237V43.3816Z" fill="black"/>
<path d="M68.0175 78.3939C73.9847 78.3939 78.822 73.5157 78.822 67.4982C78.822 61.4807 73.9847 56.6025 68.0175 56.6025C62.0503 56.6025 57.213 61.4807 57.213 67.4982C57.213 73.5157 62.0503 78.3939 68.0175 78.3939Z" fill="#6D27D7"/>
<path opacity="0.5" d="M68.0175 78.3939C73.9847 78.3939 78.822 73.5157 78.822 67.4982C78.822 61.4807 73.9847 56.6025 68.0175 56.6025C62.0503 56.6025 57.213 61.4807 57.213 67.4982C57.213 73.5157 62.0503 78.3939 68.0175 78.3939Z" fill="white"/>
<path d="M57.3961 68.6294C57.7586 67.9191 58.3508 67.3551 59.0748 67.0308C59.2775 66.9508 59.4921 66.9057 59.7096 66.8973C59.9173 65.8535 60.24 64.8365 60.6717 63.865C60.4847 63.6686 60.2822 63.4722 60.1147 63.268C59.6685 62.7763 59.2486 62.261 58.8567 61.7244C58.9385 61.5987 59.0163 61.469 59.102 61.3316C59.4915 61.799 59.8304 62.2782 60.2238 62.7299C60.4302 62.9695 60.6444 63.2012 60.8625 63.4329C60.9755 63.2051 61.0962 62.9812 61.2287 62.7613C61.7244 61.938 62.3139 61.1761 62.9853 60.491C62.4942 59.8479 62.2644 59.0404 62.3426 58.2326C62.5101 58.1265 62.6776 58.0283 62.8528 57.934C62.7756 58.3191 62.7755 58.7159 62.8524 59.101C62.9293 59.4861 63.0818 59.8519 63.3008 60.1768C63.8558 59.6366 64.4523 59.1415 65.0846 58.696C66.3219 57.8336 67.6721 57.1488 69.0964 56.6614C69.3691 56.6889 69.6378 56.7282 69.9066 56.7753C67.5496 57.5158 65.3914 58.7894 63.5968 60.4989C63.7638 60.6413 63.9552 60.7518 64.1615 60.8249C65.0145 61.1273 66.0272 60.8838 66.888 60.7817C67.8422 60.6717 68.7965 60.5539 69.7547 60.4596C71.6179 60.2397 73.5001 60.2397 75.3633 60.4596C75.6983 60.5067 76.0489 60.5696 76.3994 60.6442C76.5162 60.7882 76.6292 60.9375 76.7383 61.092C76.2258 60.9618 75.7053 60.866 75.1803 60.8053C73.223 60.6258 71.2522 60.6627 69.3028 60.9152C68.3291 61.0174 67.3554 61.1391 66.3894 61.2452C65.5326 61.3434 64.5939 61.5005 63.7798 61.1234C63.6069 61.0424 63.4457 60.938 63.3008 60.8131C62.8606 61.2742 62.4569 61.7693 62.0933 62.2939C61.7617 62.7811 61.4699 63.2947 61.2209 63.8296C61.4507 64.0653 61.6805 64.2971 61.9181 64.5209C65.5039 67.9215 69.9779 70.2189 74.8142 71.1432C75.8885 71.3463 76.9749 71.4776 78.0664 71.536C78.008 71.6852 77.9457 71.8306 77.8834 71.9759C77.0615 71.9248 76.2397 71.8266 75.4335 71.7009C73.7814 71.4336 72.1588 71.0061 70.5882 70.4244C67.4636 69.2715 64.5839 67.5323 62.1011 65.2986C61.7311 64.9687 61.3767 64.6231 61.03 64.2696C60.6702 65.1404 60.3937 66.044 60.2043 66.968C61.2832 67.239 62.0349 68.5116 62.5413 69.47C64.2628 72.6475 65.7429 76.4143 69.0107 78.3153L69.0925 78.3625C68.8588 78.3821 68.6251 78.3978 68.3875 78.4057C67.4936 77.7958 66.6965 77.0529 66.0233 76.2022C64.896 74.7403 63.9284 73.16 63.1372 71.4888C62.697 70.6365 62.2686 69.7724 61.7817 68.9436C61.3923 68.2995 60.9132 67.5768 60.1731 67.3332H60.1342C60.0797 67.62 60.0251 67.9067 59.9823 68.1934C59.6512 70.3301 59.55 72.5572 60.0719 74.6703C60.0991 74.7764 60.1342 74.8785 60.1654 74.9806C59.9233 74.7229 59.6945 74.4528 59.4798 74.1715C59.1805 72.4855 59.145 70.7625 59.3747 69.0654C59.4448 68.4684 59.5344 67.8871 59.6473 67.2782C58.9346 67.3215 58.3231 67.9145 57.918 68.4919C57.7202 68.7832 57.5444 69.0892 57.3922 69.4071C57.3571 69.2225 57.3298 69.0143 57.3065 68.8454C57.3298 68.759 57.3571 68.6923 57.3961 68.6294Z" fill="#3B3F60"/>
<path d="M57.1429 70.228C56.5002 69.5524 56.5392 69.4425 56.7729 69.0183C56.9478 68.6798 57.2001 68.3882 57.5089 68.1676C57.8178 67.947 58.1743 67.8037 58.5489 67.7496C59.2111 67.675 59.8732 67.5689 60.2355 67.6946C60.5977 67.8203 60.4146 68.5862 59.585 68.9004C58.2763 69.4032 58.3386 69.7685 58.3386 69.7685C58.3386 69.7685 59.5422 69.3129 60.0368 69.2107C60.7114 69.1627 61.3887 69.1692 62.0622 69.2304C62.6425 69.2304 62.8412 69.9609 61.9297 70.3576H62.997C63.7448 70.3576 64.0486 70.7269 63.5422 71.265C63.379 71.4497 63.1575 71.5718 62.9152 71.6106C62.9152 71.6106 63.6941 71.5006 63.7448 71.7599C63.8967 72.4983 63.4449 72.7654 61.9375 73.4527C60.6522 74.0341 60.2978 74.6311 60.5198 75.1653L60.6834 75.4834C60.6834 75.4834 60.029 75.2163 59.437 74.9178C59.0047 74.7018 58.6268 74.4386 58.7164 73.7945C58.7164 73.7945 57.8634 73.9319 57.7349 73.4017C57.6658 73.0101 57.6817 72.6081 57.7816 72.2233C57.6155 72.158 57.471 72.0466 57.3649 71.9021C57.2588 71.7575 57.1953 71.5857 57.1818 71.4064C57.1332 71.0668 57.1961 70.7206 57.361 70.4205L57.1429 70.228Z" fill="#B48978"/>
<path d="M61.9298 70.3576C61.6089 70.335 61.2865 70.3456 60.9677 70.3891C60.6556 70.4839 60.36 70.627 60.0914 70.8133C59.5524 71.1472 59.0417 71.5256 58.5646 71.9445C59.1459 71.6951 59.706 71.3982 60.2394 71.0568C60.4843 70.8806 60.7451 70.728 61.0184 70.6012C61.3027 70.5108 61.6338 70.4598 61.9298 70.3576Z" fill="#826B67"/>
<path d="M62.9073 71.6263C62.5589 71.579 62.2043 71.6195 61.8752 71.7442C61.5566 71.8653 61.2501 72.0165 60.9599 72.1959C60.3694 72.5417 59.8171 72.9498 59.3123 73.4135C59.9249 73.1208 60.5216 72.7957 61.1001 72.4394C61.648 72.059 62.2606 71.7834 62.9073 71.6263Z" fill="#826B67"/>
<path d="M66.4128 143.344C68.0432 142.276 69.5135 140.979 70.779 139.491C71.4334 138.678 72.337 137.566 72.5863 136.533C72.8529 135.176 72.8845 133.782 72.6797 132.413C71.6047 122.837 70.3428 113.54 69.8209 108.234C69.6612 106.643 69.5638 98.5751 69.8209 90.6684C70.1052 81.7288 71.9514 72.8481 72.4149 71.2298C73.3146 75.8803 80.824 75.6525 90.6782 70.7035C92.2829 69.8983 94.2381 69.211 95.8779 69.152C97.6929 72.0311 98.8965 74.3132 99.2743 78.0328C99.65 81.9485 99.8008 85.8828 99.7261 89.8161C99.5119 102.102 99.5625 103.061 99.6482 105.555C99.6752 107.85 99.8718 110.139 100.236 112.405C100.521 114.447 101.405 116.403 101.681 122.664C101.857 126.384 101.619 130.371 102.195 136.105C102.375 137.46 102.713 137.92 102.928 139.247C103.403 142.126 104.233 144.911 104.758 146.035C105.109 146.658 105.396 147.316 105.615 147.998C105.808 148.77 105.921 149.56 105.954 150.355C106.002 151.327 105.744 152.289 105.218 153.105C104.943 153.475 104.622 153.809 104.264 154.098C103.43 154.861 102.425 155.407 101.335 155.689C100.647 155.842 99.9307 155.804 99.2626 155.579C98.9144 155.473 98.5982 155.28 98.343 155.019C98.0878 154.757 97.9018 154.435 97.802 154.083C97.3151 152.802 96.8049 151.396 96.7192 150.017C96.653 148.953 96.614 146.321 96.3609 144.621C95.9087 141.399 95.1908 138.221 94.2148 135.119C92.2673 128.599 90.6431 124.514 89.0579 119.275C86.9479 111.969 85.2226 104.556 83.8893 97.0668L81.603 110.107C82.3651 112.754 82.6617 115.515 82.4794 118.265C82.1639 122.095 80.8474 128.143 80.4579 133.077C80.2982 135.041 80.9097 136.816 81.2369 138.752C81.416 139.836 81.5017 140.763 80.7072 141.588C79.9146 142.438 78.9217 143.072 77.821 143.43C76.9743 143.688 76.182 144.1 75.4841 144.648C74.8359 145.209 74.2281 145.815 73.6651 146.463C72.4765 147.629 70.9543 148.389 69.3137 148.635C67.6732 148.881 65.9975 148.601 64.5238 147.833C63.9902 147.555 63.4449 147.154 63.3319 146.561C63.3028 146.335 63.3225 146.106 63.3898 145.889C63.457 145.672 63.5702 145.473 63.7214 145.304C64.0291 144.973 64.3819 144.687 64.7691 144.456C65.3144 144.094 65.8623 143.724 66.4128 143.344Z" fill="#B48978"/>
<path d="M83.8893 97.0745L82.1678 83.9556C82.1678 83.9556 76.1384 81.4419 74.7674 78.7199C74.7674 78.7199 74.8803 81.7404 80.38 85.1222L82.6936 97.1019L81.603 110.111L83.8893 97.0745Z" fill="#826B67"/>
<path d="M72.4071 71.2296C72.2343 71.8748 72.1042 72.5309 72.0177 73.1935C72.5162 77.2391 76.4423 82.5731 82.1445 83.9478C82.199 79.3523 86.1757 73.2996 91.0327 71.8031C92.3788 71.3598 93.8308 71.3662 95.173 71.8211C96.5153 72.2761 97.6763 73.1555 98.4837 74.3286C98.0942 72.7261 96.3181 69.7763 95.8546 69.144C95.8546 69.144 92.3998 69.0458 87.2196 71.6813C83.8933 73.3703 78.9935 74.038 76.0138 73.4724C73.0342 72.9068 72.4071 71.2296 72.4071 71.2296Z" fill="#3B3F60"/>
<path d="M96.5985 68.9868C97.9383 71.7363 100.186 73.7473 100.084 81.163C99.9832 88.5786 100.084 101.682 100.084 101.682C100.084 101.682 97.7475 104.683 92.2517 105.335C86.756 105.987 85.0773 104.357 85.0773 104.357L84.1308 98.7948L83.3246 103.449C81.0673 104.094 78.7172 104.345 76.376 104.192C72.4188 103.948 70.596 102.558 69.3184 100.877C69.3184 94.5921 69.8287 83.9399 70.5258 78.547C71.0711 74.3365 72.0215 70.2673 72.0215 70.2673L96.5985 68.9868Z" fill="#3B3F60"/>
<path d="M82.1443 103.771L82.9467 98.5906L80.824 86.2534C78.5649 85.1144 75.0867 83.7868 74.3311 80.0632C76.4032 83.5472 81.9262 84.6666 81.9262 84.6666C81.9262 84.6666 83.4569 95.2716 84.1191 98.8066L83.3128 103.461C83.3128 103.461 82.8922 103.606 82.1443 103.771Z" fill="#202628"/>
<path d="M74.4715 63.6333C74.4715 65.6679 70.7557 69.0536 72.0216 70.8997C72.1813 71.2296 73.4432 72.7457 76.0372 73.4881C80.9409 74.8982 86.5886 74.8589 91.0716 73.0953C96.4116 70.9939 96.5985 68.9986 96.5985 68.9986C97.4788 68.2131 95.5586 66.583 94.8692 65.5854C94.3065 64.8439 93.9903 63.9421 93.9656 63.0087C93.9656 60.0236 95.7027 58.0008 97.1672 53.2953C98.6317 48.5898 96.8907 43.7547 96.8907 43.7547C96.8907 43.7547 94.2148 43.1067 91.909 42.2622C89.6033 41.4177 82.9196 41.131 82.9196 41.131C82.9196 42.0226 82.5301 42.2425 81.5524 42.4429C80.4735 42.6746 77.8055 43.3934 77.8055 43.3934C77.8055 43.3934 72.0683 50.1138 71.3867 53.4917C70.7051 56.8696 73.5094 59.2538 73.5094 59.2538C73.4987 59.815 73.5549 60.3754 73.6769 60.9231C73.8755 61.7479 74.4053 63.0205 74.4715 63.6333Z" fill="#6D27D7"/>
<path opacity="0.2" d="M79.8075 51.2411C80.1311 50.2883 80.5419 49.3678 81.0344 48.4916C81.0538 48.4563 81.0811 48.4916 81.0694 48.5348C80.6499 49.4037 80.2818 50.2969 79.9672 51.2097C79.6478 52.1405 79.4608 53.1028 79.1882 54.0494C79.1687 54.1044 79.122 54.0769 79.1259 54.0298C79.2304 53.074 79.4596 52.1364 79.8075 51.2411Z" fill="black"/>
<path d="M98.7407 19.4967C99.1301 19.8188 99.6793 20.0152 100.092 20.3373C100.52 20.6878 100.817 21.1748 100.934 21.7181C101.05 22.2614 100.98 22.8286 100.735 23.3263C100.524 23.6252 100.36 23.9551 100.248 24.3043C100.112 25.0153 100.711 25.628 100.953 26.3114C101.098 26.7565 101.094 27.2373 100.942 27.68C100.79 28.1228 100.499 28.503 100.112 28.7624C99.8202 28.9036 99.5425 29.0719 99.2821 29.2651C98.7718 29.7443 99.0328 30.4435 98.764 31.0091C98.4953 31.5747 97.802 31.7946 97.1788 31.7946C97.3159 31.565 97.379 31.2982 97.3595 31.0309C97.3399 30.7636 97.2387 30.509 97.0697 30.3021C97.3424 30.6242 96.6452 31.3979 96.4271 31.5472C95.9519 31.8732 95.356 31.5943 94.9548 31.94C94.8107 32.0578 94.7172 32.2267 94.5653 32.3327C94.0083 32.8434 93.0385 32.3327 92.797 31.6218C92.6023 31.0484 92.6724 30.3335 92.2167 29.9368C92.0312 29.8029 91.8297 29.6934 91.6168 29.6108C91.1673 29.3815 90.7896 29.031 90.5256 28.5984C90.2616 28.1658 90.1216 27.6678 90.1212 27.1598C90.1212 26.7121 90.2302 26.1936 89.9225 25.8676C89.7706 25.7026 89.5331 25.628 89.3851 25.4748C88.8982 24.9681 89.3617 23.9705 88.8514 23.4874C88.5788 23.2321 88.3412 23.3852 88.0452 23.3028C87.787 23.1893 87.5782 22.9857 87.4571 22.7293C87.3015 22.4664 87.2082 22.1708 87.1846 21.8656C87.1609 21.5603 87.2075 21.2537 87.3207 20.9697C87.4843 20.5769 87.7609 20.2823 87.9322 19.9092C88.2594 19.2061 88.1893 18.338 88.5983 17.6821C88.7606 17.4423 88.9684 17.2372 89.2098 17.0788C89.4511 16.9204 89.7212 16.8117 90.0043 16.7591C90.7833 16.602 91.3948 16.8219 92.1193 16.9633C92.8437 17.1047 93.611 16.653 94.2965 16.437C94.9856 16.203 95.7292 16.188 96.4271 16.3938C96.7736 16.5004 97.0917 16.6848 97.3575 16.9331C97.6232 17.1814 97.8298 17.4871 97.9617 17.8274C98.0547 18.2482 98.1851 18.6596 98.3512 19.0568C98.4532 19.2262 98.5853 19.3753 98.7407 19.4967Z" fill="#263238"/>
<path d="M94.1758 22.1048C94.9853 22.8365 95.5397 23.8116 95.7571 24.8857C95.8367 25.1699 95.8258 25.4721 95.726 25.7498C95.6189 25.9468 95.4526 26.1046 95.2511 26.2006C95.0496 26.2965 94.8232 26.3257 94.6042 26.284C94.1662 26.1896 93.7692 25.9571 93.4708 25.6202C92.7957 24.9307 92.3646 24.0362 92.2439 23.075C92.1933 22.6311 92.2439 21.932 92.6879 21.6767C93.1865 21.3821 93.8136 21.7788 94.1758 22.1048Z" fill="#6D27D7"/>
<path d="M90.6236 38.464C90.6704 36.6808 93.2254 33.8449 94.76 30.4984C95.4884 28.9273 96.4699 25.1134 93.7668 23.7191C93.4786 22.0812 92.2517 20.8911 90.8223 20.1841C90.0555 19.8134 89.2455 19.5415 88.4113 19.3749C87.5311 19.1943 86.6936 19.1903 85.8562 18.8683C85.6285 18.7818 85.3856 18.7431 85.1425 18.7545C84.8994 18.766 84.6611 18.8274 84.4424 18.935C84.2522 19.0545 84.0514 19.1557 83.8426 19.2375C83.5311 19.2838 83.2137 19.2691 82.9078 19.1943C82.7545 19.1569 82.5947 19.1562 82.4412 19.1924C82.2876 19.2285 82.1446 19.3005 82.0236 19.4024C81.9224 19.5085 81.8678 19.6499 81.7627 19.752C81.5601 19.9484 81.2408 19.9405 80.9837 20.0034C80.6185 20.0872 80.2983 20.3076 80.0879 20.6201C79.9881 20.8033 79.8775 20.9804 79.7568 21.1503C79.4062 21.5431 78.7441 21.602 78.4637 22.0537C78.265 22.3718 78.3196 22.7843 78.1793 23.1299C78.0391 23.4756 77.821 23.6366 77.6925 23.9155C77.608 24.1327 77.558 24.362 77.5445 24.595C77.4588 25.3452 77.3848 26.1661 77.7353 26.8181C77.9534 27.2109 77.9963 27.694 78.1949 28.1221C78.8298 29.4929 80.4111 30.3767 81.5718 31.2919L85.5446 34.4341L90.6236 38.464Z" fill="#263238"/>
<path d="M94.1797 31.6807C93.2177 30.4513 91.8427 30.7302 91.1845 31.7671C90.5263 32.8041 89.459 32.4035 89.9849 30.8127C89.2799 30.4474 88.1426 30.1096 88.8982 27.1795C88.9721 26.6848 88.9368 26.1797 88.7947 25.7003C88.6527 25.221 88.4074 24.7792 88.0764 24.4065C86.9274 23.3028 84.2243 23.2871 82.8727 24.5636C82.1288 23.3028 80.4267 23.1378 79.0323 24.1708C78.3585 24.6657 77.5367 25.5338 77.6107 28.185C77.6691 28.9706 77.3809 29.9682 77.3303 31.4647C77.1316 37.1168 78.6467 38.3501 80.1385 39.0728C81.0304 39.501 81.5251 39.5834 82.9701 39.6188L82.9234 41.2567C82.9161 41.5014 82.8289 41.7368 82.6754 41.9264C82.5219 42.1161 82.3106 42.2493 82.0743 42.3054C81.5659 44.1857 81.277 46.1195 81.2135 48.0675C88.7229 44.6621 91.9245 42.1758 91.9284 42.1758C91.9323 42.1758 90.612 41.677 90.6976 39.6816C90.7755 37.9652 90.8067 35.9699 90.8067 35.9699C91.0866 36.1611 91.4146 36.2681 91.7525 36.2785C92.0904 36.2889 92.4242 36.2023 92.7152 36.0288C94.2303 35.1883 95.1418 32.9101 94.1797 31.6807Z" fill="#B48978"/>
<path d="M82.9 28.2675L82.3742 32.9101L79.9165 32.0224L82.9 28.2675Z" fill="#826B67"/>
<path d="M82.9701 39.611C84.7734 39.5717 88.6489 38.7154 89.6694 36.3391C89.6694 36.3391 89.4707 38.0516 87.2195 39.3085C85.4395 40.2944 82.935 40.4279 82.935 40.4279L82.9701 39.611Z" fill="#826B67"/>
<path d="M84.6528 29.654C84.665 29.8072 84.7216 29.9534 84.8155 30.0746C84.9094 30.1957 85.0365 30.2863 85.181 30.3353C85.3255 30.3843 85.4811 30.3895 85.6285 30.3502C85.7758 30.3108 85.9085 30.2288 86.0101 30.1141C86.1117 29.9995 86.1777 29.8573 86.1999 29.7052C86.2221 29.5531 86.1996 29.3978 86.1351 29.2585C86.0706 29.1192 85.967 29.002 85.8372 28.9215C85.7073 28.841 85.5569 28.8007 85.4045 28.8056C85.299 28.809 85.1954 28.8339 85.0998 28.8789C85.0042 28.9239 84.9186 28.988 84.8483 29.0673C84.778 29.1467 84.7245 29.2396 84.6908 29.3404C84.6572 29.4413 84.6443 29.5479 84.6528 29.654Z" fill="#263238"/>
<path d="M78.8376 29.4379C78.8702 29.5881 78.9459 29.7254 79.0551 29.8326C79.1644 29.9399 79.3024 30.0125 79.4522 30.0414C79.6019 30.0703 79.7568 30.0542 79.8976 29.9952C80.0384 29.9361 80.1589 29.8368 80.2442 29.7093C80.3295 29.5819 80.3759 29.432 80.3775 29.2782C80.3791 29.1245 80.336 28.9736 80.2534 28.8444C80.1708 28.7151 80.0524 28.6131 79.9129 28.5511C79.7734 28.489 79.6189 28.4696 79.4686 28.4953C79.2611 28.5361 79.0781 28.6583 78.9598 28.835C78.8416 29.0118 78.7976 29.2286 78.8376 29.4379Z" fill="#263238"/>
<path d="M79.1531 26.5982C79.449 26.5379 79.7565 26.5983 80.0083 26.7661C80.2602 26.9339 80.4358 27.1956 80.4968 27.4937L78.265 27.9533C78.2349 27.8055 78.2339 27.6531 78.2623 27.505C78.2906 27.3568 78.3477 27.2158 78.4302 27.0899C78.5127 26.964 78.619 26.8558 78.743 26.7714C78.8671 26.687 79.0064 26.6282 79.1531 26.5982Z" fill="#263238"/>
<path d="M86.4678 26.6846C86.7412 26.8141 86.9526 27.0477 87.0555 27.3341C87.1584 27.6205 87.1446 27.9364 87.0169 28.2125L84.9526 27.2384C85.0811 26.9627 85.3127 26.7495 85.5967 26.6457C85.8807 26.5419 86.1939 26.5559 86.4678 26.6846Z" fill="#263238"/>
<path d="M82.0782 34.6776C82.3898 34.6423 83.0831 34.4812 83.0402 34.1945C82.9802 33.8824 82.9963 33.5602 83.087 33.2558C83.1142 33.189 83.1571 33.2793 83.1571 33.3225C83.1487 33.8228 83.3271 34.308 83.6567 34.6819C83.9864 35.0559 84.4434 35.2912 84.9371 35.3414C84.9371 35.3414 84.9604 35.3728 84.9371 35.3768C84.7148 35.4073 84.4886 35.3928 84.2719 35.3342C84.0553 35.2755 83.8523 35.1738 83.6751 35.035C83.4882 34.8819 83.3713 34.7208 83.0987 34.7483C82.5417 34.8229 81.6926 35.0311 81.2992 34.5401C81.5451 34.6453 81.8115 34.6924 82.0782 34.6776Z" fill="#826B67"/>
<path d="M78.8415 36.834C78.8503 36.515 78.9336 36.2026 79.0845 35.9221C79.2354 35.6417 79.4497 35.401 79.7101 35.2197C79.7984 35.1505 79.9033 35.1061 80.0141 35.0909C80.1249 35.0757 80.2377 35.0903 80.3411 35.1332L81.2798 35.6478L80.0451 37.9259L79.1181 37.4192C79.0245 37.3553 78.9495 37.2674 78.9009 37.1645C78.8523 37.0616 78.8318 36.9475 78.8415 36.834Z" fill="#3B3F60"/>
<path d="M80.6331 35.7224C80.3728 35.9038 80.1584 36.1444 80.0075 36.4249C79.8566 36.7054 79.7734 37.0178 79.7646 37.3368C79.7646 37.922 80.193 38.1498 80.6877 37.8434C80.948 37.6621 81.1624 37.4214 81.3133 37.141C81.4642 36.8605 81.5474 36.5481 81.5562 36.2291C81.5407 35.6439 81.1278 35.42 80.6331 35.7224Z" fill="#202628"/>
<path d="M82.4249 34.6148V34.9212C82.4222 34.9889 82.4039 35.055 82.3715 35.1143C82.339 35.1736 82.2933 35.2245 82.238 35.2629L80.6371 36.2527V35.7224L82.4249 34.6148Z" fill="#202628"/>
<path d="M81.4978 34.112L82.4209 34.6187L80.6332 35.7224L79.7101 35.2196L81.4978 34.112Z" fill="#3B3F60"/>
<path d="M78.5182 36.8458H78.1755H77.4199C77.1433 36.8458 76.8707 36.8458 76.6643 36.8458H76.524C76.4893 36.8389 76.4536 36.8389 76.4189 36.8458C76.3778 36.8653 76.3447 36.8986 76.3254 36.94V36.9911C76.3482 37.0293 76.3822 37.0595 76.4228 37.0774C76.459 37.0815 76.4956 37.0815 76.5318 37.0774H76.672C76.8785 37.0774 77.1511 37.0303 77.4238 36.9989L78.1716 36.9086L78.5143 36.8615L78.5182 36.8458Z" fill="#D2D2D2"/>
<path d="M78.9233 37.7099L78.6428 37.9102L78.0352 38.3658C77.8171 38.5308 77.5912 38.6918 77.4354 38.8253L77.3302 38.9196C77.3035 38.9437 77.2788 38.97 77.2562 38.9982C77.2428 39.0403 77.2428 39.0856 77.2562 39.1278L77.2913 39.1671C77.3329 39.1821 77.3783 39.1821 77.4198 39.1671C77.4523 39.1502 77.4824 39.1291 77.5094 39.1042L77.6185 39.0139C77.7743 38.8803 77.9651 38.68 78.1638 38.4876L78.7013 37.9534L78.9389 37.7059L78.9233 37.7099Z" fill="#D2D2D2"/>
<path d="M79.6166 38.2951L79.5037 38.6251L79.27 39.3478C79.1843 39.611 79.0947 39.8741 79.048 40.0744L79.0129 40.2119C79.0099 40.2485 79.0099 40.2853 79.0129 40.3219C79.0218 40.3653 79.0435 40.405 79.0752 40.4358H79.1298C79.1728 40.4249 79.2111 40.4001 79.2388 40.3651C79.2523 40.3317 79.264 40.2976 79.2739 40.263C79.2739 40.2237 79.2972 40.1766 79.3089 40.1255C79.3596 39.9252 79.4024 39.6502 79.4491 39.3792C79.4959 39.1082 79.5465 38.8333 79.5816 38.629L79.6361 38.2873L79.6166 38.2951Z" fill="#D2D2D2"/>
<g opacity="0.2">
<path d="M78.5182 36.8458H78.1755H77.4199C77.1433 36.8458 76.8707 36.8458 76.6643 36.8458H76.524C76.4893 36.8389 76.4536 36.8389 76.4189 36.8458C76.3778 36.8653 76.3447 36.8986 76.3254 36.94V36.9911C76.3482 37.0293 76.3822 37.0595 76.4228 37.0774C76.459 37.0815 76.4956 37.0815 76.5318 37.0774H76.672C76.8785 37.0774 77.1511 37.0303 77.4238 36.9989L78.1716 36.9086L78.5143 36.8615L78.5182 36.8458Z" fill="black"/>
<path d="M78.9233 37.7099L78.6428 37.9102L78.0352 38.3658C77.8171 38.5308 77.5912 38.6918 77.4354 38.8253L77.3302 38.9196C77.3035 38.9437 77.2787 38.97 77.2562 38.9982C77.2428 39.0403 77.2428 39.0856 77.2562 39.1278L77.2913 39.1671C77.3328 39.1821 77.3783 39.1821 77.4198 39.1671C77.4523 39.1502 77.4824 39.1291 77.5094 39.1042L77.6185 39.0139C77.7743 38.8803 77.9651 38.68 78.1637 38.4876L78.7012 37.9534L78.9388 37.7059L78.9233 37.7099Z" fill="black"/>
<path d="M79.6167 38.2951L79.5037 38.6251L79.27 39.3478C79.1843 39.611 79.0948 39.8741 79.048 40.0744L79.013 40.2119C79.01 40.2485 79.01 40.2853 79.013 40.3219C79.0219 40.3653 79.0436 40.405 79.0753 40.4358H79.1298C79.1729 40.4249 79.2112 40.4001 79.2389 40.3651C79.2524 40.3317 79.2641 40.2976 79.2739 40.263C79.2739 40.2237 79.2973 40.1766 79.309 40.1255C79.3596 39.9252 79.4025 39.6502 79.4492 39.3792C79.4959 39.1082 79.5466 38.8333 79.5816 38.629L79.6361 38.2873L79.6167 38.2951Z" fill="black"/>
</g>
<path d="M80.1424 35.0822L80.7734 35.4277L80.4657 35.6162L79.8386 35.2707L80.1424 35.0822Z" fill="#202628"/>
<path d="M80.7734 35.4277L80.1424 35.0822L80.1463 35.2L80.6721 35.4866L80.7734 35.4277Z" fill="#263238"/>
<path d="M80.1463 35.2L79.9399 35.3296L79.8386 35.2707L80.1424 35.0822L80.1463 35.2Z" fill="black"/>
<path d="M100.949 81.1315C101.463 80.5698 102.118 80.0749 102.332 79.309C102.396 79.112 102.413 78.9025 102.381 78.6976C102.349 78.4927 102.27 78.2984 102.149 78.1307C102.088 78.0713 102.041 77.9988 102.012 77.9186C101.997 77.8488 101.997 77.7763 102.012 77.7065C102.085 77.4198 102.066 77.1175 101.958 76.8424C101.904 76.7294 101.827 76.6291 101.733 76.548C101.638 76.4668 101.528 76.4065 101.409 76.371C101.549 75.9452 101.549 75.485 101.409 75.0592C101.237 74.5643 100.731 74.1676 100.396 74.7214C100.236 74.9974 100.106 75.2897 100.007 75.5933C99.7522 76.3463 99.5862 77.1267 99.5119 77.9186C99.4301 78.7395 99.2354 81.0608 100.501 81.1826C100.599 81.2061 100.879 81.2101 100.949 81.1315Z" fill="#826B67"/>
<path d="M96.9802 44.1829C100.33 44.1829 101.755 46.6691 104.112 50.1845C106.838 54.2537 110.211 59.3127 111.123 61.2727C112.244 63.7 112.482 64.6309 109.907 67.2154C108.579 68.5469 106.725 70.1337 104.844 71.9287C103.356 73.3427 101.565 74.8432 100.127 76.3082C99.9336 76.4651 99.7885 76.6745 99.7092 76.9119C99.6298 77.1492 99.6194 77.4045 99.6794 77.6476C99.7829 77.9709 99.8674 78.3001 99.9325 78.6335C99.9334 79.0702 99.8995 79.5063 99.8313 79.9375C99.8006 80.1544 99.8324 80.3755 99.9229 80.5747C100.013 80.7738 100.159 80.9426 100.341 81.0608C100.538 81.1353 100.749 81.1596 100.957 81.1315C100.596 81.409 100.195 81.6302 99.769 81.7875C99.3362 81.9413 98.8618 81.9244 98.4408 81.7404C98.0513 81.5479 97.7475 81.1708 97.3268 81.0412C97.097 80.9744 96.8555 80.9862 96.6257 80.9234C96.3886 80.8596 96.1774 80.7222 96.022 80.5306C95.7805 80.2282 95.6832 79.7882 95.3443 79.5997C95.1724 79.5321 94.9969 79.4744 94.8185 79.4269C94.6472 79.3453 94.4981 79.223 94.3841 79.0704C94.2701 78.9178 94.1946 78.7395 94.1641 78.551C94.1051 78.1727 94.1143 77.7869 94.1914 77.4119C94.3405 76.3985 94.5446 75.3941 94.8029 74.4032C94.9088 74.0693 95.0723 73.7568 95.2859 73.4802C95.5157 73.1464 95.7299 72.8046 95.9792 72.4904C97.6501 70.338 102.955 63.1659 102.955 63.1659L95.4456 54.9175C95.4456 54.9175 93.8253 51.1861 96.9802 44.1829Z" fill="#B48978"/>
<path d="M100.949 81.1315C100.104 81.7757 98.8537 82.2392 97.9929 81.379C97.7818 81.1881 97.5319 81.046 97.2607 80.9627C96.7115 80.8998 96.1779 80.8095 95.9286 80.2557C95.8206 79.9856 95.6496 79.7457 95.4301 79.5565C95.1613 79.3798 94.8692 79.4072 94.6784 79.2462C94.4849 79.0844 94.3483 78.864 94.2889 78.6178C94.1058 77.3255 94.616 75.8683 94.8731 74.5879C95.064 73.8023 95.6716 73.1896 96.1039 72.5022L97.0932 71.1746C99.0056 68.6058 101.101 65.7503 102.963 63.1619C101.015 65.6718 98.8615 68.4919 96.9335 71.0489L95.9403 72.3726C95.4924 73.0639 94.8497 73.7041 94.6667 74.5368C94.4836 75.3695 94.2966 76.159 94.1642 76.9799C94.0303 77.5328 94.009 78.1074 94.1019 78.6688C94.1785 78.9605 94.3499 79.2177 94.5888 79.3994C94.8419 79.5879 95.1613 79.5644 95.3678 79.6979C95.5658 79.8715 95.7228 80.0876 95.8274 80.3303C95.9514 80.5833 96.1538 80.7887 96.4038 80.9155C96.6689 81.0028 96.9436 81.0569 97.2217 81.0766C97.7553 81.1983 98.1059 81.7325 98.6512 81.8621C99.4886 82.0781 100.299 81.6107 100.941 81.1237L100.949 81.1315Z" fill="#826B67"/>
<path d="M102.947 63.1619C104.427 64.627 106.725 64.733 107.574 64.6898C106.728 65.0445 105.799 65.1501 104.895 64.9944C103.991 64.8387 103.15 64.4281 102.468 63.81L102.947 63.1619Z" fill="#826B67"/>
<path d="M107.045 54.4462C107.557 55.081 108.025 55.7503 108.447 56.4493C107.908 57.9473 106.999 59.2817 105.806 60.3261C104.68 61.3129 103.305 61.9667 101.833 62.2153L100.4 60.4557L107.045 54.4462Z" fill="black"/>
<path d="M96.8906 43.7429C99.4885 44.1357 100.754 44.7327 102.25 46.9244C103.746 49.1161 105.51 51.8499 106.414 52.6354C107.317 53.421 107.457 54.293 107.274 54.9489C106.733 57.066 103.917 60.4478 100.957 60.9741C99.7144 61.3119 99.6053 60.5342 98.4836 59.1202C97.3618 57.7062 96.2752 56.5632 95.2313 55.3299C94.1875 54.0966 93.8876 46.8577 96.8906 43.7429Z" fill="#6D27D7"/>
<path opacity="0.2" d="M96.8906 43.7429C99.4885 44.1357 100.754 44.7327 102.25 46.9244C103.746 49.1161 105.51 51.8499 106.414 52.6354C107.317 53.421 107.457 54.293 107.274 54.9489C106.733 57.066 103.917 60.4478 100.957 60.9741C99.7144 61.3119 99.6053 60.5342 98.4836 59.1202C97.3618 57.7062 96.2752 56.5632 95.2313 55.3299C94.1875 54.0966 93.8876 46.8577 96.8906 43.7429Z" fill="black"/>
<path d="M81.2135 48.1735C81.9855 47.7422 82.8717 47.5646 83.7486 47.6653C84.6255 47.7659 85.4494 48.1399 86.1055 48.7352C86.8899 49.3226 87.5241 50.09 87.9556 50.974C87.9556 50.974 91.2702 48.6723 92.3491 46.6849C92.997 45.4684 93.3945 44.1324 93.5176 42.7571C92.917 42.4663 92.3682 42.0774 91.8934 41.6062C91.0832 40.8207 91.1494 39.9487 90.6898 40.0351C90.669 40.5319 90.5758 41.0229 90.4133 41.4923C90.1874 41.9322 88.5437 44.2418 86.8806 45.2591C85.2175 46.2764 81.9925 47.1366 81.2135 48.1735Z" fill="#6D27D7"/>
<path opacity="0.2" d="M81.2135 48.1735C81.9855 47.7422 82.8717 47.5646 83.7486 47.6653C84.6255 47.7659 85.4494 48.1399 86.1055 48.7352C86.8899 49.3226 87.5241 50.09 87.9556 50.974C87.9556 50.974 91.2702 48.6723 92.3491 46.6849C92.997 45.4684 93.3945 44.1324 93.5176 42.7571C92.917 42.4663 92.3682 42.0774 91.8934 41.6062C91.0832 40.8207 91.1494 39.9487 90.6898 40.0351C90.669 40.5319 90.5758 41.0229 90.4133 41.4923C90.1874 41.9322 88.5437 44.2418 86.8806 45.2591C85.2175 46.2764 81.9925 47.1366 81.2135 48.1735Z" fill="black"/>
<path d="M81.2134 48.1735C81.3585 46.7317 81.6058 45.3023 81.9535 43.8962C82.1106 43.0999 82.4144 42.3405 82.8493 41.6573C82.9325 41.3436 82.9718 41.0197 82.9662 40.695C82.8717 40.7048 82.7814 40.7393 82.7042 40.7951C82.627 40.8509 82.5656 40.9261 82.526 41.0132C82.4053 41.3077 80.9953 42.5843 79.7217 42.7728C78.6194 44.3439 77.5873 45.5223 76.781 47.4115C77.6963 46.787 78.7285 46.4453 79.6126 46.7281C79.9621 46.8481 80.284 47.038 80.5591 47.2863C80.8341 47.5347 81.0567 47.8364 81.2134 48.1735Z" fill="#6D27D7"/>
<path opacity="0.2" d="M81.2134 48.1735C81.3585 46.7317 81.6058 45.3023 81.9535 43.8962C82.1106 43.0999 82.4144 42.3405 82.8493 41.6573C82.9325 41.3436 82.9718 41.0197 82.9662 40.695C82.8717 40.7048 82.7814 40.7393 82.7042 40.7951C82.627 40.8509 82.5656 40.9261 82.526 41.0132C82.4053 41.3077 80.9953 42.5843 79.7217 42.7728C78.6194 44.3439 77.5873 45.5223 76.781 47.4115C77.6963 46.787 78.7285 46.4453 79.6126 46.7281C79.9621 46.8481 80.284 47.038 80.5591 47.2863C80.8341 47.5347 81.0567 47.8364 81.2134 48.1735Z" fill="black"/>
<path d="M62.5178 146.902C62.401 146.902 62.3426 148.002 63.0047 148.517C63.7837 149.114 66.1713 150.225 68.999 149.73C71.8267 149.235 73.3341 148.289 74.4285 147.291C75.1491 146.635 75.9008 146.058 76.6642 145.469C77.0075 145.169 77.3855 144.912 77.7898 144.703C78.2059 144.528 78.6343 144.385 79.0713 144.275C80.0061 144.015 81.0187 143.748 81.6692 143.037C82.1911 142.48 82.0782 141.235 82.0587 140.512L62.5178 146.902Z" fill="#263238"/>
<path d="M81.1668 134.675C81.0732 135.176 81.0732 135.69 81.1668 136.191C81.2585 136.508 81.373 136.818 81.5095 137.118C81.8667 138.011 82.0671 138.96 82.1016 139.923C82.1188 140.122 82.1003 140.323 82.047 140.516C81.9727 140.707 81.86 140.881 81.716 141.026C81.0149 141.788 79.9516 142.161 78.9895 142.507C78.2644 142.755 77.5774 143.104 76.9486 143.544C75.3594 144.722 74.4247 146.588 72.6642 147.578C71.336 148.332 69.7663 148.992 68.2239 149.051C66.0272 149.133 63.5228 148.54 62.9113 147.554C62.1518 146.337 61.5753 144.907 64.7614 143.261C65.3651 142.947 67.4878 141.576 68.1889 141.081C68.9562 140.574 69.6771 139.998 70.3428 139.361C70.9448 138.779 71.4037 138.064 71.6826 137.271C71.9436 136.399 71.8423 135.476 71.8384 134.581C71.8292 134.344 71.8554 134.107 71.9163 133.878C72.15 133.143 73.2133 133.147 73.8638 133.12C74.6943 133.086 75.5232 133.22 76.302 133.512C76.561 133.588 76.7994 133.723 76.9992 133.905C77.4238 134.349 77.3887 135.048 77.5718 135.637C77.6224 135.795 77.7899 135.975 77.9145 135.873C77.9472 135.844 77.9702 135.806 77.9807 135.763C78.2066 135.162 78.0742 134.416 78.491 133.933C78.9077 133.45 80.01 133.324 80.4151 132.798L80.493 132.059C80.6195 132.089 80.739 132.143 80.8446 132.219C80.9502 132.295 81.0398 132.392 81.1084 132.503C81.2306 132.734 81.2872 132.995 81.2719 133.257C81.2648 133.732 81.2297 134.205 81.1668 134.675Z" fill="#3B3F60"/>
<path d="M74.1793 146.557C74.6728 146.093 75.1025 145.565 75.4568 144.986C75.4568 144.986 72.1695 147.633 70.5765 146.655C69.5482 146.023 69.9844 145.182 69.9961 144.919C70.0078 144.656 66.405 142.955 65.4313 142.892C65.1664 143.049 64.9483 143.187 64.8081 143.253C62.3114 144.377 62.0349 145.693 62.5296 147.311C63.145 148.297 65.3962 149.239 68.2356 149.114C70.0896 149.035 72.8901 147.711 74.1793 146.557Z" fill="#202628"/>
<path d="M69.8209 145.135C69.8669 145.132 69.9107 145.114 69.9456 145.084C69.9649 145.066 69.9803 145.044 69.9909 145.02C70.0015 144.995 70.0069 144.969 70.0069 144.942C70.0069 144.916 70.0015 144.89 69.9909 144.865C69.9803 144.841 69.9649 144.819 69.9456 144.801C69.3418 144.133 66.5609 142.605 65.0769 142.837C65.0511 142.841 65.0262 142.85 65.0038 142.863C64.9814 142.877 64.9619 142.895 64.9463 142.916C64.9307 142.937 64.9195 142.961 64.9131 142.987C64.9068 143.012 64.9055 143.039 64.9094 143.065C64.9132 143.091 64.9222 143.116 64.9359 143.139C64.9496 143.162 64.9678 143.182 64.9893 143.197C65.0107 143.212 65.0351 143.223 65.0609 143.229C65.0867 143.235 65.1133 143.235 65.1392 143.23C66.5219 143.018 69.1705 144.538 69.6495 145.068C69.6707 145.092 69.6973 145.111 69.7271 145.123C69.7569 145.134 69.7891 145.138 69.8209 145.135Z" fill="#263238"/>
<path d="M72.0487 143.678C72.0718 143.678 72.0948 143.674 72.1162 143.665C72.1376 143.656 72.1571 143.643 72.1733 143.627C72.1921 143.609 72.207 143.587 72.2172 143.563C72.2274 143.539 72.2326 143.513 72.2326 143.487C72.2326 143.461 72.2274 143.435 72.2172 143.411C72.207 143.387 72.1921 143.366 72.1733 143.348C71.5735 142.68 68.7887 141.152 67.3047 141.384C67.2766 141.385 67.2491 141.392 67.224 141.405C67.1988 141.417 67.1766 141.435 67.1588 141.457C67.141 141.479 67.128 141.504 67.1207 141.532C67.1134 141.559 67.1119 141.588 67.1163 141.616C67.1207 141.644 67.131 141.67 67.1464 141.694C67.1619 141.718 67.1821 141.738 67.2058 141.753C67.2295 141.768 67.2561 141.778 67.2839 141.782C67.3117 141.786 67.34 141.784 67.367 141.777C68.7497 141.568 71.3983 143.085 71.8773 143.615C71.8986 143.639 71.9254 143.657 71.9553 143.668C71.9852 143.679 72.0172 143.682 72.0487 143.678Z" fill="#263238"/>
<path d="M74.1052 142.165C74.1283 142.166 74.1513 142.162 74.1727 142.153C74.1941 142.144 74.2136 142.131 74.2299 142.114C74.2486 142.096 74.2635 142.075 74.2737 142.051C74.2839 142.027 74.2892 142.001 74.2892 141.975C74.2892 141.949 74.2839 141.923 74.2737 141.899C74.2635 141.875 74.2486 141.853 74.2299 141.835C73.6261 141.168 70.8452 139.64 69.3612 139.872C69.3331 139.873 69.3056 139.88 69.2805 139.892C69.2553 139.905 69.2331 139.923 69.2153 139.945C69.1975 139.967 69.1845 139.992 69.1772 140.02C69.1699 140.047 69.1684 140.075 69.1728 140.103C69.1772 140.131 69.1875 140.158 69.2029 140.182C69.2184 140.205 69.2386 140.226 69.2623 140.241C69.286 140.256 69.3126 140.266 69.3404 140.27C69.3682 140.274 69.3965 140.272 69.4235 140.264C70.8062 140.052 73.4548 141.572 73.9338 142.103C73.9551 142.126 73.9819 142.145 74.0118 142.155C74.0417 142.166 74.0737 142.17 74.1052 142.165Z" fill="#263238"/>
<path d="M75.6632 140.567C75.6863 140.567 75.7093 140.563 75.7307 140.554C75.7521 140.545 75.7716 140.532 75.7879 140.516C75.8066 140.498 75.8215 140.476 75.8317 140.452C75.8419 140.428 75.8472 140.402 75.8472 140.376C75.8472 140.35 75.8419 140.324 75.8317 140.3C75.8215 140.277 75.8066 140.255 75.7879 140.237C75.1881 139.565 72.3954 138.041 70.9192 138.273C70.8678 138.281 70.8215 138.309 70.7901 138.35C70.7588 138.392 70.745 138.445 70.7517 138.497C70.7555 138.523 70.7645 138.549 70.7782 138.572C70.7918 138.595 70.8099 138.614 70.8313 138.63C70.8528 138.646 70.8771 138.657 70.9029 138.663C70.9287 138.669 70.9554 138.67 70.9815 138.666C72.3642 138.454 75.0128 139.974 75.4919 140.5C75.5123 140.525 75.5388 140.544 75.5688 140.556C75.5989 140.568 75.6314 140.572 75.6632 140.567Z" fill="#263238"/>
<path d="M76.7148 138.705C76.7607 138.702 76.8043 138.684 76.8394 138.654C76.8754 138.617 76.8955 138.567 76.8955 138.515C76.8955 138.462 76.8754 138.412 76.8394 138.375C76.0098 137.425 73.1081 136.176 71.628 136.411C71.5818 136.425 71.5419 136.455 71.5159 136.495C71.4898 136.536 71.4794 136.585 71.4866 136.633C71.4937 136.681 71.5179 136.725 71.5547 136.757C71.5915 136.788 71.6383 136.805 71.6865 136.804C73.0224 136.596 75.7995 137.798 76.5356 138.638C76.5578 138.663 76.5857 138.683 76.6169 138.694C76.6482 138.706 76.6818 138.71 76.7148 138.705Z" fill="#263238"/>
<path d="M96.7659 152.154C97.1165 154.169 97.6228 155.453 98.581 156.506C99.5391 157.558 101.152 157.664 102.71 157.04C104.268 156.415 106.215 155.135 106.48 153.305C106.745 151.474 106.534 150.28 105.974 148.458L96.7659 152.154Z" fill="#263238"/>
<path d="M102.195 136.113C102.858 136.046 102.764 137.648 103.224 140.363C103.722 143.297 105.214 145.543 105.829 147.884C106.534 150.563 106.495 151.812 105.557 153.67C104.618 155.528 100.859 157.822 98.6705 155.775C96.8828 154.102 96.5945 151.965 96.4504 149.196C96.3024 146.337 96.2206 144.318 95.8623 142.189C95.5195 140.154 94.4095 138.045 94.9548 137.719C95.0288 138.01 95.8311 140.319 96.2012 140.268C96.2021 140.005 96.1773 139.742 96.1272 139.483C96.0955 139.366 96.0889 139.244 96.1077 139.125C96.1265 139.006 96.1703 138.892 96.2362 138.791C96.5401 138.531 96.8922 138.333 97.2723 138.21C97.9071 137.986 99.0483 137.696 99.6988 137.531C100.022 137.448 100.349 137.381 100.676 137.326C100.954 137.274 101.237 137.261 101.518 137.287C101.595 137.292 101.67 137.314 101.738 137.352C101.805 137.39 101.863 137.443 101.907 137.507C101.953 137.603 101.976 137.707 101.973 137.813C101.995 138.003 102.044 138.188 102.118 138.363C102.149 138.442 102.223 138.528 102.316 138.493C102.349 138.476 102.375 138.449 102.391 138.416C102.407 138.382 102.412 138.345 102.406 138.308C102.371 137.986 102.246 136.297 102.195 136.113Z" fill="#3B3F60"/>
<path d="M105.6 147.13C105.705 147.523 106.379 150.072 105.6 150.685C104.762 151.349 104.042 149.373 104.042 149.373C104.042 149.373 101.892 149.173 98.9782 150.85C99.1808 151.243 98.8575 152.731 97.9889 152.578C97.1203 152.425 96.4816 149.475 96.4738 149.436C96.6218 152.087 96.949 154.149 98.6822 155.775C100.871 157.822 104.634 155.52 105.568 153.67C106.503 151.82 106.546 150.563 105.841 147.884C105.752 147.617 105.681 147.366 105.6 147.13Z" fill="#202628"/>
<path d="M98.9121 150.94C98.9419 150.932 98.9707 150.92 98.9977 150.905C100.51 149.995 102.247 149.538 104.007 149.585C104.069 149.59 104.132 149.573 104.183 149.536C104.234 149.499 104.271 149.446 104.287 149.385C104.292 149.356 104.29 149.327 104.282 149.299C104.274 149.271 104.26 149.245 104.241 149.223C104.222 149.202 104.199 149.184 104.172 149.173C104.146 149.161 104.117 149.156 104.088 149.157C102.208 149.098 100.351 149.587 98.7407 150.567C98.7148 150.581 98.6922 150.6 98.6741 150.623C98.6561 150.646 98.6432 150.673 98.6362 150.701C98.6292 150.73 98.6283 150.76 98.6336 150.789C98.6388 150.818 98.6501 150.845 98.6667 150.869C98.6967 150.904 98.7357 150.928 98.7792 150.941C98.8226 150.953 98.8687 150.953 98.9121 150.94Z" fill="#263238"/>
<path d="M98.137 148.866C98.1647 148.861 98.1912 148.85 98.2149 148.835C99.9295 147.87 101.86 147.363 103.824 147.362C103.886 147.364 103.948 147.345 103.998 147.307C104.048 147.269 104.084 147.215 104.1 147.154C104.103 147.125 104.1 147.095 104.09 147.068C104.081 147.04 104.066 147.015 104.046 146.993C104.026 146.972 104.001 146.956 103.975 146.945C103.948 146.934 103.919 146.929 103.89 146.93C101.813 146.924 99.7708 147.466 97.9656 148.501C97.9388 148.514 97.915 148.532 97.8958 148.555C97.8766 148.577 97.8625 148.604 97.8543 148.632C97.8462 148.661 97.8443 148.691 97.8487 148.721C97.8531 148.75 97.8638 148.778 97.8799 148.803C97.9118 148.838 97.9532 148.863 97.999 148.874C98.0448 148.885 98.0928 148.883 98.137 148.866Z" fill="#263238"/>
<path d="M103.45 145.351C103.494 145.34 103.535 145.319 103.568 145.288C103.601 145.257 103.626 145.218 103.641 145.174C103.648 145.146 103.648 145.117 103.643 145.089C103.637 145.061 103.625 145.034 103.608 145.011C103.591 144.988 103.569 144.969 103.543 144.956C103.518 144.943 103.49 144.935 103.461 144.935C100.427 144.573 97.654 146.364 97.5372 146.443C97.5112 146.456 97.4884 146.475 97.4704 146.499C97.4524 146.522 97.4397 146.549 97.433 146.578C97.4263 146.607 97.4259 146.636 97.4318 146.665C97.4377 146.694 97.4497 146.722 97.4671 146.745C97.5102 146.79 97.5675 146.817 97.6288 146.823C97.6901 146.828 97.7515 146.812 97.802 146.777C97.8293 146.777 100.528 145.021 103.344 145.359C103.38 145.364 103.416 145.361 103.45 145.351Z" fill="#263238"/>
<path d="M103.076 143.45C103.119 143.44 103.16 143.419 103.193 143.388C103.227 143.358 103.252 143.32 103.267 143.277C103.275 143.249 103.277 143.22 103.272 143.191C103.267 143.162 103.256 143.135 103.239 143.111C103.222 143.088 103.2 143.068 103.174 143.055C103.149 143.041 103.12 143.034 103.091 143.033C100.963 142.797 98.8215 143.333 97.0502 144.546C97.0255 144.561 97.0041 144.581 96.9877 144.605C96.9713 144.629 96.9601 144.656 96.9549 144.684C96.9498 144.713 96.9507 144.742 96.9578 144.771C96.9648 144.799 96.9777 144.825 96.9957 144.848C97.0436 144.889 97.1043 144.912 97.1671 144.912C97.2298 144.912 97.2906 144.889 97.3385 144.848C98.9965 143.733 100.988 143.236 102.971 143.442C103.005 143.451 103.04 143.453 103.076 143.45Z" fill="#263238"/>
<path d="M102.636 141.317C102.678 141.306 102.718 141.284 102.751 141.254C102.783 141.224 102.808 141.186 102.823 141.144C102.831 141.116 102.833 141.087 102.828 141.058C102.824 141.03 102.813 141.002 102.796 140.979C102.78 140.955 102.758 140.935 102.733 140.921C102.708 140.907 102.68 140.898 102.651 140.897C99.5157 140.433 96.6919 142.393 96.5711 142.468C96.546 142.483 96.5242 142.503 96.5074 142.527C96.4905 142.551 96.479 142.579 96.4735 142.608C96.4679 142.637 96.4686 142.667 96.4753 142.695C96.4821 142.724 96.4949 142.751 96.5127 142.774C96.558 142.817 96.6167 142.842 96.6786 142.846C96.7405 142.85 96.8018 142.831 96.8516 142.794C96.8788 142.774 99.6092 140.881 102.523 141.313C102.56 141.322 102.598 141.324 102.636 141.317Z" fill="#263238"/>
<path d="M126.803 34.7386C125.889 34.5154 124.932 34.544 124.032 34.8215C123.133 35.099 122.324 35.6153 121.691 36.3162C121.057 37.0171 120.622 37.8768 120.431 38.8055C120.239 39.7342 120.299 40.6976 120.604 41.5949C120.909 42.4922 121.447 43.2904 122.163 43.9059C122.878 44.5215 123.745 44.9317 124.672 45.0937C125.598 45.2556 126.551 45.1634 127.43 44.8267C128.31 44.4899 129.083 43.921 129.669 43.1795C128.54 42.3114 125.568 39.8801 125.568 39.8801L126.803 34.7386ZM132.135 41.4827C132.516 39.8801 132.309 38.1927 131.552 36.7321C130.796 35.2715 129.54 34.1364 128.018 33.5367L128.189 32.8258L128.914 33.0026C128.961 33.0134 129.01 33.0056 129.051 32.9807C129.093 32.9558 129.123 32.9158 129.136 32.869L129.436 31.62C129.446 31.5726 129.438 31.523 129.412 31.4818C129.387 31.4406 129.346 31.4112 129.299 31.4L126.098 30.6145C126.074 30.6086 126.05 30.6076 126.026 30.6113C126.002 30.6151 125.979 30.6236 125.958 30.6364C125.938 30.6492 125.92 30.666 125.906 30.6858C125.891 30.7057 125.881 30.7281 125.876 30.7519L125.576 32.001C125.57 32.0245 125.569 32.0489 125.573 32.0728C125.577 32.0966 125.585 32.1195 125.598 32.14C125.611 32.1606 125.627 32.1783 125.647 32.1922C125.666 32.2061 125.689 32.2159 125.712 32.2209L126.437 32.3977L126.265 33.1086C124.992 32.9726 123.707 33.2071 122.561 33.7842L122.324 33.3914L122.744 33.1322C122.758 33.1245 122.77 33.114 122.78 33.1014C122.79 33.0888 122.797 33.0744 122.801 33.0589C122.805 33.0435 122.806 33.0274 122.803 33.0117C122.801 32.9959 122.795 32.9808 122.787 32.9672L122.347 32.2366C122.33 32.2099 122.304 32.1909 122.273 32.1836C122.243 32.1762 122.21 32.1812 122.183 32.1974L120.314 33.3404C120.287 33.3581 120.268 33.3855 120.261 33.4169C120.254 33.4484 120.259 33.4814 120.275 33.5092L120.711 34.228C120.729 34.255 120.756 34.2741 120.787 34.2815C120.818 34.2888 120.851 34.2837 120.879 34.2673L121.299 34.0081L121.541 34.4009C120.671 35.0535 119.969 35.9078 119.496 36.8915C119.022 37.8753 118.79 38.9596 118.82 40.0527C118.85 41.1458 119.14 42.2157 119.667 43.1717C120.193 44.1278 120.94 44.942 121.844 45.5455C122.748 46.149 123.784 46.524 124.862 46.6389C125.94 46.7538 127.03 46.6051 128.04 46.2054C129.049 45.8057 129.948 45.1669 130.661 44.3428C131.374 43.5187 131.879 42.5336 132.135 41.4709V41.4827ZM124.158 45.7364C123.011 45.4532 121.973 44.8336 121.175 43.9558C120.377 43.078 119.855 41.9815 119.674 40.8046C119.494 39.6278 119.663 38.4234 120.161 37.3436C120.659 36.2638 121.463 35.357 122.472 34.7377C123.481 34.1184 124.649 33.8144 125.828 33.8641C127.008 33.9138 128.147 34.315 129.101 35.017C130.055 35.7189 130.781 36.6902 131.188 37.8081C131.595 38.926 131.664 40.1405 131.387 41.298C131.202 42.0685 130.868 42.7947 130.405 43.4349C129.941 44.0751 129.357 44.6169 128.685 45.0291C128.014 45.4414 127.268 45.7161 126.492 45.8374C125.715 45.9588 124.922 45.9245 124.158 45.7364Z" fill="#D2D2D2"/>
<path d="M61.6227 9.44903C63.6764 10.8001 65.1439 12.888 65.7279 15.2896L65.9305 16.3855C66.2383 18.8125 65.6299 21.2675 64.226 23.2632C62.8221 25.2588 60.7254 26.6491 58.3521 27.158C55.9789 27.6669 53.5026 27.2573 51.415 26.0104C49.3273 24.7635 47.781 22.7705 47.0829 20.4272L46.8259 19.3392C46.4892 17.4645 46.7049 15.5314 47.4462 13.779C48.1875 12.0265 49.4219 10.5317 50.9968 9.47933C52.5717 8.42696 54.4179 7.86321 56.3072 7.85783C58.1964 7.85244 60.0458 8.40565 61.6266 9.44903H61.6227Z" fill="white"/>
<path d="M47.5542 11.8685C46.1271 14.0936 45.5797 16.7776 46.0204 19.3899C46.4611 22.0023 47.8577 24.3528 49.9341 25.9768C52.0105 27.6008 54.6155 28.3801 57.2342 28.1605C59.8529 27.9409 62.2946 26.7385 64.0765 24.791L67.2859 25.4587C67.4062 25.4832 67.5309 25.4707 67.6441 25.4228C67.7572 25.3749 67.8534 25.2938 67.9202 25.19C67.987 25.0862 68.0212 24.9646 68.0186 24.8409C68.0159 24.7172 67.9764 24.5971 67.9052 24.4964L65.9967 21.8294C67.0566 19.3908 67.166 16.639 66.3029 14.1227C65.4399 11.6064 63.6679 9.51071 61.3405 8.25364C59.013 6.99656 56.3012 6.67052 53.7459 7.34055C51.1906 8.01057 48.9797 9.62741 47.5542 11.8685ZM61.6227 9.44903C63.6764 10.8001 65.1439 12.888 65.7279 15.2896L65.9266 16.3855C66.241 18.815 65.6365 21.2747 64.2333 23.2748C62.8301 25.275 60.7313 26.6687 58.3549 27.1784C55.9785 27.6881 53.4989 27.2764 51.41 26.0253C49.321 24.7741 47.7761 22.7754 47.0829 20.4272L46.8259 19.3392C46.4892 17.4645 46.7048 15.5314 47.4462 13.779C48.1875 12.0265 49.4219 10.5317 50.9968 9.47933C52.5717 8.42696 54.4179 7.86321 56.3072 7.85783C58.1964 7.85244 60.0458 8.40565 61.6266 9.44903H61.6227Z" fill="#3B3F60"/>
<path opacity="0.7" d="M61.6227 9.44903C63.6764 10.8001 65.1439 12.888 65.7279 15.2896L65.9266 16.3855C66.241 18.815 65.6365 21.2747 64.2333 23.2748C62.8301 25.275 60.7313 26.6687 58.3549 27.1784C55.9785 27.6881 53.4989 27.2764 51.41 26.0253C49.3211 24.7741 47.7761 22.7754 47.0829 20.4272L46.8259 19.3392C46.4892 17.4645 46.7049 15.5314 47.4462 13.779C48.1875 12.0265 49.4219 10.5317 50.9968 9.47933C52.5717 8.42696 54.4179 7.86321 56.3072 7.85783C58.1964 7.85244 60.0458 8.40565 61.6266 9.44903H61.6227Z" fill="white"/>
<path d="M52.0958 15.2464C51.9159 15.2407 51.7368 15.2728 51.5699 15.3407C51.4359 15.395 51.317 15.4812 51.2233 15.5921C51.1313 15.6968 51.0623 15.82 51.0208 15.9534C50.9763 16.094 50.9463 16.2388 50.9312 16.3855C50.9131 16.5024 50.9053 16.6207 50.9078 16.739C50.9078 16.8883 50.9078 17.0414 50.9078 17.2025C50.9078 17.3635 50.9078 17.5206 50.9078 17.6738C50.9078 17.827 50.9078 17.9448 50.9273 18.0312C50.9377 18.1783 50.9665 18.3235 51.013 18.4633C51.0592 18.5955 51.1292 18.718 51.2194 18.8246C51.3137 18.9356 51.4343 19.0207 51.5699 19.0721C51.7364 19.1421 51.9154 19.1769 52.0958 19.1742C52.2496 19.1755 52.4029 19.1557 52.5515 19.1153C52.6924 19.0812 52.825 19.0184 52.941 18.9307C53.0499 18.8417 53.1355 18.727 53.1902 18.5968C53.257 18.4394 53.2889 18.2692 53.2837 18.098H52.5047C52.4717 18.0977 52.4392 18.0905 52.409 18.077C52.3789 18.0635 52.3518 18.0439 52.3295 18.0195C52.305 17.9948 52.2858 17.9653 52.2731 17.9329C52.2604 17.9005 52.2544 17.8658 52.2555 17.8309V16.7822C52.2547 16.748 52.2608 16.7139 52.2736 16.6822C52.2863 16.6504 52.3053 16.6217 52.3295 16.5976C52.3513 16.5725 52.3783 16.5526 52.4086 16.539C52.4388 16.5254 52.4716 16.5186 52.5047 16.519H54.7482C54.7814 16.5178 54.8145 16.5242 54.8449 16.5378C54.8752 16.5515 54.9021 16.5719 54.9235 16.5976C54.9476 16.6217 54.9667 16.6504 54.9794 16.6822C54.9921 16.7139 54.9983 16.748 54.9975 16.7822V18.0352C55.0038 18.4226 54.9281 18.8069 54.7755 19.1624C54.6351 19.4866 54.4264 19.7761 54.164 20.0108C53.9006 20.2452 53.5952 20.4265 53.2642 20.545C52.8891 20.679 52.4938 20.7468 52.0958 20.7453C51.6903 20.7517 51.2873 20.6811 50.9078 20.5372C50.5748 20.407 50.2705 20.2122 50.012 19.9637C49.7675 19.7225 49.5741 19.4339 49.4433 19.1153C49.3075 18.7899 49.2297 18.4428 49.2135 18.0902C49.2135 17.8231 49.2135 17.5363 49.2135 17.23C49.2135 16.9236 49.2135 16.629 49.2135 16.3462C49.2238 15.9948 49.2991 15.6485 49.4355 15.325C49.5699 14.9989 49.7702 14.7046 50.0237 14.4609C50.2825 14.2091 50.5902 14.0138 50.9273 13.8874C51.6916 13.6113 52.5272 13.6113 53.2915 13.8874C53.6115 14.006 53.9092 14.1787 54.1717 14.398C54.3999 14.587 54.5926 14.8158 54.7404 15.0736C54.8634 15.2893 54.9391 15.529 54.9624 15.7767C54.9647 15.8044 54.9607 15.8323 54.9505 15.8582C54.9404 15.8841 54.9245 15.9073 54.904 15.9259C54.885 15.9462 54.8621 15.9623 54.8366 15.9731C54.8111 15.9839 54.7836 15.9893 54.756 15.9888H53.5252C53.4848 15.9916 53.4442 15.9854 53.4065 15.9704C53.3687 15.9555 53.3348 15.9322 53.3071 15.9024C53.2525 15.8421 53.2019 15.7832 53.1552 15.7256C53.0559 15.5989 52.936 15.49 52.8007 15.4035C52.5862 15.2824 52.341 15.2278 52.0958 15.2464Z" fill="#6D27D7"/>
<path d="M60.7697 17.7131C60.7697 17.8113 60.7697 17.937 60.7697 18.1059C60.7697 18.2748 60.7697 18.3848 60.7697 18.4987C60.7608 18.8039 60.6919 19.1042 60.5672 19.3824C60.4424 19.6599 60.2637 19.9093 60.0416 20.1157C59.8194 20.3222 59.5584 20.4815 59.274 20.5843C58.6111 20.82 57.8882 20.82 57.2253 20.5843C56.9409 20.4815 56.6799 20.3222 56.4578 20.1157C56.2357 19.9093 56.0569 19.6599 55.9322 19.3824C55.808 19.1039 55.7379 18.8039 55.7258 18.4987C55.7258 18.4005 55.7258 18.2748 55.7258 18.1059C55.7258 17.937 55.7258 17.827 55.7258 17.7131C55.7321 17.4084 55.7983 17.1081 55.9205 16.8294C56.0438 16.5573 56.22 16.3129 56.4385 16.1106C56.6654 15.8992 56.9297 15.7326 57.2175 15.6196C57.8795 15.3788 58.6042 15.3788 59.2663 15.6196C59.5537 15.7335 59.8178 15.9 60.0452 16.1106C60.2658 16.3082 60.4447 16.5487 60.5711 16.8176C60.6942 17.1003 60.7616 17.4044 60.7697 17.7131ZM57.3967 18.4201C57.4029 18.6397 57.4937 18.8482 57.6499 19.0014C57.7682 19.1187 57.9177 19.1987 58.0803 19.2319C58.2428 19.2651 58.4115 19.2501 58.5657 19.1885C58.7199 19.127 58.8531 19.0216 58.9491 18.8852C59.0451 18.7488 59.0998 18.5872 59.1066 18.4201C59.1129 18.3089 59.1129 18.1974 59.1066 18.0863C59.113 17.9751 59.113 17.8636 59.1066 17.7524C59.0991 17.5311 59.007 17.3214 58.8495 17.1672C58.6788 17.0324 58.4684 16.9592 58.2516 16.9592C58.0349 16.9592 57.8244 17.0324 57.6537 17.1672C57.4974 17.3218 57.4066 17.5316 57.4006 17.7524C57.3875 17.8632 57.381 17.9747 57.3811 18.0863C57.3798 18.1978 57.385 18.3092 57.3967 18.4201Z" fill="#6D27D7"/>
<path d="M63.3365 18.263C63.3373 18.2972 63.3311 18.3312 63.3184 18.363C63.3057 18.3947 63.2866 18.4235 63.2625 18.4476C63.2403 18.4722 63.2132 18.4919 63.1831 18.5055C63.1529 18.519 63.1202 18.526 63.0872 18.5261H61.9187C61.8857 18.5258 61.8532 18.5187 61.823 18.5051C61.7929 18.4916 61.7658 18.472 61.7435 18.4476C61.7193 18.4235 61.7003 18.3947 61.6876 18.363C61.6748 18.3312 61.6687 18.2972 61.6695 18.263V14.0406C61.6684 14.0057 61.6744 13.971 61.6871 13.9386C61.6998 13.9062 61.719 13.8767 61.7435 13.8521C61.7658 13.8276 61.7929 13.808 61.823 13.7945C61.8532 13.781 61.8857 13.7738 61.9187 13.7735H63.0872C63.1202 13.7736 63.1529 13.7806 63.1831 13.7941C63.2132 13.8077 63.2403 13.8274 63.2625 13.8521C63.2869 13.8767 63.3061 13.9062 63.3188 13.9386C63.3316 13.971 63.3376 14.0057 63.3365 14.0406V18.263ZM63.3365 20.3683C63.3373 20.4025 63.3311 20.4365 63.3184 20.4683C63.3057 20.5 63.2866 20.5288 63.2625 20.5529C63.241 20.5783 63.214 20.5986 63.1837 20.6122C63.1534 20.6258 63.1204 20.6324 63.0872 20.6314H61.9187C61.8856 20.6318 61.8528 20.625 61.8226 20.6115C61.7923 20.5979 61.7653 20.5779 61.7435 20.5529C61.7193 20.5288 61.7003 20.5 61.6876 20.4683C61.6748 20.4365 61.6687 20.4025 61.6695 20.3683V19.3784C61.6687 19.3442 61.6748 19.3102 61.6876 19.2784C61.7003 19.2467 61.7193 19.2179 61.7435 19.1938C61.7653 19.1688 61.7923 19.1488 61.8226 19.1352C61.8528 19.1217 61.8856 19.1149 61.9187 19.1153H63.0872C63.1204 19.1143 63.1534 19.1209 63.1837 19.1345C63.214 19.1481 63.241 19.1684 63.2625 19.1938C63.2866 19.2179 63.3057 19.2467 63.3184 19.2784C63.3311 19.3102 63.3373 19.3442 63.3365 19.3784V20.3683Z" fill="#6D27D7"/>
</svg>
