<svg width="24" height="24" viewBox="0 0 24 24" fill="none" xmlns="http://www.w3.org/2000/svg">
<path d="M4.4855 8.14251C4.01192 8.42666 3.85836 9.04092 4.14251 9.5145C4.42666 9.98808 5.04092 10.1416 5.5145 9.85749L4.4855 8.14251ZM10 6L10.6 5.2C10.2747 4.95605 9.83415 4.93332 9.4855 5.14251L10 6ZM14 9L13.4 9.8C13.7648 10.0736 14.2686 10.0658 14.6247 9.78087L14 9ZM19.6247 5.78087C20.056 5.43586 20.1259 4.80657 19.7809 4.3753C19.4359 3.94404 18.8066 3.87412 18.3753 4.21913L19.6247 5.78087ZM17 19C17 19.5523 17.4477 20 18 20C18.5523 20 19 19.5523 19 19H17ZM19 11C19 10.4477 18.5523 10 18 10C17.4477 10 17 10.4477 17 11H19ZM9 19C9 19.5523 9.44772 20 10 20C10.5523 20 11 19.5523 11 19H9ZM11 11C11 10.4477 10.5523 10 10 10C9.44772 10 9 10.4477 9 11H11ZM13 19C13 19.5523 13.4477 20 14 20C14.5523 20 15 19.5523 15 19H13ZM15 14C15 13.4477 14.5523 13 14 13C13.4477 13 13 13.4477 13 14H15ZM5 19C5 19.5523 5.44772 20 6 20C6.55228 20 7 19.5523 7 19H5ZM7 14C7 13.4477 6.55228 13 6 13C5.44772 13 5 13.4477 5 14H7ZM5.5145 9.85749L10.5145 6.85749L9.4855 5.14251L4.4855 8.14251L5.5145 9.85749ZM9.4 6.8L13.4 9.8L14.6 8.2L10.6 5.2L9.4 6.8ZM14.6247 9.78087L19.6247 5.78087L18.3753 4.21913L13.3753 8.21913L14.6247 9.78087ZM19 19V11H17V19H19ZM11 19V11H9V19H11ZM15 19V14H13V19H15ZM7 19V14H5V19H7Z" fill="black"/>
</svg>
