<svg width="24" height="24" viewBox="0 0 24 24" fill="none" xmlns="http://www.w3.org/2000/svg">
<path fill-rule="evenodd" clip-rule="evenodd" d="M16.7649 4.16231L18.7099 5.74531C18.8977 5.9283 19.0029 6.17982 19.0014 6.44201C18.9999 6.70421 18.8918 6.9545 18.7019 7.13531L17.2239 8.93531L12.1939 15.0723C12.1068 15.1749 11.9896 15.2473 11.8589 15.2793L9.25089 15.8793C8.90484 15.8936 8.60642 15.6384 8.56689 15.2943L8.68889 12.7213C8.69794 12.5899 8.74994 12.4652 8.83689 12.3663L13.6499 6.50131L15.3449 4.43331C15.6742 3.98505 16.2936 3.86684 16.7649 4.16231Z" stroke="black" stroke-width="2" stroke-linecap="round" stroke-linejoin="round"/>
<path d="M5 17.9915C4.44772 17.9915 4 18.4392 4 18.9915C4 19.5437 4.44772 19.9915 5 19.9915V17.9915ZM18.7 19.9915C19.2523 19.9915 19.7 19.5437 19.7 18.9915C19.7 18.4392 19.2523 17.9915 18.7 17.9915V19.9915ZM14.5773 6.12717C14.3706 5.61503 13.7878 5.36744 13.2757 5.57415C12.7636 5.78087 12.516 6.36362 12.7227 6.87576L14.5773 6.12717ZM17.4444 9.91388C17.9831 9.79219 18.3211 9.25682 18.1994 8.71811C18.0777 8.1794 17.5424 7.84135 17.0036 7.96305L17.4444 9.91388ZM5 19.9915H18.7V17.9915H5V19.9915ZM12.7227 6.87576C12.9662 7.47908 13.4638 8.33584 14.2104 8.99974C14.9745 9.67924 16.0858 10.2208 17.4444 9.91388L17.0036 7.96305C16.4632 8.08514 15.9875 7.90369 15.5394 7.50519C15.0737 7.09109 14.7338 6.51485 14.5773 6.12717L12.7227 6.87576Z" fill="black"/>
</svg>
