<svg width="24" height="24" viewBox="0 0 24 24" fill="none" xmlns="http://www.w3.org/2000/svg">
<path d="M21.7504 12.2456C21.7504 11.5134 21.6844 10.8128 21.562 10.1392H12.0854V13.9988L17.5432 14C17.3218 15.2842 16.6094 16.3789 15.5178 17.1087V19.6128H18.7666C20.6635 17.869 21.7504 15.2912 21.7504 12.2456Z" fill="#4285F4"/>
<path d="M15.519 17.1088C14.6147 17.7146 13.4501 18.069 12.0877 18.069C9.45601 18.069 7.22345 16.3076 6.42392 13.9333H3.07274V16.5158C4.73302 19.7883 8.14544 22.0339 12.0877 22.0339C14.8125 22.0339 17.1016 21.1439 18.7677 19.6117L15.519 17.1088Z" fill="#34A853"/>
<path d="M6.10834 12.0175C6.10834 11.3509 6.2202 10.7064 6.42391 10.1006V7.51813H3.07272C2.38624 8.87134 2.00002 10.3988 2.00002 12.0175C2.00002 13.6362 2.38741 15.1637 3.07272 16.5169L6.42391 13.9345C6.2202 13.3286 6.10834 12.6842 6.10834 12.0175Z" fill="#FABB05"/>
<path d="M12.0877 5.96491C13.5749 5.96491 14.9067 6.47368 15.9582 7.46783L18.8372 4.61052C17.0886 2.99298 14.809 2 12.0877 2C8.14662 2 4.73302 4.24561 3.07274 7.51812L6.42392 10.1006C7.22345 7.72631 9.45601 5.96491 12.0877 5.96491Z" fill="#E94235"/>
</svg>
