<svg width="28" height="28" viewBox="0 0 28 28" fill="none" xmlns="http://www.w3.org/2000/svg">
<path d="M21.7615 18.6374L21.7685 11.8789L16.9584 7.08393C15.5067 5.63869 13.16 5.63869 11.7084 7.08393L6.90869 11.8673V18.6339C6.91255 20.6805 8.57443 22.3367 10.621 22.3334H18.0492C20.0944 22.3367 21.7557 20.6827 21.7615 18.6374Z" fill="#115BCB" stroke="#115BCB" stroke-width="2" stroke-linecap="round" stroke-linejoin="round"/>
<path d="M22.7697 7.18777C22.7697 6.63549 22.322 6.18777 21.7697 6.18777C21.2174 6.18777 20.7697 6.63549 20.7697 7.18777H22.7697ZM21.7697 11.8789H20.7697C20.7697 12.1447 20.8754 12.3995 21.0637 12.5871L21.7697 11.8789ZM22.9606 14.4783C23.3518 14.8682 23.9849 14.8673 24.3749 14.4761C24.7648 14.085 24.7638 13.4518 24.3727 13.0619L22.9606 14.4783ZM7.61469 12.5755C8.00581 12.1855 8.00678 11.5524 7.61685 11.1613C7.22693 10.7701 6.59376 10.7692 6.20264 11.1591L7.61469 12.5755ZM4.29398 13.0619C3.90285 13.4518 3.90189 14.085 4.29181 14.4761C4.68174 14.8673 5.3149 14.8682 5.70602 14.4783L4.29398 13.0619ZM15.6667 22.3334C15.6667 22.8857 16.1144 23.3334 16.6667 23.3334C17.219 23.3334 17.6667 22.8857 17.6667 22.3334H15.6667ZM11 22.3334C11 22.8857 11.4477 23.3334 12 23.3334C12.5523 23.3334 13 22.8857 13 22.3334H11ZM20.7697 7.18777V11.8789H22.7697V7.18777H20.7697ZM21.0637 12.5871L22.9606 14.4783L24.3727 13.0619L22.4757 11.1707L21.0637 12.5871ZM6.20264 11.1591L4.29398 13.0619L5.70602 14.4783L7.61469 12.5755L6.20264 11.1591ZM17.6667 22.3334V20.2568H15.6667V22.3334H17.6667ZM17.6667 20.2568C17.6667 18.4158 16.1743 16.9234 14.3333 16.9234V18.9234C15.0697 18.9234 15.6667 19.5204 15.6667 20.2568H17.6667ZM14.3333 16.9234C12.4924 16.9234 11 18.4158 11 20.2568H13C13 19.5204 13.597 18.9234 14.3333 18.9234V16.9234ZM11 20.2568V22.3334H13V20.2568H11Z" fill="#115BCB"/>
</svg>
