<svg width="170" height="170" viewBox="0 0 170 170" fill="none" xmlns="http://www.w3.org/2000/svg">
<path d="M67.159 157.711C64.0689 157.143 60.9574 156.568 57.8176 156.646C54.6777 156.724 51.4739 157.466 48.9379 159.323L46.9524 159.06C53.4496 161.373 60.4089 162.087 67.2407 161.14C68.2494 161.002 69.4961 160.572 69.56 159.557C69.6204 158.453 68.2459 157.914 67.159 157.711Z" fill="#D1D2D7"/>
<path d="M65.273 96.2185C64.7722 98.0537 71.2579 111.025 74.1526 112.768L74.8488 147.569L73.7406 154.605H79.7788L78.358 124.279L86.1366 99.5269L84.1014 98.5827L77.2889 120.779L74.6996 99.0335L73.0658 98.5827L74.3622 108.668C74.3622 108.668 68.5194 103.272 67.3828 96.2434L65.273 96.2185Z" fill="#A9A9A9"/>
<path d="M106.879 70.9761C105.416 69.0557 102.702 68.0156 100.465 68.9137C101.552 67.1779 102.667 65.3639 102.905 63.3335C103.143 61.303 102.227 58.9779 100.309 58.2644C99.2039 57.8526 97.9146 58.0088 96.8952 57.4231C95.2223 56.4576 95.1193 54.1112 95.3253 52.1872C95.5348 50.0573 95.8367 47.9026 95.581 45.7763C95.3253 43.65 94.4408 41.4917 92.7146 40.2174C90.754 38.7691 88.0972 38.7052 85.6819 38.9856C75.5272 40.157 66.3101 46.4614 60.6271 54.9596C54.9441 63.4577 51.9676 73.6136 52.4329 83.8192C52.6425 88.3593 54.1201 93.3539 56.6632 97.1237C59.043 100.652 62.2538 103.819 66.2213 105.363C68.7076 106.332 69.8655 106.765 71.4141 107.138C73.4233 107.599 75.4795 107.826 77.5411 107.812H79.2424C85.7246 107.525 89.9513 104.639 94.796 100.329C99.6408 96.0197 102.745 90.3472 105.746 84.6001C106.865 82.4703 107.913 80.2446 108.3 77.8556C108.687 75.4666 108.339 72.893 106.879 70.9761Z" fill="#D1D2D7"/>
<path d="M34.5351 27.6086C34.7517 26.0432 32.5389 24.7688 30.8767 24.6197C30.0846 24.5558 29.2606 24.6765 28.5111 24.4174C26.8844 23.8494 26.2344 21.7479 24.6467 21.0806C23.4604 20.5801 22.0929 21.0238 20.9421 21.6024C19.7913 22.181 18.6547 22.9087 17.3689 22.9939C16.2536 23.0649 15.0389 22.6389 14.0586 23.1962C13.3304 23.6009 12.9504 24.4422 12.2826 24.9356C11.6149 25.429 10.766 25.5249 9.94551 25.5675C9.12503 25.6101 8.28679 25.6207 7.54445 25.9615C6.80211 26.3023 6.18764 27.0868 6.34037 27.8855L34.5351 27.6086Z" fill="#F5F5F5"/>
<path d="M161.742 31.1371C161.958 29.5716 159.746 28.2972 158.087 28.1482C157.291 28.0843 156.471 28.2085 155.718 27.9458C154.091 27.3779 153.441 25.2799 151.853 24.609C150.667 24.1085 149.299 24.5558 148.152 25.1344C147.005 25.713 145.865 26.4407 144.579 26.5224C143.46 26.5934 142.245 26.1674 141.269 26.7247C140.537 27.1329 140.157 27.9707 139.493 28.4676C138.829 28.9646 137.976 29.0533 137.163 29.0995C136.349 29.1456 135.5 29.1492 134.758 29.49C134.016 29.8307 133.401 30.6152 133.558 31.4175L161.742 31.1371Z" fill="#F5F5F5"/>
<path d="M111.639 13.1114C111.77 12.1565 110.424 11.372 109.412 11.2903C108.928 11.3102 108.443 11.2684 107.97 11.1661C106.975 10.8111 106.581 9.54028 105.611 9.13206C104.901 8.82678 104.056 9.10011 103.356 9.45154C102.656 9.80296 101.96 10.2467 101.179 10.2999C100.497 10.3425 99.758 10.0905 99.1613 10.4206C98.7173 10.6691 98.4829 11.1803 98.0744 11.4856C97.6484 11.7496 97.1548 11.8841 96.6537 11.8725C96.1553 11.8592 95.6588 11.9399 95.1903 12.1103C94.9579 12.2012 94.7612 12.3647 94.6293 12.5764C94.4975 12.7882 94.4376 13.0368 94.4586 13.2853L111.639 13.1114Z" fill="#F5F5F5"/>
<path d="M97.8826 20.9457C98.1597 18.9401 95.3253 17.293 93.2013 17.1191C92.1854 17.0374 91.1305 17.1936 90.1715 16.8599C88.0866 16.1322 87.2555 13.4451 85.2238 12.6002C83.7071 11.9577 81.9561 12.5292 80.4856 13.2676C79.0151 14.0059 77.5553 14.9431 75.9108 15.0425C74.4901 15.1347 72.9272 14.6058 71.6734 15.3051C70.7428 15.8234 70.2527 16.899 69.3931 17.5308C68.5336 18.1627 67.4538 18.2834 66.4096 18.3402C65.3653 18.397 64.2784 18.4076 63.3336 18.8443C62.3888 19.2809 61.5968 20.2819 61.7957 21.3078L97.8826 20.9457Z" fill="#D1D2D7"/>
<path d="M168 154.172C168 154.225 130.837 154.265 85.0036 154.265C39.1703 154.265 2 154.225 2 154.172C2 154.119 39.1561 154.08 85.0036 154.08C130.851 154.08 168 154.122 168 154.172Z" fill="#263238"/>
<path d="M9.05405 141.368C9.17598 141.504 9.28424 141.651 9.37727 141.808C9.57972 142.099 9.85322 142.518 10.1764 143.068C11.0153 144.481 11.7421 145.958 12.3502 147.484C12.9472 149.013 13.4223 150.587 13.7709 152.191C13.9059 152.805 14.0018 153.309 14.0551 153.657C14.0936 153.836 14.115 154.018 14.119 154.2C14.0599 154.027 14.0148 153.849 13.984 153.668C13.9094 153.313 13.7958 152.83 13.6288 152.22C13.2511 150.64 12.7693 149.086 12.1868 147.569C11.5749 146.046 10.863 144.565 10.0557 143.136C9.74666 142.589 9.49093 142.149 9.30978 141.847C9.21148 141.695 9.12595 141.535 9.05405 141.368Z" fill="#263238"/>
<path d="M8.95454 149.674C8.95454 149.674 9.04333 149.675 9.19251 149.721C9.28536 149.742 9.3758 149.773 9.46245 149.813C9.58434 149.857 9.70302 149.909 9.81764 149.969C10.1105 150.117 10.3867 150.295 10.6417 150.502C10.9512 150.757 11.2344 151.042 11.487 151.354C11.9461 151.923 12.2877 152.579 12.4922 153.281C12.5902 153.567 12.6335 153.87 12.6201 154.172C12.5881 154.172 12.5419 153.838 12.3679 153.32C12.1301 152.651 11.7807 152.027 11.3343 151.474C11.0877 151.172 10.8156 150.892 10.5209 150.636C10.2783 150.431 10.018 150.246 9.74305 150.086C9.27065 149.809 8.94388 149.699 8.95454 149.674Z" fill="#263238"/>
<path d="M15.5187 146.657C15.4923 147.022 15.4472 147.386 15.3836 147.747C15.2641 148.629 15.2048 149.519 15.206 150.409C15.209 151.292 15.2672 152.174 15.3801 153.05C15.4468 153.413 15.4931 153.779 15.5187 154.147C15.4735 154.058 15.4412 153.962 15.4227 153.863C15.373 153.679 15.3126 153.409 15.2522 153.072C15.1027 152.192 15.0278 151.301 15.0283 150.409C15.0198 149.517 15.0936 148.626 15.2486 147.747C15.309 147.41 15.373 147.14 15.4263 146.955C15.4414 146.852 15.4725 146.751 15.5187 146.657Z" fill="#263238"/>
<path d="M116.47 154.229C116.345 153.97 116.241 153.701 116.157 153.427C115.679 152.134 115.052 150.901 114.289 149.753C114.114 149.529 113.958 149.292 113.823 149.043C114.042 149.234 114.234 149.454 114.395 149.696C114.811 150.256 115.179 150.85 115.496 151.471C115.812 152.092 116.074 152.74 116.281 153.405C116.381 153.67 116.445 153.947 116.47 154.229Z" fill="#263238"/>
<path d="M117.695 154.172C117.645 154.172 117.141 152.443 116.562 150.267C115.983 148.091 115.56 146.334 115.61 146.324C115.66 146.313 116.164 148.052 116.743 150.228C117.322 152.404 117.745 154.161 117.695 154.172Z" fill="#263238"/>
<path d="M119.229 154.236C119.204 152.274 119.305 150.313 119.531 148.365C119.552 150.326 119.451 152.287 119.229 154.236Z" fill="#263238"/>
<path d="M153.349 149.572C153.54 149.737 153.704 149.931 153.835 150.147C154.187 150.642 154.494 151.169 154.752 151.719C155.013 152.269 155.223 152.842 155.38 153.43C155.46 153.67 155.505 153.92 155.512 154.172C155.455 154.172 155.188 153.072 154.585 151.801C153.981 150.53 153.302 149.603 153.349 149.572Z" fill="#263238"/>
<path d="M156.851 143.31C156.883 143.31 156.677 143.91 156.464 144.886C155.905 147.439 155.977 150.091 156.674 152.61C156.94 153.572 157.178 154.147 157.146 154.161C157.069 154.037 157.005 153.905 156.954 153.767C156.8 153.401 156.664 153.026 156.549 152.646C156.375 152.081 156.236 151.506 156.133 150.924C155.879 149.495 155.839 148.037 156.016 146.597C156.088 146.011 156.195 145.43 156.336 144.857C156.434 144.47 156.552 144.089 156.691 143.714C156.732 143.575 156.785 143.439 156.851 143.31Z" fill="#263238"/>
<path d="M82.2438 145.557C82.3446 145.976 82.4182 146.402 82.4641 146.831C82.5849 147.619 82.7626 148.705 82.9972 149.898C83.2317 151.091 83.4841 152.163 83.6724 152.937C83.7936 153.351 83.8874 153.774 83.9532 154.2C83.8974 154.098 83.8545 153.99 83.8252 153.877C83.7506 153.664 83.6582 153.356 83.5445 152.972C83.3241 152.202 83.054 151.13 82.8159 149.934C82.5778 148.737 82.4215 147.644 82.3326 146.849C82.29 146.451 82.2615 146.139 82.2473 145.905C82.2294 145.789 82.2282 145.672 82.2438 145.557Z" fill="#263238"/>
<path d="M78.1662 149.071C78.4614 149.235 78.7367 149.433 78.9867 149.66C79.6146 150.177 80.2001 150.743 80.7378 151.354C81.2748 151.965 81.7607 152.619 82.1905 153.309C82.3855 153.586 82.5453 153.885 82.6664 154.2C82.454 153.941 82.2594 153.667 82.0839 153.38C81.6222 152.719 81.1254 152.083 80.5957 151.474C80.063 150.87 79.4973 150.295 78.9014 149.753C78.6401 149.544 78.3943 149.316 78.1662 149.071Z" fill="#263238"/>
<path d="M87.022 147.978C86.9432 148.281 86.841 148.578 86.7163 148.865C86.5173 149.408 86.2579 150.164 86.0056 151.013C85.7533 151.861 85.604 152.642 85.4938 153.21C85.4507 153.521 85.3854 153.828 85.2984 154.129C85.2817 153.814 85.3044 153.498 85.3659 153.189C85.4691 152.437 85.6234 151.694 85.8279 150.963C86.0315 150.231 86.2832 149.514 86.5813 148.815C86.6936 148.519 86.8416 148.238 87.022 147.978Z" fill="#263238"/>
<path d="M60.281 149.786C62.1623 143.042 58.2168 136.053 51.4685 134.175C44.7203 132.296 37.7248 136.241 35.8436 142.984C33.9623 149.728 37.9078 156.718 44.6561 158.596C51.4043 160.474 58.3998 156.53 60.281 149.786Z" fill="#CCDDE4"/>
<g opacity="0.5">
<path d="M40.3139 153.821C39.1099 153.821 38.1189 153.909 38.1366 153.984C38.1544 154.059 39.1134 154.105 40.3139 154.091C41.5145 154.077 42.5019 154.002 42.4983 153.927C42.4948 153.853 41.518 153.803 40.3139 153.821Z" fill="black"/>
<path d="M58.3858 148.531C58.0307 148.066 57.37 147.243 56.5708 146.309C55.8794 145.454 55.1331 144.644 54.3367 143.885L54.9618 139.927C55.4862 139.816 56.0043 139.677 56.514 139.512C57.4872 139.206 58.258 138.901 58.2367 138.83C58.2153 138.759 57.4055 138.947 56.4323 139.252C55.8214 139.444 55.2922 139.636 54.9867 139.767V139.732L50.6144 137.506L50.5824 137.538C50.3449 137.154 50.0827 136.787 49.7974 136.437C49.361 135.892 48.8614 135.4 48.3092 134.971L49.5381 133.811C49.5381 133.811 48.6964 133.566 46.5475 133.811C44.3986 134.056 44.5052 134.936 44.5052 134.936L48.1778 135.014C48.4229 135.294 48.9912 135.873 49.5985 136.608C49.9253 137.005 50.2094 137.385 50.4368 137.698L47.1939 140.939C46.7499 140.939 45.9152 141.01 44.9527 141.13C43.5319 141.308 42.3953 141.517 42.406 141.592C42.4167 141.666 43.571 141.592 44.9846 141.4C45.9508 141.276 46.7606 141.155 47.2081 141.066L49.3179 145.202C49.2291 145.326 49.1332 145.472 49.0231 145.646C48.6679 146.206 48.2062 147.002 47.748 147.91C47.3182 148.762 46.9701 149.554 46.7322 150.161L43.365 149.806C43.2016 149.422 43.0098 148.986 42.8003 148.521C42.3421 147.498 41.9194 146.636 41.6743 146.199L42.406 141.585L39.323 139.135C39.6426 138.958 40.7153 138.159 41.9727 137.162C43.4431 135.987 44.5975 134.989 44.5513 134.932C44.5051 134.876 43.2727 135.777 41.8022 136.949C40.5342 137.96 39.5041 138.837 39.2733 139.078L39.1241 138.961L36.0482 142.071L37.6039 146.59C37.4511 146.906 37.1599 147.708 36.8118 148.652C36.3607 149.884 35.9878 150.881 36.0588 150.91C36.1298 150.938 36.6129 149.983 37.0675 148.744C37.3348 148.053 37.545 147.34 37.6962 146.615L41.6033 146.324C41.7844 146.813 42.1361 147.658 42.5694 148.613C42.7789 149.078 42.9778 149.504 43.159 149.88L42.5197 153.906L46.2846 156.898C46.5276 157.306 46.8032 157.693 47.1087 158.056C47.6379 158.716 48.1174 159.213 48.1742 159.163C48.2311 159.113 47.851 158.545 47.3218 157.885C47.0333 157.504 46.7137 157.148 46.3663 156.82L49.2611 154.594L47.3395 150.189L46.9488 150.15C47.2259 149.568 47.5811 148.819 47.9966 147.999C48.5685 146.867 49.1048 145.887 49.4174 145.305L54.2479 144.542L54.3474 143.906C54.9814 144.791 55.662 145.642 56.3861 146.455C57.1498 147.342 57.8353 148.106 58.2473 148.535H58.1834L55.381 153.05L55.4094 153.096C54.8269 153.192 53.7684 153.416 52.5679 153.703C51.6515 153.92 50.8275 154.126 50.2343 154.286C49.9099 154.355 49.5925 154.454 49.286 154.58C49.286 154.683 50.8026 154.399 52.6283 153.97C53.8856 153.672 54.9547 153.388 55.5053 153.214L56.9722 155.397C58.0699 154.503 58.9621 153.384 59.5879 152.114C60.2137 150.845 60.5584 149.456 60.5987 148.042V147.995L58.3858 148.531Z" fill="black"/>
</g>
<path d="M107.934 102.665C107.934 102.665 97.3995 116.388 96.4974 117.954C95.5952 119.519 96.4974 129.274 96.4974 129.274L106.276 128.5L106.368 121.45L120.274 107.102L121.105 103.79L107.934 102.665Z" fill="#D5B298"/>
<path d="M96.096 128.074L98.4935 148.791L102.965 151.304L105.647 149.44L106.578 128.074H96.096Z" fill="#CCDDE4"/>
<path d="M98.437 131.627C98.163 131.113 98.0134 130.542 97.9998 129.959C97.9252 129.382 97.9848 128.795 98.174 128.245C98.2308 128.245 98.1065 129.011 98.174 129.945C98.2415 130.878 98.4974 131.595 98.437 131.627Z" fill="white"/>
<path d="M101.488 131.326C101.384 130.832 101.34 130.328 101.356 129.824C101.311 129.321 101.328 128.815 101.406 128.316C101.559 129.312 101.586 130.323 101.488 131.326Z" fill="white"/>
<path d="M104.116 131.4C104.063 131.4 104.116 130.69 104.006 129.81C103.896 128.93 103.701 128.255 103.754 128.241C104.211 129.228 104.335 130.336 104.109 131.4H104.116Z" fill="white"/>
<path d="M138.683 76.8191L139.542 78.0012L144.16 89.3072L148.873 89.1332C148.873 89.1332 147.374 80.557 146.742 78.8957C146.11 77.2344 144.924 73.8195 144.117 73.1486C143.311 72.4777 141.514 71.8778 141.514 71.8778L138.683 76.8191Z" fill="#D5B298"/>
<path d="M143.783 88.3594C143.779 88.8561 143.73 89.3515 143.638 89.8396C143.524 90.0668 142.061 91.0785 141.89 91.7245C141.72 92.3706 141.354 94.0638 141.045 94.2875C140.736 94.5111 141.524 94.9371 142.032 94.7383C142.646 94.4403 143.119 93.916 143.354 93.2758C143.609 92.5978 144.227 93.1338 144.227 93.1338L144.483 96.2292L143.773 98.0609C143.773 98.0609 142.64 99.0442 142.583 99.6086C142.656 99.8315 142.793 100.028 142.977 100.173C143.233 100.311 144.611 99.7506 144.611 99.7506C144.611 99.7506 144.583 100.961 145.204 100.904C145.662 100.818 146.089 100.614 146.444 100.311C146.444 100.311 147.062 100.762 147.317 100.539C147.573 100.315 149.175 98.4549 149.427 97.8905C149.679 97.3261 150.138 94.6318 150.138 94.6318L148.823 88.8492L145.982 87.1382L143.783 88.3594Z" fill="#D5B298"/>
<path d="M146.511 93.7018C146.63 94.0166 146.706 94.3462 146.735 94.6815C146.853 95.4908 146.813 96.3154 146.618 97.1096C146.414 97.9093 145.994 98.6376 145.403 99.2146C145.223 99.3847 145.024 99.5335 144.81 99.6583C144.661 99.7435 144.568 99.779 144.561 99.7683C144.554 99.7577 144.888 99.5625 145.311 99.1187C145.852 98.538 146.24 97.8316 146.44 97.0634C146.628 96.2891 146.684 95.4887 146.607 94.6957C146.558 94.3662 146.526 94.0345 146.511 93.7018Z" fill="#A7775F"/>
<path d="M148.799 94.4366C148.799 94.4366 148.827 94.5253 148.848 94.6886C148.876 94.9242 148.884 95.1616 148.873 95.3986C148.822 96.9645 148.221 98.4624 147.175 99.6299C147.021 99.8064 146.852 99.9703 146.671 100.12C146.609 100.179 146.538 100.23 146.461 100.269C146.44 100.244 146.707 99.9955 147.076 99.5589C147.554 98.9691 147.941 98.311 148.223 97.6065C148.504 96.9025 148.68 96.1609 148.745 95.4057C148.791 94.8022 148.767 94.4401 148.799 94.4366Z" fill="#A7775F"/>
<path d="M102.869 80.209C102.869 80.209 98.3337 84.0712 95.6555 84.7989V90.0384C95.6555 90.0384 102.969 89.0622 105.771 87.2979C108.574 85.5337 109.366 85.7147 109.732 84.6782C110.097 83.6417 110.037 81.3556 110.037 81.3556L102.869 80.209Z" fill="#D5B298"/>
<path d="M95.6556 84.799C95.6556 84.799 92.8851 86.265 92.4376 86.2189C91.9901 86.1727 90.1751 86.1088 89.9122 87.7382C89.9122 87.7382 88.6513 88.8279 89.2835 90.0278C89.2835 90.0278 88.9497 92.005 89.3936 92.4877L90.3598 93.2687C90.3598 93.2687 90.2852 94.0851 90.8037 94.2342C91.3223 94.3833 94.4799 94.4188 94.3556 93.6379L93.9471 93.0806C93.9471 93.0806 94.2064 92.4877 94.1318 92.2677C94.1318 92.2677 95.1974 92.0795 95.2436 91.5258C95.2897 90.972 94.281 90.5212 94.281 90.5212C94.281 90.5212 95.6414 90.8549 95.6414 90.1875L95.6556 84.799Z" fill="#D5B298"/>
<path d="M95.4709 88.3842C95.4709 88.3842 95.4176 88.4729 95.3643 88.6362C95.3266 88.7489 95.3122 88.868 95.322 88.9864C95.3318 89.1047 95.3655 89.2199 95.4212 89.3249C95.5196 89.465 95.6251 89.6001 95.7373 89.7295C95.8039 89.8185 95.8445 89.9242 95.8545 90.0348C95.863 90.1616 95.8266 90.2873 95.7515 90.3898C95.6736 90.4859 95.575 90.5633 95.4631 90.6162C95.3512 90.669 95.2288 90.696 95.1051 90.6951C94.8535 90.7092 94.6023 90.6617 94.3734 90.5566C94.1532 90.4574 93.9548 90.3158 93.7896 90.1397C93.6245 89.9636 93.4957 89.7567 93.4108 89.5307C93.2825 89.1619 93.2628 88.7639 93.354 88.3842C93.4127 88.1306 93.5175 87.89 93.663 87.6742C93.766 87.5251 93.8406 87.4541 93.8477 87.4612C93.6872 87.7585 93.5677 88.0761 93.4925 88.4055C93.4222 88.7618 93.453 89.1306 93.5813 89.4704C93.7452 89.8778 94.0592 90.2069 94.4586 90.3898C94.6614 90.4812 94.8828 90.5238 95.1051 90.514C95.2029 90.5169 95.3002 90.4981 95.3899 90.4588C95.4796 90.4195 95.5594 90.3608 95.6236 90.2869C95.6787 90.2226 95.7089 90.1407 95.7089 90.0561C95.7089 89.9715 95.6787 89.8897 95.6236 89.8254C95.5115 89.6898 95.4094 89.5463 95.3182 89.3959C95.2611 89.2742 95.2315 89.1415 95.2315 89.0072C95.2315 88.8728 95.2611 88.7401 95.3182 88.6185C95.375 88.441 95.4638 88.3771 95.4709 88.3842Z" fill="#A7775F"/>
<path d="M90.5338 90.5815C90.5338 90.5567 90.9458 90.7839 91.6207 91.0749C92.0164 91.2439 92.4206 91.392 92.8319 91.5187C93.0878 91.5823 93.3348 91.6777 93.5671 91.8026C93.7013 91.8761 93.8147 91.9824 93.8967 92.1115C93.9786 92.2406 94.0266 92.3884 94.0359 92.541C94.0464 92.6944 94.0165 92.8478 93.9492 92.9861C93.8819 93.1244 93.7796 93.2426 93.6523 93.329C93.4139 93.4629 93.1444 93.5315 92.8709 93.5278C92.435 93.549 91.9982 93.5383 91.5639 93.4959C91.2714 93.4677 90.9809 93.4226 90.6936 93.361C90.5857 93.3447 90.4805 93.3136 90.3811 93.2687C90.3811 93.2367 90.8393 93.3255 91.5745 93.3645C92.0027 93.391 92.4321 93.391 92.8603 93.3645C93.1024 93.3643 93.3405 93.3032 93.5529 93.187C93.6524 93.1167 93.7321 93.0219 93.7843 92.9119C93.8366 92.8019 93.8596 92.6802 93.8513 92.5587C93.845 92.4354 93.8066 92.3159 93.7399 92.2119C93.6733 92.108 93.5807 92.0232 93.4712 91.9659C93.2537 91.8458 93.0223 91.7528 92.7821 91.689C92.3673 91.5529 91.9615 91.3905 91.5674 91.2027C91.3033 91.0755 91.046 90.9345 90.7966 90.7803C90.7 90.7269 90.6115 90.6599 90.5338 90.5815Z" fill="#A7775F"/>
<path d="M91.1803 88.1819C91.2087 88.1819 91.262 88.402 91.4715 88.6966C91.7572 89.0716 92.1207 89.3804 92.5371 89.6018C93.0272 89.8716 93.5032 90.0739 93.8264 90.2656C94.0115 90.3488 94.1773 90.4697 94.313 90.6206C94.1238 90.5552 93.9408 90.4733 93.766 90.3756C93.4321 90.2159 92.9526 90.0207 92.4483 89.7544C92.0043 89.5238 91.6284 89.1811 91.3579 88.7605C91.2363 88.5926 91.1738 88.3891 91.1803 88.1819Z" fill="#A7775F"/>
<path d="M118.064 116.786C118.042 117.873 118.214 118.955 118.572 119.981C120.101 122.895 121.9 125.659 123.946 128.237C129.274 135.003 136.783 143.146 136.783 143.146L142.185 139.689L129.842 118.003L125.491 112.597L118.988 114.372L118.064 116.786Z" fill="#D5B298"/>
<path d="M111.348 40.7854C111.347 37.7831 112.49 34.8932 114.544 32.7025L114.282 32.6067C115.339 31.9543 116.603 31.7236 117.822 31.9604C119.042 32.1972 120.127 32.8842 120.863 33.8846C121.439 34.7259 121.723 35.7198 122.131 36.6534C122.54 37.587 123.129 38.51 124.056 38.9359C124.55 39.1596 125.101 39.227 125.605 39.4223C126.109 39.6175 126.603 40.0151 126.671 40.5511C126.745 41.2433 126.092 41.797 125.445 42.0526C124.799 42.3082 124.071 42.4289 123.556 42.8975C123.832 43.0075 124.082 43.173 124.291 43.3837C124.501 43.5944 124.665 43.8458 124.773 44.1224C124.881 44.399 124.931 44.6949 124.92 44.9917C124.909 45.2885 124.838 45.5798 124.709 45.8478C124.581 46.1157 124.399 46.3544 124.175 46.5492C123.951 46.744 123.689 46.8907 123.406 46.9802C123.122 47.0697 122.823 47.1001 122.528 47.0694C122.232 47.0388 121.946 46.9479 121.687 46.8022C122.369 47.8139 122.042 49.2871 121.133 50.1071C120.657 50.4901 120.094 50.7511 119.493 50.8674C118.893 50.9837 118.273 50.9518 117.688 50.7744C116.517 50.4072 115.467 49.7316 114.647 48.8185C112.567 46.6563 111.388 43.7845 111.348 40.7854Z" fill="#263238"/>
<path d="M94.757 38.7194C94.6859 37.8852 95.2897 37.1149 96.0321 36.7244C96.7996 36.3836 97.6257 36.1944 98.4651 36.1671C97.9181 35.1945 97.364 34.1863 97.2397 33.0788C97.1154 31.9713 97.5381 30.7218 98.5291 30.207C99.3815 29.7633 100.429 29.955 101.324 30.2993C102.219 30.6437 103.1 31.1335 104.031 31.2755C106.517 31.6305 108.719 29.6036 111.209 29.3764C113.767 29.1386 116.629 31.3004 117.006 33.8385C113.5 36.5114 109.963 39.2163 107.132 42.5993C105.604 44.4274 104.024 46.6034 101.658 46.9123C100.919 47.0094 100.167 46.9049 99.4825 46.6098C98.7978 46.3148 98.2057 45.8402 97.7688 45.2362C97.332 44.6323 97.0667 43.9216 97.0011 43.1793C96.9355 42.437 97.0719 41.6908 97.396 41.0196C96.2274 40.6079 94.8564 39.9547 94.757 38.7194Z" fill="#263238"/>
<path d="M100.319 43.0501C99.6088 39.7914 102.163 35.624 105.448 35.0596L116.349 34.1047L116.8 35.837L122.188 57.3308C122.188 57.3308 123.254 64.4552 117.329 65.7012C112.001 66.8229 110.744 61.2356 110.744 61.232L109.767 57.1711C109.767 57.1711 105.505 58.1899 103.154 53.0959C101.981 50.565 101.101 46.6673 100.319 43.0501Z" fill="#D5B298"/>
<path d="M103.054 47.4057C103.103 47.5848 103.219 47.7379 103.379 47.8321C103.54 47.9263 103.73 47.9542 103.911 47.9097C103.999 47.8916 104.084 47.856 104.159 47.805C104.234 47.7539 104.298 47.6885 104.347 47.6125C104.396 47.5365 104.43 47.4514 104.446 47.3623C104.462 47.2731 104.46 47.1817 104.44 47.0933C104.392 46.9149 104.275 46.7624 104.116 46.6683C103.957 46.5741 103.767 46.5458 103.587 46.5892C103.498 46.6069 103.413 46.6422 103.338 46.6931C103.263 46.7439 103.198 46.8093 103.149 46.8854C103.099 46.9614 103.065 47.0466 103.049 47.136C103.033 47.2253 103.034 47.317 103.054 47.4057Z" fill="#263238"/>
<path d="M102.049 45.6201C102.159 45.684 102.571 45.1551 103.306 44.9492C104.042 44.7433 104.688 44.9492 104.727 44.8463C104.755 44.7966 104.624 44.6582 104.34 44.5552C103.959 44.4236 103.547 44.4137 103.161 44.5268C102.777 44.6329 102.437 44.8593 102.191 45.1729C102.049 45.4107 102.01 45.5917 102.049 45.6201Z" fill="#263238"/>
<path d="M109.288 45.6627C109.336 45.8419 109.453 45.995 109.613 46.0892C109.773 46.1834 109.964 46.2113 110.144 46.1668C110.233 46.1487 110.317 46.1131 110.392 46.0621C110.467 46.011 110.531 45.9456 110.58 45.8696C110.63 45.7936 110.663 45.7085 110.679 45.6193C110.695 45.5302 110.693 45.4387 110.674 45.3504C110.625 45.172 110.509 45.0195 110.35 44.9254C110.19 44.8312 110.001 44.8029 109.821 44.8463C109.732 44.864 109.647 44.8993 109.572 44.9502C109.496 45.001 109.432 45.0664 109.382 45.1425C109.333 45.2185 109.299 45.3037 109.282 45.3931C109.266 45.4824 109.268 45.5741 109.288 45.6627Z" fill="#263238"/>
<path d="M108.872 43.8204C108.982 43.8878 109.394 43.3554 110.129 43.1495C110.865 42.9436 111.511 43.1495 111.55 43.0465C111.579 42.9969 111.447 42.8584 111.163 42.7555C110.782 42.6239 110.37 42.6139 109.984 42.7271C109.6 42.8336 109.26 43.06 109.014 43.3731C108.851 43.611 108.819 43.792 108.872 43.8204Z" fill="#263238"/>
<path d="M108.169 49.7911C107.748 49.7973 107.329 49.8473 106.919 49.9402C106.723 49.9757 106.535 49.9935 106.475 49.8905C106.414 49.7876 106.425 49.5959 106.475 49.3865C106.542 48.9534 106.61 48.499 106.681 48.0233C106.848 46.8605 106.957 45.69 107.007 44.5162C106.919 44.5162 106.624 46.0781 106.354 48.0127C106.293 48.4884 106.233 48.9427 106.176 49.3758C106.145 49.4846 106.136 49.5985 106.15 49.7107C106.165 49.8229 106.201 49.9312 106.258 50.029C106.307 50.0792 106.366 50.1182 106.432 50.1434C106.498 50.1685 106.568 50.1791 106.638 50.1745C106.749 50.1691 106.86 50.1524 106.968 50.1248C107.379 50.057 107.782 49.9451 108.169 49.7911Z" fill="#263238"/>
<path d="M109.742 57.2102C112.264 56.5446 114.551 55.1929 116.349 53.3054C116.349 53.3054 115.578 57.5438 110.097 58.552L109.742 57.2102Z" fill="#A7775F"/>
<path d="M110.396 49.2409C110.275 49.2693 110.499 50.068 109.973 50.8277C109.447 51.5873 108.574 51.7399 108.599 51.8535C108.599 51.9068 108.833 51.9565 109.195 51.8535C109.666 51.7276 110.077 51.4398 110.357 51.0406C110.624 50.6584 110.732 50.1876 110.659 49.7272C110.595 49.3864 110.449 49.2161 110.396 49.2409Z" fill="#263238"/>
<path d="M108.421 41.2965C108.57 41.4989 109.156 41.151 109.938 40.9877C110.719 40.8244 111.419 40.8635 111.44 40.6327C111.44 40.5191 111.259 40.3452 110.936 40.2174C110.536 40.0678 110.102 40.037 109.685 40.1287C109.282 40.2163 108.916 40.4272 108.638 40.7321C108.421 40.97 108.354 41.2007 108.421 41.2965Z" fill="#263238"/>
<path d="M101.339 43.0963C101.516 43.2702 102.017 42.9507 102.667 42.8087C103.317 42.6667 103.899 42.6951 103.985 42.4538C104.017 42.3402 103.889 42.1556 103.608 42.0136C103.249 41.8455 102.842 41.8067 102.457 41.9035C102.07 41.996 101.724 42.216 101.477 42.5283C101.275 42.7874 101.243 43.0111 101.339 43.0963Z" fill="#263238"/>
<path d="M99.9178 39.8944C100.365 37.8 101.836 35.9896 103.658 34.8821C105.48 33.7746 107.632 33.2492 109.771 33.1072C111.913 33.0191 114.06 33.1034 116.189 33.3592C116.704 33.4089 117.272 33.4799 117.61 33.8669C117.823 34.15 117.962 34.4819 118.015 34.8324C118.685 37.7266 119.357 40.6197 120.032 43.5116L119.769 45.4852C118.849 45.7621 117.873 45.3149 117.066 44.7753C114.229 42.9079 112.216 40.0238 111.444 36.7173C111.321 37.1691 111.27 37.6376 111.294 38.1053C111.305 38.3388 111.26 38.5716 111.163 38.7841C111.065 38.9965 110.918 39.1825 110.733 39.3264C110.069 39.7311 109.224 39.0886 108.897 38.3822C108.57 37.6758 108.46 36.8309 107.906 36.2842C107.479 37.5612 106.769 38.725 105.828 39.6885C105.384 40.1393 104.763 40.5724 104.166 40.3345C103.965 40.2332 103.797 40.0777 103.68 39.8857C103.564 39.6937 103.503 39.4729 103.505 39.2483C103.517 38.8 103.613 38.358 103.789 37.9455C103.187 39.1628 102.243 40.1781 101.072 40.867C100.954 40.9581 100.817 41.0209 100.671 41.0504C100.525 41.08 100.374 41.0755 100.23 41.0374C99.8504 40.8706 99.8362 40.3168 99.9178 39.8944Z" fill="#263238"/>
<path d="M117.386 42.1414C117.46 42.0846 120.401 40.2707 121.193 43.5613C121.986 46.8519 118.519 46.9691 118.491 46.8768C118.462 46.7845 117.386 42.1414 117.386 42.1414Z" fill="#D5B298"/>
<path d="M119.194 45.4001C119.194 45.4001 119.262 45.4285 119.372 45.4498C119.522 45.4734 119.676 45.4391 119.802 45.3539C120.118 45.1445 120.278 44.5197 120.157 43.934C120.099 43.6504 119.977 43.3835 119.802 43.1531C119.747 43.0573 119.669 42.9764 119.575 42.9176C119.482 42.8588 119.375 42.8239 119.265 42.8158C119.195 42.8135 119.126 42.8362 119.071 42.8797C119.015 42.9232 118.977 42.9848 118.963 43.0537C118.942 43.1566 118.981 43.217 118.963 43.2276C118.945 43.2383 118.878 43.1886 118.874 43.0466C118.873 42.9607 118.9 42.8769 118.952 42.8087C119.028 42.7199 119.135 42.6629 119.251 42.649C119.39 42.6442 119.527 42.6742 119.651 42.7362C119.776 42.7982 119.882 42.8903 119.962 43.004C120.171 43.2551 120.315 43.5538 120.381 43.8737C120.52 44.541 120.331 45.2439 119.887 45.4959C119.805 45.543 119.714 45.571 119.62 45.5777C119.525 45.5845 119.431 45.5699 119.343 45.535C119.219 45.4782 119.187 45.4107 119.194 45.4001Z" fill="#A7775F"/>
<path d="M112.019 36.1423C112.052 36.2037 112.093 36.261 112.14 36.3127C112.225 36.4227 112.353 36.5789 112.527 36.7741C113.372 37.6991 114.366 38.4766 115.468 39.0744C115.713 39.2022 115.962 39.3335 116.239 39.4507C116.524 39.5892 116.844 39.641 117.159 39.5997C117.327 39.5641 117.484 39.486 117.614 39.373C117.744 39.2599 117.842 39.1156 117.901 38.9537C118.024 38.6273 118.052 38.273 117.983 37.9314C117.83 37.2214 117.357 36.6854 117.105 36.0429C117.071 35.9609 117.043 35.8767 117.02 35.7908L116.882 35.8902L118.608 36.9552L119.428 37.4628C119.689 37.6576 119.996 37.78 120.32 37.8178C120.489 37.8235 120.655 37.7638 120.781 37.6509C120.899 37.5395 120.98 37.3945 121.012 37.2356C121.063 36.9538 121.052 36.6644 120.98 36.3872C120.887 35.8958 120.731 35.4186 120.515 34.9673C120.207 34.3139 119.781 33.723 119.258 33.2244C119.118 33.0894 118.97 32.9637 118.814 32.8481C118.761 32.8045 118.704 32.7664 118.643 32.7345C118.643 32.7345 118.86 32.9155 119.212 33.2741C119.707 33.7823 120.11 34.3734 120.401 35.0205C120.604 35.4644 120.751 35.9319 120.838 36.4121C120.9 36.6704 120.908 36.9388 120.86 37.2001C120.84 37.328 120.775 37.4447 120.677 37.5287C120.578 37.6128 120.453 37.6587 120.323 37.658C120.031 37.6193 119.752 37.5083 119.513 37.335L118.7 36.8167L116.967 35.7518L116.768 35.6276L116.832 35.8512C116.857 35.9364 116.889 36.0287 116.924 36.1174C117.198 36.7954 117.663 37.3456 117.794 37.9775C117.859 38.2851 117.837 38.6047 117.73 38.9004C117.682 39.0366 117.601 39.1582 117.492 39.2539C117.384 39.3496 117.253 39.4161 117.112 39.4471C116.828 39.485 116.54 39.4393 116.281 39.3158C116.018 39.2057 115.766 39.0779 115.525 38.9608C115.078 38.724 114.646 38.4596 114.232 38.1692C113.635 37.7458 113.076 37.2707 112.562 36.7493C112.381 36.5611 112.246 36.3943 112.154 36.3127C112.116 36.2506 112.071 36.1934 112.019 36.1423Z" fill="#CCDDE4"/>
<path d="M107.153 101.376L99.0014 112.093C99.0014 112.093 109.955 117.84 110.783 118.003L117.254 111.483C117.254 111.483 117.567 117.698 117.755 117.357C118.064 116.786 120.92 113.932 123.406 114.209C125.893 114.486 128.841 117.336 128.841 117.336L129.853 118.003C129.853 118.003 133.806 110.446 134.47 108.774C135.135 107.102 135.024 106.36 135.024 106.36L133.92 101.373L120.462 102.463L107.153 101.376Z" fill="#263238"/>
<path d="M117.912 104.653C117.892 105.023 117.849 105.392 117.784 105.757C117.692 106.438 117.581 107.379 117.51 108.423C117.439 109.466 117.418 110.411 117.418 111.096C117.433 111.467 117.425 111.84 117.393 112.21C117.321 111.844 117.285 111.472 117.286 111.099C117.213 109.305 117.332 107.508 117.642 105.739C117.694 105.369 117.784 105.004 117.912 104.653Z" fill="#CCDDE4"/>
<path d="M132.481 105.75C132.464 105.9 132.428 106.048 132.375 106.19C132.297 106.474 132.165 106.875 131.998 107.368C131.643 108.359 131.132 109.708 130.467 111.156C129.803 112.604 129.121 113.882 128.613 114.795C128.358 115.249 128.145 115.615 127.992 115.859C127.922 115.995 127.837 116.122 127.74 116.239C127.789 116.094 127.853 115.955 127.931 115.824C128.081 115.533 128.287 115.167 128.496 114.727C128.976 113.801 129.633 112.519 130.297 111.074C130.961 109.63 131.505 108.295 131.874 107.322C132.044 106.861 132.19 106.474 132.307 106.165C132.351 106.021 132.409 105.882 132.481 105.75Z" fill="white"/>
<path d="M133.462 106.247C133.439 106.398 133.401 106.547 133.348 106.69C133.263 106.971 133.128 107.375 132.954 107.869C132.491 109.157 131.962 110.42 131.37 111.653C130.774 112.89 130.116 114.096 129.398 115.267C129.125 115.714 128.894 116.072 128.727 116.314C128.648 116.441 128.556 116.56 128.454 116.669C128.509 116.527 128.579 116.391 128.663 116.264C128.83 115.977 129.04 115.618 129.285 115.199C129.807 114.29 130.503 113.023 131.196 111.582C131.888 110.141 132.442 108.806 132.822 107.83L133.273 106.673C133.322 106.525 133.386 106.382 133.462 106.247Z" fill="white"/>
<path d="M98.7564 148.769L98.6605 149.124C98.6605 149.124 93.3327 151.435 90.9245 153.288C90.7964 153.388 90.7031 153.526 90.6581 153.682C90.613 153.838 90.6184 154.004 90.6736 154.157C90.7287 154.31 90.8308 154.441 90.9652 154.532C91.0995 154.624 91.2594 154.67 91.4218 154.665L105.917 154.271L105.796 148.542C103.328 149.866 101.641 149.944 98.7564 148.769Z" fill="#263238"/>
<path d="M98.2775 151.119C98.2313 151.141 98.0465 150.81 97.7125 150.505C97.3784 150.2 97.0408 150.054 97.0763 150.001C97.225 150.01 97.3703 150.049 97.5039 150.115C97.6375 150.181 97.7567 150.272 97.8546 150.384C98.2029 150.722 98.3237 151.119 98.2775 151.119Z" fill="white"/>
<path d="M97.3007 151.709C97.2473 151.709 97.2509 151.325 96.9808 150.981C96.7107 150.636 96.366 150.534 96.366 150.48C96.366 150.427 96.4726 150.448 96.629 150.498C96.8272 150.567 97.002 150.69 97.1336 150.853C97.2654 151.021 97.3434 151.225 97.3575 151.439C97.3611 151.616 97.322 151.712 97.3007 151.709Z" fill="white"/>
<path d="M95.9295 152.564C95.9149 152.241 95.8563 151.92 95.7554 151.613C95.6018 151.326 95.4092 151.062 95.1832 150.828C95.1832 150.81 95.3111 150.828 95.4675 150.952C95.6697 151.104 95.8279 151.306 95.9259 151.538C96.0246 151.771 96.0625 152.025 96.0361 152.277C96.0112 152.465 95.9508 152.571 95.9295 152.564Z" fill="white"/>
<path d="M100.273 152.752C100.921 152.638 101.579 152.587 102.237 152.6C102.893 152.546 103.552 152.557 104.205 152.632C102.901 152.795 101.585 152.836 100.273 152.752Z" fill="white"/>
<path d="M97.9288 150.133C97.9288 150.104 98.1668 150.211 98.5539 150.278C98.7775 150.32 99.0054 150.333 99.2323 150.317C99.3661 150.31 99.499 150.292 99.6301 150.264C99.6976 150.264 99.7722 150.229 99.829 150.211C99.8468 150.208 99.8631 150.199 99.8752 150.186C99.8752 150.186 99.6585 150.122 99.52 150.101C99.3815 150.079 99.2465 150.069 99.1151 150.062C98.8844 150.049 98.6532 150.049 98.4225 150.062C98.2098 150.095 97.9949 150.112 97.7796 150.111C97.9752 150.008 98.1908 149.947 98.4118 149.934C98.6469 149.898 98.8845 149.883 99.1222 149.887C99.2572 149.887 99.3993 149.887 99.5449 149.916L99.7651 149.948C99.8163 149.952 99.8659 149.967 99.9107 149.992C99.9555 150.017 99.9942 150.052 100.024 150.094C100.044 150.124 100.054 150.159 100.054 150.195C100.054 150.231 100.044 150.266 100.024 150.296C99.9895 150.343 99.9411 150.377 99.8859 150.396C99.8112 150.419 99.7353 150.438 99.6585 150.453C99.2806 150.526 98.8911 150.514 98.5184 150.417C98.3 150.377 98.0964 150.278 97.9288 150.133Z" fill="white"/>
<path d="M97.9929 150.122C98.0158 149.934 98.0551 149.749 98.1101 149.568C98.1477 149.37 98.1714 149.169 98.1812 148.968C98.1812 148.855 98.1812 148.734 98.1812 148.613C98.1844 148.516 98.17 148.418 98.1386 148.326C98.1244 148.339 98.1124 148.355 98.103 148.372C98.0779 148.424 98.0576 148.479 98.0426 148.535C98.0047 148.653 97.9727 148.772 97.9467 148.89C97.9025 149.086 97.874 149.286 97.8614 149.486C97.8666 149.676 97.8594 149.866 97.84 150.054C97.7568 149.877 97.7189 149.682 97.7299 149.486C97.7256 149.275 97.7422 149.063 97.7796 148.855C97.8019 148.734 97.8316 148.616 97.8685 148.5C97.8873 148.432 97.9123 148.367 97.9431 148.304C97.9631 148.262 97.9937 148.225 98.0319 148.198C98.0606 148.181 98.0931 148.173 98.1261 148.173C98.1592 148.173 98.1917 148.181 98.2203 148.198C98.2612 148.225 98.2947 148.262 98.3176 148.305C98.3406 148.349 98.3523 148.397 98.3518 148.446C98.3518 148.514 98.3518 148.578 98.3518 148.642C98.3518 148.773 98.3518 148.897 98.3518 149.018C98.3345 149.227 98.2952 149.434 98.2345 149.635C98.1911 149.813 98.1085 149.98 97.9929 150.122Z" fill="white"/>
<path d="M90.5906 154.137C90.7881 154.106 90.9875 154.088 91.1873 154.084C91.5745 154.062 92.1321 154.037 92.8212 154.009C94.1993 153.959 96.1031 153.909 98.2094 153.885C100.316 153.86 102.219 153.885 103.598 153.885C104.287 153.885 104.844 153.909 105.231 153.924C105.431 153.923 105.63 153.936 105.828 153.963C105.631 153.991 105.431 154.002 105.231 153.995L103.598 154.016L98.2094 154.062L92.8247 154.133H91.1909C90.9913 154.153 90.7904 154.155 90.5906 154.137Z" fill="white"/>
<path d="M123.946 128.248L137.191 144.368L142.309 144.059L143.556 141.041L132.758 122.576L123.946 128.248Z" fill="#CCDDE4"/>
<path d="M136.427 142.806L136.534 143.161C136.534 143.161 133.252 147.935 132.183 150.786C132.126 150.938 132.119 151.105 132.163 151.262C132.207 151.418 132.3 151.557 132.428 151.658C132.555 151.759 132.712 151.817 132.875 151.824C133.038 151.83 133.198 151.785 133.334 151.694L145.41 143.682L142.274 138.89C140.889 141.315 139.5 142.273 136.427 142.806Z" fill="#263238"/>
<path d="M137.277 145.06C137.249 145.107 136.922 144.925 136.471 144.844C136.019 144.762 135.653 144.801 135.642 144.748C135.908 144.608 136.218 144.577 136.506 144.662C136.655 144.674 136.799 144.715 136.932 144.784C137.064 144.852 137.182 144.946 137.277 145.06Z" fill="white"/>
<path d="M136.751 146.069C136.705 146.097 136.51 145.77 136.094 145.621C135.837 145.553 135.571 145.521 135.305 145.525C135.305 145.504 135.376 145.44 135.536 145.401C135.745 145.356 135.962 145.372 136.161 145.447C136.361 145.522 136.535 145.652 136.663 145.823C136.755 145.959 136.773 146.062 136.751 146.069Z" fill="white"/>
<path d="M136.045 147.52C135.991 147.541 135.839 147.104 135.391 146.81C135.11 146.648 134.807 146.529 134.492 146.455C134.492 146.434 134.605 146.395 134.797 146.409C135.053 146.428 135.299 146.517 135.508 146.664C135.716 146.807 135.883 147.002 135.991 147.229C136.059 147.396 136.066 147.516 136.045 147.52Z" fill="white"/>
<path d="M139.83 145.376C140.85 144.548 141.945 143.817 143.101 143.193C142.611 143.63 142.08 144.021 141.517 144.36C140.988 144.751 140.423 145.091 139.83 145.376Z" fill="white"/>
<path d="M136.449 144.4C136.449 144.368 136.694 144.339 137.056 144.194C137.268 144.107 137.469 143.996 137.656 143.864C137.764 143.786 137.866 143.7 137.962 143.608C138.012 143.561 138.059 143.511 138.104 143.459C138.116 143.446 138.124 143.43 138.129 143.413C138.093 143.381 137.912 143.473 137.791 143.523L137.436 143.704C137.234 143.817 137.039 143.942 136.85 144.077C136.687 144.216 136.514 144.343 136.332 144.456C136.314 144.456 136.463 144.236 136.772 143.974C136.953 143.819 137.147 143.68 137.351 143.558C137.468 143.487 137.592 143.423 137.724 143.359L137.93 143.267C137.976 143.244 138.026 143.232 138.077 143.232C138.128 143.232 138.179 143.244 138.225 143.267C138.257 143.283 138.284 143.308 138.303 143.339C138.322 143.37 138.332 143.405 138.331 143.441C138.327 143.499 138.305 143.553 138.267 143.597C138.216 143.656 138.162 143.712 138.104 143.764C138 143.862 137.889 143.951 137.77 144.03C137.569 144.163 137.35 144.267 137.12 144.339C136.906 144.419 136.674 144.439 136.449 144.4Z" fill="white"/>
<path d="M136.503 144.375C136.424 144.202 136.359 144.024 136.307 143.842C136.235 143.654 136.148 143.471 136.048 143.296C135.991 143.192 135.928 143.091 135.859 142.994C135.799 142.905 135.682 142.756 135.671 142.774C135.66 142.792 135.671 142.774 135.671 142.774C135.668 142.791 135.668 142.809 135.671 142.827C135.679 142.886 135.691 142.944 135.707 143.001C135.733 143.121 135.766 143.24 135.806 143.356C135.873 143.547 135.955 143.732 136.051 143.91C136.157 144.066 136.251 144.23 136.332 144.4C136.314 144.4 136.14 144.275 135.941 143.977C135.822 143.802 135.723 143.614 135.646 143.416C135.599 143.301 135.559 143.182 135.529 143.061C135.509 142.994 135.495 142.925 135.486 142.855C135.484 142.808 135.491 142.761 135.508 142.717C135.521 142.686 135.542 142.66 135.569 142.64C135.596 142.62 135.627 142.607 135.66 142.603C135.709 142.604 135.756 142.618 135.798 142.643C135.84 142.668 135.874 142.703 135.898 142.745C135.941 142.8 135.98 142.853 136.016 142.905C136.087 143.015 136.151 143.122 136.208 143.228C136.303 143.416 136.38 143.612 136.439 143.814C136.504 143.993 136.526 144.185 136.503 144.375Z" fill="white"/>
<path d="M132.35 151.68C132.5 151.549 132.66 151.43 132.829 151.325C133.142 151.101 133.604 150.786 134.176 150.399C135.316 149.625 136.903 148.574 138.676 147.442C140.448 146.309 142.071 145.312 143.251 144.602C143.84 144.247 144.316 143.963 144.671 143.771C144.84 143.663 145.017 143.568 145.201 143.487C145.046 143.619 144.881 143.738 144.707 143.842L143.336 144.726L138.789 147.619L134.261 150.53L132.883 151.407C132.713 151.513 132.535 151.604 132.35 151.68Z" fill="white"/>
<path d="M127.789 129.775C127.307 129.517 126.878 129.17 126.525 128.752C126.129 128.373 125.809 127.923 125.58 127.425C125.626 127.396 126.049 127.982 126.646 128.624C127.242 129.267 127.821 129.732 127.789 129.775Z" fill="white"/>
<path d="M129.7 127.79C129.358 127.456 129.038 127.1 128.741 126.725C128.401 126.392 128.083 126.036 127.789 125.66C128.596 126.198 129.253 126.931 129.7 127.79Z" fill="white"/>
<path d="M132.152 126.384C132.102 126.406 131.836 125.859 131.42 125.241C131.144 124.882 130.887 124.509 130.649 124.123C131.027 124.391 131.344 124.737 131.576 125.139C131.859 125.506 132.055 125.931 132.152 126.384Z" fill="white"/>
<path d="M105.246 64.8209C105.363 65.1758 108.588 80.5073 108.588 80.5073L109.863 96.6055L107.16 101.376C107.16 101.376 111.93 104.113 116.072 103.769C120.213 103.425 123.197 102.793 127.438 103.797C131.679 104.802 136.289 107.841 136.289 107.841C136.289 107.841 138.015 102.434 138.129 97.9296C138.242 93.4249 133.511 72.7759 133.511 72.7759C133.511 72.7759 136.566 60.5469 134.154 58.1331C131.743 55.7193 122.22 54.9987 122.22 54.9987C122.22 54.9987 121.265 59.734 115.347 60.7422C111.572 61.3847 110.087 58.378 110.087 58.378C109.021 58.7721 107.416 59.9222 106.826 60.4156C105.459 61.587 105.246 64.8209 105.246 64.8209Z" fill="#CCDDE4"/>
<path d="M107.022 60.2452C107.022 60.2452 104.059 63.3015 103.917 65.5698C103.775 67.8381 102.365 80.0884 102.365 80.0884L109.984 82.4064L111.33 78.704L107.022 60.2452Z" fill="#CCDDE4"/>
<path d="M134.907 58.7188C132.908 56.7948 128.457 55.9996 128.457 55.9996H128.063L132.982 72.7048L137.333 78.3845L146.213 72.3925C146.213 72.3925 136.903 60.6392 134.907 58.7188Z" fill="#CCDDE4"/>
<path d="M106.311 66.6348C106.361 66.6348 106.993 70.4011 107.732 75.0619C108.471 79.7228 109.014 83.5104 108.964 83.5175C108.915 83.5246 108.279 79.7547 107.544 75.0903C106.808 70.4259 106.269 66.6525 106.311 66.6348Z" fill="#263238"/>
<path d="M129.15 65.8538C129.347 66.1984 129.525 66.554 129.682 66.9188C129.999 67.5897 130.453 68.509 131 69.4994C131.547 70.4898 132.087 71.3666 132.488 71.9843C132.719 72.3134 132.93 72.6559 133.121 73.0102C133.121 73.0102 133.032 72.9321 132.904 72.7688C132.776 72.6055 132.595 72.3641 132.378 72.0588C131.824 71.2569 131.311 70.4276 130.84 69.574C130.29 68.5765 129.853 67.6394 129.562 66.9542C129.42 66.5993 129.309 66.3295 129.238 66.1307C129.196 66.0431 129.166 65.9499 129.15 65.8538Z" fill="#263238"/>
<path d="M128.333 57.5793C127.822 58.1434 127.389 58.7738 127.047 59.4536C126.763 60.1607 126.577 60.9037 126.496 61.6615C126.444 61.4382 126.433 61.2072 126.464 60.98C126.509 60.4266 126.648 59.8851 126.876 59.379C127.105 58.8738 127.418 58.4106 127.8 58.0088C127.95 57.8345 128.131 57.689 128.333 57.5793Z" fill="#263238"/>
<path d="M126.628 95.8387C126.571 95.8387 126.515 95.8303 126.461 95.8139L125.989 95.7003C125.786 95.647 125.537 95.5867 125.246 95.5264C124.955 95.466 124.628 95.3844 124.259 95.324C123.524 95.182 122.643 95.0542 121.659 94.969C120.596 94.8732 119.529 94.8329 118.462 94.8484C117.393 94.8737 116.326 94.9566 115.265 95.0968C114.285 95.2353 113.408 95.395 112.683 95.569C112.328 95.6435 111.991 95.7393 111.703 95.8103C111.415 95.8813 111.167 95.9523 110.968 96.0127L110.502 96.144C110.449 96.1644 110.393 96.1753 110.335 96.176C110.383 96.1471 110.435 96.1245 110.488 96.1085L110.946 95.9452C111.142 95.8742 111.387 95.7926 111.675 95.7109C111.962 95.6293 112.285 95.5264 112.651 95.4412C113.505 95.2263 114.369 95.0545 115.241 94.9264C116.309 94.7776 117.384 94.6899 118.462 94.6638C119.541 94.6486 120.62 94.6936 121.694 94.7987C122.57 94.8919 123.44 95.0294 124.301 95.2104C124.657 95.2814 125.012 95.3702 125.289 95.4412C125.566 95.5122 125.825 95.5832 126.028 95.647L126.489 95.7926C126.537 95.8015 126.584 95.817 126.628 95.8387Z" fill="#263238"/>
<path d="M124.166 92.6051C123.781 92.63 123.394 92.63 123.009 92.6051C122.298 92.6051 121.314 92.6051 120.227 92.63C119.141 92.6548 118.16 92.7188 117.45 92.7615C117.067 92.8062 116.681 92.8216 116.295 92.8077C116.671 92.7175 117.054 92.6592 117.439 92.6335C118.15 92.5553 119.133 92.4771 120.224 92.4452C121.314 92.4132 122.302 92.4452 123.012 92.4736C123.4 92.482 123.786 92.526 124.166 92.6051Z" fill="#263238"/>
<g opacity="0.3">
<path d="M123.09 92.5481C119.794 92.593 116.501 92.7114 113.212 92.9031C113.923 93.8047 115.61 93.7231 116.867 93.6485C118.125 93.574 119.354 93.3397 120.607 93.1835C123.776 92.783 126.987 92.8776 130.126 93.4639C127.935 92.5268 125.491 92.509 123.09 92.5481Z" fill="black"/>
</g>
<g opacity="0.3">
<path d="M129.938 67.65C129.938 67.65 131.97 74.998 132.844 76.3044C133.717 77.6107 135.149 80.1239 135.149 80.1239L133.661 73.6456C133.54 73.7627 130.464 69.1196 129.938 67.65Z" fill="black"/>
</g>
<path d="M125.52 67.9695C124.901 68.2643 124.257 68.5019 123.595 68.6794C122.951 68.9152 122.288 69.0946 121.613 69.2155C122.874 68.6815 124.182 68.2633 125.52 67.9659V67.9695Z" fill="white"/>
<path d="M125.051 68.8747C124.287 69.2547 123.472 69.5236 122.632 69.6734C122.999 69.4545 123.396 69.2906 123.811 69.1871C124.207 69.0237 124.625 68.9185 125.051 68.8747Z" fill="white"/>
<path d="M70.1994 98.9377L74.2805 97.6704L72.089 86.8081L71.3289 80.0636L64.044 79.808C64.044 79.808 65.1451 88.7889 65.5891 90.6561C66.0331 92.5233 70.1994 98.9377 70.1994 98.9377Z" fill="#D5B298"/>
<path d="M75.1436 99.1329C75.1436 99.1329 76.0387 102.381 76.3264 103.946C76.3652 104.156 76.359 104.371 76.3082 104.578C76.2573 104.785 76.163 104.979 76.0316 105.146C75.3851 105.984 74.1349 107.578 74.0141 107.596L71.0874 107.841L69.5388 105.973C69.5471 105.878 69.577 105.785 69.6264 105.703C69.6758 105.621 69.7432 105.551 69.8237 105.499C69.9041 105.446 69.9954 105.413 70.0907 105.401C70.1859 105.389 70.2826 105.399 70.3734 105.43C70.9585 105.546 71.5588 105.563 72.1494 105.48L73.1084 104.202L72.0428 101.696L69.83 98.4017L73.7086 94.8519L75.1436 99.1329Z" fill="#D5B298"/>
<path d="M74.4119 102.111C74.4995 102.185 74.5729 102.274 74.6286 102.374C74.7998 102.634 74.927 102.921 75.0051 103.222C75.1246 103.673 75.1488 104.143 75.0761 104.603C74.9889 105.172 74.7496 105.707 74.3835 106.151C74.004 106.586 73.5127 106.909 72.9627 107.084C72.5207 107.233 72.0525 107.287 71.5882 107.244C71.2768 107.217 70.972 107.139 70.686 107.013C70.4871 106.921 70.3876 106.85 70.3947 106.839C70.7815 106.986 71.1867 107.078 71.5988 107.113C72.0427 107.138 72.4872 107.074 72.9059 106.925C73.4226 106.755 73.8823 106.445 74.2339 106.031C74.5856 105.616 74.8156 105.112 74.8985 104.575C74.976 104.137 74.9664 103.688 74.8701 103.254C74.7686 102.855 74.6146 102.47 74.4119 102.111Z" fill="#A7775F"/>
<path d="M69.8335 98.4017C69.8335 98.4017 68.9456 100.418 69.0947 101.401C69.2439 102.384 69.8335 105.824 70.1781 106.016C70.5226 106.208 71.0625 106.605 71.407 106.016C71.7515 105.427 71.407 103.506 71.407 103.506L72.0463 101.689C72.0463 101.689 73.4245 100.656 73.0302 99.7222C72.636 98.7886 70.7179 97.8727 69.8335 98.4017Z" fill="#D5B298"/>
<path d="M71.4078 103.513C71.4712 103.73 71.5012 103.955 71.4967 104.181C71.4967 104.387 71.5216 104.635 71.5251 104.908C71.5251 105.05 71.5251 105.192 71.5251 105.341C71.5306 105.506 71.504 105.67 71.4469 105.824C71.3853 105.987 71.2733 106.127 71.1271 106.222C71.0557 106.265 70.9765 106.292 70.8941 106.304C70.8117 106.316 70.7278 106.311 70.6473 106.289C70.5203 106.251 70.4029 106.187 70.303 106.1C70.2031 106.013 70.123 105.906 70.0681 105.785C69.9611 105.581 69.9085 105.352 69.9152 105.121C69.9508 105.121 69.997 105.373 70.1853 105.721C70.2364 105.819 70.3073 105.905 70.3936 105.975C70.4799 106.044 70.5796 106.094 70.6864 106.122C70.8113 106.146 70.9406 106.123 71.0495 106.058C71.1584 105.992 71.2392 105.889 71.2764 105.767C71.3246 105.633 71.3475 105.491 71.3439 105.349C71.3439 105.203 71.3439 105.061 71.3439 104.923C71.3439 104.672 71.3439 104.435 71.3439 104.213C71.3353 103.978 71.3568 103.743 71.4078 103.513Z" fill="#A7775F"/>
<path d="M33.9348 116.055L34.5174 126.086L43.6883 131.003C44.7726 130.101 45.5003 128.842 45.7412 127.453L48.0606 114.202L33.9348 116.055Z" fill="#D5B298"/>
<path d="M34.6559 124.879L22.75 147.381L29.0439 150.821L44.562 130.154L34.6559 124.879Z" fill="#DF8063"/>
<path d="M28.9231 149.607L28.8059 149.941C28.8059 149.941 31.7966 154.68 32.713 157.473C32.7608 157.623 32.7604 157.783 32.7118 157.932C32.6633 158.081 32.569 158.211 32.4424 158.303C32.3158 158.395 32.1633 158.446 32.0066 158.446C31.8498 158.447 31.6968 158.399 31.5693 158.308L20.2033 150.111L23.4 145.599C24.668 147.999 25.9751 148.989 28.9231 149.607Z" fill="#263238"/>
<path d="M28.0174 151.755C28.1143 151.648 28.2315 151.562 28.362 151.501C28.4926 151.44 28.634 151.406 28.7779 151.4C28.9175 151.363 29.0632 151.354 29.2061 151.375C29.3491 151.396 29.4863 151.445 29.6095 151.521C29.6095 151.574 29.2542 151.521 28.8028 151.585C28.3515 151.649 28.0459 151.801 28.0174 151.755Z" fill="white"/>
<path d="M28.4863 152.749C28.465 152.749 28.4863 152.639 28.5822 152.515C28.7124 152.355 28.8861 152.237 29.0822 152.173C29.2784 152.11 29.4886 152.106 29.6875 152.159C29.8403 152.206 29.9149 152.27 29.9043 152.291C29.6477 152.279 29.3907 152.302 29.1402 152.358C28.7351 152.472 28.5254 152.778 28.4863 152.749Z" fill="white"/>
<path d="M29.1185 154.179C29.0972 154.179 29.1185 154.055 29.186 153.888C29.3007 153.672 29.4692 153.489 29.6753 153.358C29.8813 153.226 30.118 153.149 30.3623 153.136C30.5507 153.136 30.6609 153.171 30.6573 153.196C30.3507 153.261 30.0543 153.368 29.776 153.512C29.3353 153.785 29.1683 154.197 29.1185 154.179Z" fill="white"/>
<path d="M25.5382 151.961C24.9728 151.669 24.4385 151.32 23.9434 150.92C23.4115 150.571 22.9143 150.172 22.4587 149.728C23.0219 150.022 23.5559 150.369 24.0535 150.764C24.5851 151.115 25.0822 151.516 25.5382 151.961Z" fill="white"/>
<path d="M28.8415 151.144C28.6264 151.169 28.4086 151.133 28.2128 151.041C27.9926 150.963 27.7846 150.854 27.5948 150.718C27.4831 150.637 27.3785 150.547 27.2822 150.448C27.2269 150.396 27.1759 150.339 27.1295 150.278C27.0941 150.235 27.0742 150.181 27.0726 150.125C27.0742 150.09 27.0856 150.055 27.1057 150.026C27.1258 149.996 27.1537 149.973 27.1863 149.958C27.233 149.941 27.2832 149.934 27.333 149.938C27.3828 149.942 27.431 149.958 27.474 149.983L27.6658 150.079C27.7937 150.147 27.9109 150.214 28.021 150.285C28.2144 150.411 28.3962 150.553 28.5644 150.711C28.7325 150.843 28.8716 151.009 28.9729 151.197C28.7988 151.081 28.6337 150.952 28.4792 150.81C28.3043 150.672 28.1204 150.545 27.9286 150.431C27.8221 150.367 27.7084 150.303 27.5734 150.242C27.4385 150.182 27.2893 150.093 27.2573 150.122C27.262 150.137 27.2692 150.151 27.2786 150.164C27.3142 150.211 27.3674 150.267 27.4101 150.313C27.498 150.408 27.5943 150.495 27.6978 150.573C27.8709 150.713 28.0605 150.833 28.2625 150.928C28.607 151.077 28.845 151.119 28.8415 151.144Z" fill="white"/>
<path d="M28.7953 151.119C28.7781 150.93 28.8086 150.74 28.8841 150.566C28.9475 150.372 29.0296 150.186 29.1293 150.008C29.1889 149.903 29.2542 149.801 29.3248 149.703L29.4456 149.554C29.4703 149.513 29.5054 149.48 29.5473 149.458C29.5891 149.435 29.6362 149.424 29.6837 149.426C29.7161 149.43 29.7468 149.442 29.7725 149.462C29.7982 149.482 29.8179 149.509 29.8294 149.54C29.8395 149.585 29.8395 149.632 29.8294 149.678C29.8183 149.746 29.8017 149.812 29.7797 149.877C29.7459 149.992 29.7043 150.105 29.6553 150.214C29.5728 150.401 29.4703 150.578 29.3497 150.743C29.1435 151.023 28.9694 151.155 28.9516 151.137C29.0361 150.975 29.1323 150.82 29.2395 150.672C29.3394 150.505 29.4261 150.331 29.4989 150.15C29.538 150.047 29.5736 149.937 29.6055 149.824C29.6224 149.77 29.6355 149.716 29.6446 149.66C29.6486 149.643 29.6486 149.625 29.6446 149.607C29.5745 149.671 29.5113 149.743 29.4563 149.82C29.3852 149.916 29.3212 150.008 29.2608 150.104C29.1593 150.269 29.0691 150.441 28.9907 150.619C28.9399 150.791 28.8745 150.958 28.7953 151.119Z" fill="white"/>
<path d="M32.5284 158.336C32.3571 158.245 32.1932 158.14 32.0382 158.024L30.7418 157.125C29.623 156.345 28.1241 155.301 26.4796 154.144L22.196 151.176L20.9031 150.271C20.7393 150.166 20.5848 150.047 20.4414 149.916C20.6155 150 20.783 150.097 20.9422 150.207C21.2583 150.406 21.713 150.7 22.2706 151.066C23.3859 151.797 24.9132 152.841 26.5826 153.987C28.252 155.134 29.7508 156.224 30.8235 157.015C31.3598 157.413 31.7932 157.725 32.088 157.963C32.2449 158.075 32.3922 158.2 32.5284 158.336Z" fill="white"/>
<path d="M34.8121 128.756C34.9066 127.68 35.3654 126.668 36.1128 125.888C36.159 125.919 35.7574 126.498 35.4021 127.286C35.0467 128.074 34.8654 128.756 34.8121 128.756Z" fill="white"/>
<path d="M37.4974 130.03C37.614 129.554 37.7895 129.093 38.0198 128.66C38.1946 128.202 38.4262 127.768 38.7092 127.368C38.5922 127.843 38.4167 128.302 38.1868 128.734C38.0125 129.194 37.7809 129.629 37.4974 130.03Z" fill="white"/>
<path d="M40.1471 131.294C40.1044 131.258 40.5025 130.754 40.833 130.055C41.1635 129.356 41.3412 128.738 41.3945 128.749C41.2997 129.72 40.8567 130.623 40.1471 131.294Z" fill="white"/>
<path d="M54.2373 114.273C54.8305 114.869 60.7124 127.975 60.7124 127.975L69.6702 125.561L65.6281 109.69L54.2373 114.273Z" fill="#D5B298"/>
<path d="M60.0446 127.485L63.4828 150.044H69.9863V124.879L60.0446 127.485Z" fill="#DF8063"/>
<path d="M70.0538 148.798L70.1639 149.153C70.1639 149.153 75.41 151.119 77.8395 152.773C77.9681 152.863 78.0651 152.992 78.1166 153.14C78.168 153.288 78.1714 153.449 78.1261 153.599C78.0808 153.749 77.9893 153.882 77.8645 153.977C77.7397 154.072 77.588 154.125 77.431 154.129L63.4118 154.467L63.2448 148.929C65.6921 150.086 67.3259 150.076 70.0538 148.798Z" fill="#263238"/>
<path d="M70.6327 151.055C70.6445 150.912 70.6848 150.772 70.7514 150.644C70.8179 150.516 70.9092 150.402 71.0201 150.31C71.3541 149.955 71.7308 149.859 71.7557 149.905C71.7806 149.951 71.4536 150.125 71.1516 150.441C70.8495 150.757 70.6825 151.077 70.6327 151.055Z" fill="white"/>
<path d="M71.606 151.567C71.5846 151.567 71.542 151.478 71.542 151.322C71.5452 151.114 71.6108 150.913 71.7303 150.743C71.8463 150.573 72.0092 150.439 72.1994 150.36C72.3487 150.303 72.4482 150.31 72.4518 150.335C72.4553 150.36 72.1177 150.495 71.8832 150.849C71.6486 151.204 71.6593 151.559 71.606 151.567Z" fill="white"/>
<path d="M72.9735 152.323C72.9521 152.323 72.8882 152.234 72.8526 152.049C72.8141 151.808 72.8383 151.562 72.923 151.333C73.0076 151.104 73.1498 150.901 73.336 150.743C73.4852 150.626 73.5954 150.59 73.606 150.612C73.3803 150.832 73.2065 151.1 73.0971 151.396C72.9877 151.692 72.9455 152.008 72.9735 152.323Z" fill="white"/>
<path d="M68.7822 152.72C68.1544 152.825 67.5181 152.869 66.8819 152.852C66.2471 152.894 65.6096 152.877 64.9781 152.799C65.6059 152.694 66.2422 152.65 66.8784 152.667C67.5132 152.622 68.1509 152.64 68.7822 152.72Z" fill="white"/>
<path d="M70.9204 150.072C70.7645 150.222 70.5702 150.325 70.3592 150.371C70.1359 150.441 69.904 150.479 69.6701 150.485C69.5312 150.488 69.3921 150.48 69.2546 150.46C69.1805 150.449 69.107 150.435 69.0344 150.417C68.9797 150.404 68.931 150.372 68.8958 150.328C68.8777 150.298 68.868 150.264 68.868 150.229C68.868 150.194 68.8777 150.159 68.8958 150.129C68.9224 150.086 68.9587 150.05 69.0019 150.023C69.0451 149.997 69.094 149.981 69.1445 149.976L69.3576 149.934C69.4961 149.909 69.6311 149.895 69.7625 149.884C69.9917 149.864 70.2223 149.864 70.4516 149.884C70.6653 149.887 70.876 149.936 71.0696 150.026C70.8615 150.043 70.6525 150.043 70.4445 150.026C70.2214 150.024 69.9985 150.035 69.7767 150.058C69.6524 150.058 69.521 150.09 69.3895 150.115C69.2581 150.14 69.0699 150.168 69.0628 150.215C69.0557 150.261 69.0628 150.215 69.0628 150.215C69.0739 150.227 69.0889 150.236 69.1054 150.239L69.3008 150.278C69.4287 150.299 69.5582 150.31 69.6879 150.31C69.9076 150.312 70.1268 150.29 70.3414 150.243C70.6931 150.161 70.9062 150.055 70.9204 150.072Z" fill="white"/>
<path d="M70.8603 150.054C70.8389 150.054 70.711 149.891 70.5937 149.561C70.5234 149.376 70.4711 149.184 70.4373 148.989C70.4218 148.872 70.4135 148.753 70.4125 148.634C70.4125 148.571 70.4125 148.507 70.4125 148.443C70.4093 148.395 70.418 148.348 70.4379 148.304C70.4577 148.261 70.4881 148.223 70.5262 148.194C70.5548 148.178 70.5873 148.169 70.6204 148.169C70.6534 148.169 70.6859 148.178 70.7145 148.194C70.7533 148.219 70.7851 148.253 70.8069 148.294C70.8396 148.353 70.867 148.414 70.8887 148.478C70.9313 148.599 70.9669 148.713 70.9953 148.833C71.0399 149.033 71.0649 149.236 71.0699 149.44C71.0906 149.628 71.0637 149.819 70.9917 149.994C70.9609 149.813 70.9431 149.631 70.9384 149.447C70.9184 149.254 70.8816 149.063 70.8283 148.876C70.7985 148.765 70.7617 148.656 70.7181 148.549C70.6982 148.497 70.6757 148.446 70.6506 148.397C70.6415 148.381 70.6294 148.368 70.615 148.358C70.5978 148.45 70.5907 148.544 70.5937 148.638C70.5937 148.759 70.5937 148.872 70.5937 148.993C70.6137 149.187 70.6469 149.379 70.6932 149.568C70.7596 149.726 70.8154 149.889 70.8603 150.054Z" fill="white"/>
<path d="M78.2053 153.579C78.0138 153.609 77.8202 153.625 77.6264 153.625L76.0493 153.693L70.8458 153.896L65.6388 154.116L64.0618 154.176C63.868 154.194 63.6731 154.194 63.4793 154.176C63.6703 154.14 63.8639 154.117 64.0582 154.109C64.4134 154.073 64.9675 154.034 65.6317 153.988C66.9637 153.899 68.8035 153.796 70.8352 153.714C72.8669 153.633 74.7138 153.586 76.0458 153.569C76.7135 153.569 77.2534 153.569 77.6264 153.569C77.8193 153.555 78.013 153.558 78.2053 153.579Z" fill="white"/>
<path d="M62.0588 129.927C61.8813 129.488 61.7618 129.027 61.7034 128.557C61.5855 128.099 61.527 127.628 61.5293 127.155C61.7088 127.594 61.8283 128.054 61.8847 128.525C62.0028 128.983 62.0613 129.454 62.0588 129.927Z" fill="white"/>
<path d="M64.5202 129.199C64.356 128.793 64.2495 128.365 64.2039 127.929C64.0988 127.503 64.0545 127.064 64.0724 126.626C64.236 127.033 64.3424 127.461 64.3887 127.897C64.4916 128.323 64.5358 128.761 64.5202 129.199Z" fill="white"/>
<path d="M67.486 128.688C67.3774 128.187 67.2968 127.679 67.2444 127.169C67.1315 126.667 67.045 126.16 66.985 125.65C67.4023 126.605 67.5746 127.65 67.486 128.688Z" fill="white"/>
<path d="M48.8456 30.0119C47.3396 30.0119 45.9401 30.7963 44.7503 31.7193C42.4858 33.4105 40.8098 35.7697 39.9588 38.4638C39.1738 41.1546 39.4615 44.1967 40.9924 46.5467C41.3586 47.1733 41.8859 47.6906 42.5197 48.0447C42.8383 48.2178 43.1975 48.3022 43.5599 48.2891C43.9223 48.276 44.2745 48.1658 44.5798 47.9701C44.7656 47.8277 44.9145 47.6428 45.0141 47.4309C45.1136 47.2191 45.1607 46.9864 45.1516 46.7526C45.3592 47.3376 45.7154 47.8587 46.1852 48.2648C46.8636 48.7937 48.0215 48.8008 48.4584 48.0589C48.8953 47.317 48.3803 46.3834 48.0038 45.5953C47.3223 44.0901 47.1326 42.4085 47.4616 40.7893C47.7906 39.1702 48.6215 37.6958 49.8365 36.5754L52.1879 32.4896C51.9392 31.0022 50.3516 30.0083 48.8456 30.0119Z" fill="#263238"/>
<path d="M53.0545 32.4363C52.9529 32.3122 52.8224 32.215 52.6744 32.1531C52.5263 32.0912 52.3654 32.0665 52.2056 32.0813C51.8847 32.114 51.5759 32.221 51.3035 32.3937C50.6199 32.8087 50.0585 33.3971 49.6761 34.0991C49.2937 34.8011 49.1039 35.5917 49.1262 36.3907C49.151 36.9764 49.357 37.6367 49.8934 37.8745C50.1423 37.9573 50.4101 37.9644 50.6631 37.8949C50.916 37.8254 51.1426 37.6824 51.3141 37.4841C51.6508 37.0787 51.901 36.6088 52.0494 36.1032C52.4045 35.0986 52.7917 34.0905 53.1646 33.0859C53.0332 33.2172 53.2392 32.699 53.0545 32.4363Z" fill="#CCDDE4"/>
<path d="M71.3111 34.7437C70.0502 32.7984 67.8765 31.5844 65.6281 31.0058C63.4259 30.4202 61.1584 30.1149 58.8796 30.097C56.9397 30.002 55.0293 30.6008 53.4912 31.786C51.9531 32.9713 50.8879 34.6655 50.4865 36.5647C49.9447 38.9387 49.8807 41.3967 50.2983 43.7956C51.1081 49.2658 55.8357 53.916 61.3091 54.6401L65.9975 54.1219C68.1287 53.4793 69.7767 51.7435 70.7677 49.7627C71.7587 47.782 72.1529 45.5634 72.43 43.3732C72.8065 40.4304 72.9237 37.2321 71.3111 34.7437Z" fill="#263238"/>
<path d="M70.7925 40.9771C71.0767 37.6367 67.9972 33.8065 64.6478 33.6681L53.637 34.1189L53.4097 35.8938L50.8062 58.0301C50.8062 58.0301 50.6712 65.2752 56.7342 65.7544C62.1793 66.1875 62.7262 60.4511 62.7262 60.4511L63.1738 56.2695C63.1738 56.2695 67.5959 56.7487 69.2759 51.3708C70.1177 48.6872 70.4906 44.6866 70.7925 40.9771Z" fill="#D5B298"/>
<path d="M68.1649 45.9964C68.1401 46.1813 68.0434 46.349 67.8958 46.4633C67.7482 46.5775 67.5614 46.6292 67.376 46.607C67.2847 46.6012 67.1955 46.5772 67.1137 46.5363C67.0319 46.4954 66.9591 46.4384 66.8998 46.3689C66.8404 46.2994 66.7957 46.2186 66.7682 46.1314C66.7407 46.0443 66.7311 45.9525 66.7399 45.8615C66.7638 45.676 66.8602 45.5074 67.0079 45.3924C67.1556 45.2774 67.3428 45.2253 67.5288 45.2474C67.6201 45.2541 67.7091 45.2789 67.7907 45.3203C67.8723 45.3618 67.9448 45.419 68.0041 45.4887C68.0633 45.5584 68.108 45.6392 68.1356 45.7264C68.1632 45.8136 68.1732 45.9054 68.1649 45.9964Z" fill="#263238"/>
<path d="M69.3967 43.7672C69.2972 43.8453 68.8177 43.3696 68.0576 43.2596C67.2975 43.1495 66.6795 43.4477 66.612 43.3412C66.5765 43.2951 66.6902 43.1424 66.9672 42.9862C67.331 42.8061 67.7417 42.7429 68.1429 42.8052C68.5382 42.8629 68.905 43.0444 69.1907 43.3235C69.3931 43.5613 69.4464 43.7317 69.3967 43.7672Z" fill="#263238"/>
<path d="M61.8391 45.1125C61.8143 45.2974 61.7176 45.4652 61.57 45.5794C61.4223 45.6937 61.2356 45.7453 61.0502 45.7231C60.9589 45.7173 60.8696 45.6933 60.7878 45.6524C60.706 45.6115 60.6333 45.5546 60.5739 45.485C60.5146 45.4155 60.4699 45.3347 60.4424 45.2476C60.4149 45.1604 60.4053 45.0686 60.414 44.9777C60.4388 44.7928 60.5355 44.6251 60.6832 44.5108C60.8308 44.3965 61.0175 44.3449 61.203 44.3671C61.2941 44.3733 61.3831 44.3977 61.4646 44.4388C61.5462 44.4798 61.6188 44.5367 61.678 44.6062C61.7373 44.6756 61.782 44.7562 61.8097 44.8431C61.8374 44.9301 61.8474 45.0217 61.8391 45.1125Z" fill="#263238"/>
<path d="M62.3746 42.8514C62.2716 42.933 61.7921 42.4573 61.032 42.3437C60.2719 42.2302 59.6574 42.5319 59.5864 42.4289C59.5154 42.326 59.6646 42.2266 59.9416 42.074C60.3045 41.8951 60.714 41.8331 61.1137 41.8965C61.5153 41.9506 61.8889 42.1323 62.1793 42.4147C62.3675 42.6348 62.4208 42.8123 62.3746 42.8514Z" fill="#263238"/>
<path d="M63.8451 48.7155C64.2665 48.6695 64.6917 48.6695 65.1131 48.7155C65.3084 48.7155 65.5002 48.7155 65.55 48.609C65.5997 48.5025 65.55 48.3109 65.4967 48.105L65.1095 46.7561C64.9639 46.2697 64.3033 43.5613 64.3281 43.2986C64.4169 43.2986 64.9106 44.8108 65.4327 46.7064L65.7879 48.0411C65.8319 48.1456 65.8545 48.2578 65.8545 48.3712C65.8545 48.4846 65.8319 48.5968 65.7879 48.7013C65.7461 48.7573 65.6927 48.8037 65.6315 48.8374C65.5702 48.871 65.5025 48.8912 65.4327 48.8966C65.3205 48.9076 65.2075 48.9076 65.0953 48.8966C64.6734 48.8794 64.2545 48.8187 63.8451 48.7155Z" fill="#263238"/>
<path d="M63.2306 56.3192C60.6247 55.9745 58.1656 54.914 56.1269 53.2557C56.1269 53.2557 57.4446 57.3841 63.0424 57.6858L63.2306 56.3192Z" fill="#A7775F"/>
<path d="M61.5577 48.4458C61.682 48.4458 61.5577 49.2836 62.1828 49.9722C62.808 50.6609 63.6959 50.7035 63.6853 50.8206C63.6853 50.8738 63.4651 50.9519 63.0921 50.9058C62.6069 50.8415 62.1602 50.6076 61.8312 50.2455C61.5138 49.8984 61.3443 49.4412 61.3588 48.9712C61.373 48.6233 61.4938 48.4316 61.5577 48.4458Z" fill="#263238"/>
<path d="M62.4954 40.2742C62.3746 40.4943 61.7459 40.2245 60.9432 40.1606C60.1405 40.0967 59.4514 40.2245 59.3982 39.9867C59.3768 39.8731 59.5402 39.6779 59.8492 39.5075C60.2281 39.3058 60.6578 39.2194 61.0853 39.259C61.4987 39.2937 61.891 39.4562 62.2077 39.724C62.4528 39.9441 62.5522 40.1677 62.4954 40.2742Z" fill="#263238"/>
<path d="M69.8087 41.1545C69.6524 41.3498 69.0983 41.0942 68.4448 41.0374C67.7912 40.9806 67.2016 41.0835 67.088 40.8599C67.0382 40.7499 67.1448 40.5511 67.4041 40.3736C67.743 40.1619 68.1434 40.0706 68.5407 40.1145C68.942 40.1544 69.3178 40.3296 69.6062 40.6114C69.8193 40.8422 69.8797 41.0764 69.8087 41.1545Z" fill="#263238"/>
<path d="M67.0773 33.6681C67.0773 33.6681 61.5968 42.1875 54.7275 42.3686L51.6658 50.92C51.6658 50.92 48.9415 48.3748 49.4459 41.8787C49.9502 35.3826 52.9977 31.5844 56.5887 31.0839C60.1796 30.5833 67.0773 33.6681 67.0773 33.6681Z" fill="#263238"/>
<path d="M55.1182 42.5709C55.0436 42.507 51.9961 40.3984 50.9589 43.8772C49.9218 47.356 53.6335 47.679 53.669 47.5796C53.7045 47.4802 55.1182 42.5709 55.1182 42.5709Z" fill="#D5B298"/>
<path d="M52.9984 45.9467C52.9984 45.9467 52.9273 45.9716 52.81 45.9858C52.6469 46.005 52.4826 45.9605 52.3516 45.8615C52.0246 45.6166 51.8896 44.9421 52.0566 44.3103C52.1364 44.0092 52.2834 43.73 52.4866 43.4938C52.5501 43.3937 52.6377 43.311 52.7413 43.2533C52.845 43.1957 52.9615 43.1649 53.0801 43.1637C53.1552 43.1653 53.2272 43.1932 53.2838 43.2425C53.3403 43.2918 53.3776 43.3594 53.3893 43.4335C53.4071 43.5471 53.3644 43.6074 53.3893 43.6216C53.4142 43.6358 53.4817 43.5861 53.4959 43.4335C53.5028 43.3415 53.4777 43.25 53.4248 43.1743C53.3498 43.0743 53.2391 43.0069 53.1157 42.9862C52.9637 42.9724 52.8106 42.9978 52.6713 43.0599C52.5319 43.1221 52.4108 43.2189 52.3196 43.3412C52.0819 43.5976 51.9111 43.9084 51.8221 44.2464C51.6337 44.9563 51.7972 45.7195 52.2592 46.0213C52.3447 46.0761 52.4416 46.1111 52.5425 46.1233C52.6434 46.1356 52.7458 46.125 52.842 46.0923C52.9664 46.0461 53.009 45.9574 52.9984 45.9467Z" fill="#A7775F"/>
<path d="M53.1043 40.8635C53.1043 40.8635 53.3316 40.9416 53.7365 41.0836C54.3141 41.2841 54.9084 41.4326 55.5124 41.5273C57.501 41.8671 59.5461 41.5879 61.3707 40.7276C63.1953 39.8673 64.7113 38.4673 65.7134 36.7174C66.0204 36.1921 66.2806 35.641 66.4912 35.0703C66.5566 34.8563 66.6349 34.6465 66.7257 34.442C66.7223 34.4999 66.7115 34.5571 66.6937 34.6123C66.6617 34.7224 66.6298 34.8892 66.5587 35.0951C66.3731 35.6818 66.1254 36.247 65.8199 36.7813C65.0604 38.1756 63.969 39.3616 62.6421 40.2346C61.3152 41.1075 59.7937 41.6405 58.2118 41.7864C57.3017 41.8735 56.3838 41.8353 55.484 41.6728C54.8765 41.5637 54.2815 41.3937 53.7081 41.1652C53.5056 41.0907 53.3529 41.009 53.2534 40.9629C53.154 40.9167 53.1007 40.8706 53.1043 40.8635Z" fill="#263238"/>
<path d="M79.0578 43.469C79.0056 43.4906 78.9506 43.5049 78.8944 43.5116C78.7354 43.5466 78.5739 43.5691 78.4114 43.579C77.8156 43.6327 77.2151 43.5846 76.6354 43.437C75.7629 43.2268 74.9486 42.8242 74.2521 42.2585C73.8445 41.9245 73.4858 41.535 73.1866 41.1013C72.8675 40.6304 72.6119 40.1196 72.4265 39.582C72.0393 38.4815 71.8582 37.3953 71.5811 36.444C71.3618 35.5962 70.986 34.7968 70.4729 34.0869C70.1261 33.6106 69.6739 33.2207 69.1516 32.9474C68.7751 32.7664 68.5407 32.7238 68.5478 32.7025C68.6044 32.7057 68.6604 32.7152 68.7148 32.7309C68.8749 32.765 69.0309 32.8162 69.1801 32.8836C69.7316 33.1371 70.2113 33.5238 70.5759 34.0088C71.1157 34.7226 71.5125 35.5337 71.7445 36.3978C72.0358 37.3563 72.2205 38.4425 72.6005 39.5181C72.7813 40.0409 73.0284 40.5383 73.3357 40.9983C73.6168 41.4246 73.9564 41.8094 74.3445 42.1413C75.0169 42.701 75.8037 43.1069 76.6496 43.3305C77.2213 43.4836 77.8129 43.5494 78.4043 43.5258C78.8269 43.4938 79.0578 43.4477 79.0578 43.469Z" fill="#263238"/>
<path d="M48.2098 27.8855C48.49 27.9192 48.7612 28.006 49.0089 28.1411C49.6279 28.4315 50.1792 28.8481 50.6276 29.364C51.0759 29.88 51.4114 30.4839 51.6125 31.1371C51.7081 31.4033 51.7527 31.6851 51.7439 31.9677C51.7119 31.9677 51.6622 31.6554 51.4881 31.1797C51.2604 30.5605 50.9236 29.987 50.4936 29.4864C50.0615 28.9877 49.5444 28.5695 48.9663 28.2511C48.5046 28.0133 48.1991 27.9174 48.2098 27.8855Z" fill="#263238"/>
<path d="M38.4386 37.2853C38.419 37.2269 38.4082 37.1659 38.4066 37.1043C38.3809 36.9314 38.3655 36.7571 38.3605 36.5824C38.3386 35.9361 38.4128 35.2901 38.5807 34.6656C38.8225 33.7325 39.2448 32.8557 39.8238 32.0849C40.5182 31.1222 41.4529 30.3583 42.5348 29.8694C43.6168 29.3804 44.808 29.1835 45.9899 29.2983C46.9512 29.3755 47.8885 29.6383 48.7497 30.0722C49.3281 30.3607 49.8616 30.7313 50.3338 31.1726C50.4584 31.2933 50.5769 31.42 50.689 31.5524C50.7328 31.596 50.771 31.6449 50.8027 31.698C50.1739 31.0889 49.4551 30.58 48.6715 30.1893C47.8183 29.7847 46.8966 29.5439 45.9544 29.4794C44.8051 29.3801 43.6497 29.5785 42.5996 30.0554C41.5494 30.5323 40.6399 31.2716 39.9588 32.202C39.3877 32.9525 38.9635 33.804 38.7085 34.7117C38.487 35.5507 38.396 36.4187 38.4386 37.2853Z" fill="#263238"/>
<path d="M66.8073 112.217L63.8451 101.423L54.9299 101.92L49.6802 107.858V107.887L33.0362 107.155V117.361C33.0362 117.361 43.1519 120.375 49.5879 118.891L49.9182 112.146L53.5482 117.698C57.8282 117.201 62.2681 115.192 66.8073 112.217Z" fill="#263238"/>
<path d="M33.8922 117.578C33.8389 117.578 33.8141 115.49 33.8354 112.913C33.8567 110.336 33.9136 108.249 33.9633 108.249C34.0131 108.249 34.0415 110.34 34.0202 112.913C33.9989 115.487 33.942 117.578 33.8922 117.578Z" fill="white"/>
<path d="M35.3414 118.106C35.2881 118.106 35.2313 115.937 35.2135 113.265C35.1957 110.592 35.2135 108.419 35.2668 108.416C35.3201 108.412 35.377 110.584 35.3983 113.261C35.4196 115.937 35.3912 118.106 35.3414 118.106Z" fill="white"/>
<path d="M65.8661 112.665C65.8164 112.665 65.1735 110.695 64.4454 108.235C63.7173 105.775 63.1418 103.769 63.188 103.755C63.2342 103.741 63.8806 105.721 64.6088 108.181C65.3369 110.641 65.9159 112.65 65.8661 112.665Z" fill="white"/>
<path d="M68.0825 61.0439L63.1098 57.8491C60.5845 62.6732 52.0067 60.6889 51.2182 54.7679C51.2182 54.7679 46.4125 55.7334 42.9246 56.4682C41.5855 56.7522 39.5184 58.0443 38.6872 59.1305C36.7657 61.6438 33.6471 64.9273 32.0062 67.0536C27.9215 72.3463 29.9887 77.0924 29.9887 77.0924C29.9887 77.0924 34.0343 71.8387 36.1157 71.1465C38.1971 70.4543 39.0566 75.4737 39.0566 75.4737C37.8064 79.0838 35.5048 83.5849 34.3007 89.6727C32.0239 101.355 31.6829 107.823 31.6829 107.823C31.6829 107.823 44.8675 110.574 48.4335 108.888C51.9996 107.202 60.6804 102.672 65.035 103.861C65.035 103.861 65.5322 99.6014 63.3514 97.6242C63.3514 97.6242 63.465 92.7539 61.9555 91.0962L63.3336 79.634C63.7787 80.3944 64.4335 81.0106 65.2197 81.4089C67.0808 82.1969 71.9682 82.7933 71.9682 82.7933C71.9682 82.7933 72.1174 76.1801 72.1742 70.8341C72.2417 64.1499 68.0931 61.051 68.0825 61.0439Z" fill="#DF8063"/>
<path d="M40.4529 64.8599C40.5026 64.8599 40.396 66.8016 40.2076 69.1871C40.0193 71.5725 39.8309 73.5036 39.7812 73.5C39.7314 73.4965 39.8381 71.5583 40.0228 69.1729C40.2076 66.7874 40.4031 64.8386 40.4529 64.8599Z" fill="#263238"/>
<path d="M66.065 67.1566C66.0604 67.3266 66.0378 67.4955 65.9975 67.6607C65.9336 68.0157 65.8483 68.4736 65.7489 69.0202C65.5287 70.1704 65.2126 71.7536 64.8538 73.5001C64.4951 75.2465 64.1434 76.8262 63.9055 77.9692L63.5965 79.3181C63.5661 79.4851 63.5209 79.649 63.4615 79.808C63.4657 79.638 63.4883 79.469 63.529 79.3039C63.5929 78.9489 63.6782 78.491 63.7776 77.9408C63.9978 76.7942 64.3139 75.211 64.6727 73.461C65.0314 71.711 65.383 70.1349 65.621 68.9954C65.7418 68.4523 65.8483 67.9979 65.9265 67.6465C65.956 67.4789 66.0024 67.3148 66.065 67.1566Z" fill="#263238"/>
<path d="M63.3727 97.5178C63.2866 97.528 63.1995 97.528 63.1134 97.5178L62.3711 97.4361C62.0514 97.4078 61.6607 97.3936 61.1954 97.3652H60.4602C60.1866 97.3572 59.9127 97.3631 59.6397 97.3829C58.2875 97.4442 56.9438 97.6307 55.6261 97.9402C54.0102 98.316 52.4297 98.8302 50.9021 99.4773C49.3777 100.129 47.896 100.876 46.4658 101.714C45.2943 102.43 43.9802 102.882 42.6156 103.038C42.0925 103.091 41.5652 103.091 41.0421 103.038C40.6491 102.994 40.2605 102.917 39.8807 102.807C39.6373 102.74 39.3998 102.653 39.1703 102.548C39.0885 102.516 39.011 102.474 38.9394 102.424C39.0229 102.449 39.1047 102.48 39.1845 102.516C39.4165 102.604 39.6538 102.677 39.8949 102.736C40.2737 102.833 40.6597 102.9 41.0492 102.935C41.5649 102.978 42.0836 102.971 42.5978 102.913C43.9385 102.744 45.2266 102.286 46.3735 101.572C47.8114 100.715 49.304 99.9538 50.8417 99.2927C52.3744 98.636 53.9624 98.1169 55.587 97.7414C56.9154 97.436 58.2702 97.2601 59.6326 97.2161C59.9238 97.2161 60.2009 97.2161 60.4602 97.2161C60.7195 97.2161 60.9716 97.2161 61.2025 97.2338C61.6607 97.2764 62.0585 97.2977 62.3782 97.3403L63.117 97.4574C63.2035 97.4717 63.2889 97.4919 63.3727 97.5178Z" fill="#263238"/>
<path d="M57.9667 76.4712C57.9203 76.5296 57.8679 76.5832 57.8105 76.6309L57.331 77.0675C56.9118 77.4438 56.3116 77.994 55.5834 78.6862C53.6848 80.4869 51.8849 82.3888 50.1917 84.3836C48.5033 86.3829 46.9229 88.4708 45.4571 90.6383C44.8959 91.4725 44.4519 92.1541 44.1535 92.6297L43.7983 93.1729C43.7598 93.2369 43.7158 93.2974 43.6669 93.3539C43.6923 93.2823 43.727 93.2143 43.7699 93.1516L44.0896 92.5907C44.3702 92.1044 44.8 91.4122 45.3505 90.5673C46.7858 88.3725 48.3551 86.2682 50.0496 84.2665C51.7432 82.2617 53.5606 80.3648 55.4911 78.5869C56.2334 77.9053 56.8443 77.3693 57.267 77.0108L57.7678 76.599C57.8275 76.5468 57.8945 76.5037 57.9667 76.4712Z" fill="#263238"/>
<path d="M62.673 71.427C62.0106 71.3269 61.3589 71.1652 60.7265 70.9442C60.0747 70.7812 59.4387 70.5602 58.8263 70.2839C59.4899 70.3838 60.1427 70.5454 60.7763 70.7667C61.4269 70.93 62.0616 71.151 62.673 71.427Z" fill="white"/>
<path d="M62.0691 70.3805C61.3784 70.4181 60.6969 70.2077 60.1476 69.787C60.4764 69.8556 60.7985 69.9531 61.1101 70.0784C61.4385 70.1489 61.7596 70.25 62.0691 70.3805Z" fill="white"/>
<g opacity="0.3">
<path d="M52.8521 71.8601C51.8895 70.9797 50.3658 71.4163 49.151 71.9027L42.0225 74.7638C40.3247 75.4453 39.4473 75.7577 38.3605 77.2273L37.8277 78.6472C38.5504 78.8813 39.314 78.9624 40.0699 78.8854C40.8257 78.8083 41.5572 78.5749 42.2178 78.2C43.3864 77.5291 44.3134 76.4251 45.5992 76.0346C46.6647 75.708 47.8333 75.9459 48.9557 76.0346C50.2024 76.1233 51.5557 75.9814 52.5076 75.1756C53.4595 74.3698 53.772 72.7085 52.8521 71.8601Z" fill="black"/>
</g>
<g opacity="0.3">
<path d="M45.5246 93.5101C47.5811 92.6652 49.6483 91.7849 51.4065 90.4324C53.2534 89.0125 54.7523 86.9785 55.0152 84.6641C51.644 87.3821 48.4723 90.3384 45.5246 93.5101Z" fill="black"/>
</g>
<g opacity="0.3">
<path d="M65.8199 68.502C65.2623 71.8813 64.3352 75.6441 63.5005 78.9667C65.2907 76.0949 66.1289 71.8707 65.8199 68.502Z" fill="black"/>
</g>
<path d="M46.9347 68.715L32.4715 71.9595C31.3667 72.433 30.4796 73.3031 29.9852 74.3981C29.7152 74.9874 29.8182 76.528 29.9852 77.096C30.454 78.7218 30.5712 79.5063 32.5283 80.0458C34.4854 80.5854 48.0606 73.1664 48.0606 73.1664L46.9347 68.715Z" fill="#D5B298"/>
<path d="M45.2972 69.3717L48.4939 67.043C48.4939 67.043 52.9231 65.6231 53.6903 65.8822C54.4575 66.1414 55.4378 66.5922 54.7168 67.6323C54.7168 67.6323 55.7823 68.5481 55.3561 69.148C54.9299 69.7479 54.049 69.7089 54.049 69.7089C54.049 69.7089 55.3313 70.2378 54.9015 71.0259C54.4717 71.8139 53.9993 71.6293 53.9993 71.6293C53.9993 71.6293 54.2373 72.2079 53.8714 72.3677C53.3154 72.5243 52.7476 72.6359 52.1737 72.7013C52.1737 72.7013 50.3267 73.9686 49.1013 74.2277C48.2354 74.3648 47.3496 74.3016 46.512 74.0432L45.2972 69.3717Z" fill="#D5B298"/>
<path d="M52.2625 68.1618C52.5966 67.9145 52.9784 67.7391 53.3837 67.6467C53.789 67.5543 54.2091 67.547 54.6173 67.6252C54.6173 67.6785 54.0704 67.675 53.4239 67.8242C52.7775 67.9735 52.2873 68.208 52.2625 68.1618Z" fill="#A7775F"/>
</svg>
