<svg width="520" height="540" viewBox="0 0 520 540" fill="none" xmlns="http://www.w3.org/2000/svg">
<path d="M69.2964 261.999H25.1735V275.836H69.2964V261.999Z" fill="#EBEBEB"/>
<path d="M378.973 150.723H334.85V164.56H378.973V150.723Z" fill="#EBEBEB"/>
<path d="M44.6876 293.283C37.3338 293.407 18.7987 293.716 11.6958 293.79H0.564714H0V293.222V279.385V278.766H0.627459L22.6889 278.853C28.1729 278.853 39.2538 279.014 44.7503 279.088H45.0515V279.385L44.7629 293.222L44.6876 293.283ZM44.6876 293.283L44.3864 279.447L44.6876 279.743C39.1785 279.818 28.1227 279.929 22.6262 279.978L0.564714 280.065L1.19217 279.447V293.283L0.614912 292.715L11.5452 292.776C18.5351 292.851 37.4969 293.16 44.7378 293.283H44.6876Z" fill="#EBEBEB"/>
<path d="M254.485 385.096C247.131 385.22 228.596 385.529 221.493 385.603H210.362H209.797V385.047V371.21V370.591H210.424L232.486 370.678C237.982 370.678 249.051 370.839 254.547 370.913H254.848V371.21L254.547 385.047L254.485 385.096ZM254.485 385.096L254.183 371.259L254.485 371.544C248.988 371.63 237.932 371.741 232.423 371.791L210.362 371.877L210.989 371.259V385.096L210.412 384.527H221.342C228.345 384.614 247.306 384.923 254.535 385.047L254.485 385.096Z" fill="#EBEBEB"/>
<path d="M229.876 402.544C222.522 402.667 203.987 402.976 196.884 403.051H185.753H185.188V402.494L185.125 388.657V388.138H185.753L207.814 388.225C213.311 388.225 224.379 388.385 229.876 388.459H230.177V388.756L229.876 402.593V402.544ZM229.876 402.544L229.575 388.707L229.876 388.991L218.845 389.127C211.843 389.226 192.994 389.3 185.753 389.325L186.38 388.707V402.544L185.803 401.975H196.733C203.723 402.061 222.698 402.37 229.926 402.494L229.876 402.544Z" fill="#EBEBEB"/>
<path d="M205.367 371.259H161.244V385.096H205.367V371.259Z" fill="#EBEBEB"/>
<path d="M519.699 279.447H475.576V293.283H519.699V279.447Z" fill="#EBEBEB"/>
<path d="M495.09 22.0372H450.967V35.874H495.09V22.0372Z" fill="#EBEBEB"/>
<path d="M519.699 53.3215C512.345 53.4452 493.81 53.7543 486.707 53.8408H475.576H475.011V53.272L474.949 39.4352V38.8169H475.576L497.638 38.9035C503.134 38.9035 514.202 39.0642 519.699 39.1508H520V39.4352L519.699 53.272V53.3215ZM519.699 53.3215L519.398 39.4352L519.699 39.732C514.19 39.8062 503.147 39.9298 497.638 39.9669L475.576 40.0535L476.204 39.4352V53.272L475.626 52.7156H486.557C493.559 52.7898 512.521 53.1113 519.749 53.2226L519.699 53.3215Z" fill="#EBEBEB"/>
<path d="M69.2967 35.874C61.9429 35.9977 43.4078 36.3068 36.305 36.3933H25.1738H24.6091V35.8245V21.9877V21.3694H25.2366L47.298 21.456C52.7946 21.456 63.8629 21.6168 69.3595 21.7033H69.6607V21.9877L69.3595 35.8245L69.2967 35.874ZM69.2967 35.874L68.9956 22.0372L69.2967 22.3339C63.7876 22.4081 52.7318 22.5318 47.2353 22.5689L25.1738 22.6554L25.8013 22.0372V35.874L25.224 35.3176H36.1544C43.1443 35.3917 62.1061 35.7133 69.3469 35.8245L69.2967 35.874Z" fill="#EBEBEB"/>
<path d="M5.93594 451.387C168.787 450.62 351.477 450.62 514.328 451.387C351.477 452.141 168.787 452.141 5.93594 451.387Z" fill="#263238"/>
<path d="M260.132 501.058C318.676 501.058 366.135 492.649 366.135 482.275C366.135 471.902 318.676 463.492 260.132 463.492C201.588 463.492 154.129 471.902 154.129 482.275C154.129 492.649 201.588 501.058 260.132 501.058Z" fill="#455A64"/>
<path opacity="0.1" d="M366.135 482.263C366.135 484.613 363.713 486.851 359.27 488.928C281.855 475.326 235.096 485.008 202.77 498.066C173.505 494.715 154.129 488.891 154.129 482.263C154.129 471.901 201.59 463.493 260.132 463.493C318.674 463.493 366.135 471.901 366.135 482.263Z" fill="black"/>
<path d="M150.389 482.275C151.155 474.757 168.31 471.147 174.609 469.44C221.368 459.548 269.983 459.968 317.381 464.778C387.544 472.643 387.744 491.871 317.381 500.106C269.958 504.867 221.342 504.929 174.572 495.16C168.096 493.404 151.155 489.818 150.352 482.325L150.389 482.275ZM150.515 482.275C151.268 489.583 168.485 493.231 174.685 494.777C193.358 498.758 212.458 500.341 231.507 501.219C260.115 502.599 288.789 501.842 317.281 498.956C386.54 491.302 386.778 473.261 317.281 465.236C279.252 461.506 240.938 461.559 202.92 465.397C193.433 466.329 184.007 467.782 174.685 469.749C168.31 471.332 151.305 474.943 150.515 482.263V482.275Z" fill="#455A64"/>
<path d="M373.074 482.275C372.334 490.498 355.43 494.529 348.616 496.545C300.377 507.797 249.804 507.303 200.774 501.85C129.043 492.996 128.842 471.567 200.774 462.342C240.196 457.61 280.059 457.677 319.464 462.54C329.304 463.757 339.057 465.578 348.666 467.993C355.643 470.046 372.334 474.028 373.124 482.275H373.074ZM372.949 482.275C372.17 474.201 355.292 470.17 348.528 468.315C329.277 463.752 309.475 461.934 289.748 460.896C260.102 459.303 230.374 460.163 200.874 463.468C130.022 472.123 129.796 492.378 200.874 501.355C240.249 505.652 279.988 505.602 319.351 501.207C329.183 500.147 338.939 498.495 348.566 496.261C355.468 494.381 372.196 490.35 372.986 482.312L372.949 482.275Z" fill="#455A64"/>
<path d="M373.075 482.275C372.46 457.755 372.447 430.774 373.075 406.266C373.689 430.774 373.689 457.755 373.075 482.275Z" fill="#455A64"/>
<path d="M292.359 461.427C291.744 436.919 291.731 409.938 292.359 385.418C292.986 409.938 292.973 436.919 292.359 461.427Z" fill="#455A64"/>
<path d="M147.189 482.275C146.574 441.977 146.574 396.757 147.189 356.458C147.804 396.757 147.804 441.977 147.189 482.275Z" fill="#455A64"/>
<path d="M362.746 474.127C362.131 443.832 362.119 409.827 362.746 379.519C363.361 409.827 363.349 443.819 362.746 474.127Z" fill="#455A64"/>
<path d="M204.577 456.147C203.949 437.785 203.962 418.495 204.577 400.108C205.204 418.495 205.217 437.785 204.577 456.147Z" fill="#455A64"/>
<path d="M322.878 464.976C322.263 442.484 322.263 417.741 322.878 395.248C323.505 417.741 323.492 442.484 322.878 464.976Z" fill="#455A64"/>
<path d="M168.975 471.641C168.36 441.334 168.347 407.341 168.975 377.034C169.59 407.329 169.577 441.334 168.975 471.641Z" fill="#455A64"/>
<path d="M373.074 370.48C373.714 379.88 373.714 389.311 373.074 398.71C372.428 389.311 372.428 379.879 373.074 370.48V370.48Z" fill="#455A64"/>
<path d="M185.414 427.93C186.054 437.329 186.054 446.76 185.414 456.16C184.768 446.76 184.768 437.329 185.414 427.93V427.93Z" fill="#455A64"/>
<path d="M348.139 412.226C348.779 421.63 348.779 431.065 348.139 440.468C347.493 431.065 347.493 421.629 348.139 412.226Z" fill="#455A64"/>
<path d="M223.614 431.417C224.26 440.816 224.26 450.248 223.614 459.647C222.974 450.248 222.974 440.816 223.614 431.417Z" fill="#455A64"/>
<path d="M311.27 429.339C311.916 438.743 311.916 448.178 311.27 457.582C310.63 448.178 310.63 438.743 311.27 429.339V429.339Z" fill="#455A64"/>
<path d="M303.653 496.174C306.664 495.803 329.78 492.823 317.708 488.891C311.132 486.776 301.093 486.195 294.165 485.429C302.134 485.861 310.191 486.022 317.896 488.31C319.502 488.792 323.367 490.362 321.146 492.366C319.45 493.492 317.529 494.246 315.512 494.579C311.603 495.394 307.64 495.927 303.653 496.174V496.174Z" fill="white"/>
<path d="M281.717 497.163C287.276 496.743 292.797 496.582 298.369 496.619C292.856 497.412 287.271 497.595 281.717 497.163V497.163Z" fill="white"/>
<path d="M251.473 495.061C255.22 495.265 258.947 495.723 262.629 496.434C258.86 496.567 255.094 496.103 251.473 495.061V495.061Z" fill="white"/>
<path d="M281.716 485.132C274.864 485.379 268.025 485.651 261.211 486.294C257.797 486.591 254.397 486.987 251.033 487.531C248.16 488.112 245.035 488.458 242.55 490.091C242.371 490.206 242.22 490.359 242.107 490.539C241.994 490.718 241.923 490.92 241.898 491.129C241.912 490.914 241.973 490.704 242.077 490.514C242.18 490.324 242.325 490.159 242.5 490.029C244.909 488.211 248.059 487.729 250.946 487.061C254.321 486.393 257.735 485.998 261.148 485.664C267.986 485.064 274.855 484.878 281.716 485.107V485.132Z" fill="white"/>
<path d="M297.516 494.084C299.424 493.8 316.34 491.982 307.417 489.917C302.046 488.606 296.186 488.421 290.677 487.803C296.951 488.075 303.603 487.803 309.639 490.016C314.658 493.219 299.122 494.072 297.516 494.084V494.084Z" fill="white"/>
<path d="M281.717 494.664C285.692 494.132 289.715 494.025 293.714 494.344C289.738 494.869 285.716 494.977 281.717 494.664Z" fill="white"/>
<path d="M259.944 493.441C262.646 493.276 265.359 493.544 267.975 494.233C265.272 494.392 262.561 494.125 259.944 493.441V493.441Z" fill="white"/>
<path d="M281.716 487.63C276.847 488.087 271.953 488.001 267.096 488.495C263.256 488.94 257.145 488.94 253.619 490.511C253.477 490.564 253.35 490.651 253.25 490.762C253.149 490.874 253.078 491.009 253.041 491.154C253.067 491.001 253.127 490.855 253.219 490.729C253.31 490.602 253.43 490.498 253.568 490.424C257.685 488.334 262.529 488.458 267.046 487.877C271.915 487.457 276.835 487.593 281.716 487.63Z" fill="white"/>
<path d="M341.425 276.85C341.425 276.85 355.48 300.95 364.955 314.292C374.43 327.634 384.833 356.718 386.841 359.537C388.849 362.356 392.362 502.332 392.362 502.332C392.362 502.332 369.347 505.151 364.528 505.411C359.709 505.671 336.757 511.519 336.757 511.519L383.189 507.81L364.666 511.519C364.666 511.519 395.562 510.196 397.043 510.073C398.524 509.949 409.429 510.617 409.956 510.233C410.483 509.85 412.115 507.501 411.638 506.524C411.161 505.547 402.452 501.949 402.452 501.949C402.452 501.949 405.338 365.176 405.15 362.777C404.962 360.378 407.66 356.792 406.104 354.405C404.548 352.019 399.415 349.781 398.649 348.074C397.884 346.368 390.618 300.703 389.865 280.189C389.576 271.125 346.106 264.138 341.425 276.85Z" fill="#FFC727"/>
<path opacity="0.7" d="M341.425 276.85C341.425 276.85 355.48 300.95 364.955 314.292C374.43 327.634 384.833 356.718 386.841 359.537C388.849 362.356 392.362 502.332 392.362 502.332C392.362 502.332 369.347 505.151 364.528 505.411C359.709 505.671 336.757 511.519 336.757 511.519L383.189 507.81L364.666 511.519C364.666 511.519 395.562 510.196 397.043 510.073C398.524 509.949 409.429 510.617 409.956 510.233C410.483 509.85 412.115 507.501 411.638 506.524C411.161 505.547 402.452 501.949 402.452 501.949C402.452 501.949 405.338 365.176 405.15 362.777C404.962 360.378 407.66 356.792 406.104 354.405C404.548 352.019 399.415 349.781 398.649 348.074C397.884 346.368 390.618 300.703 389.865 280.189C389.576 271.125 346.106 264.138 341.425 276.85Z" fill="white"/>
<path d="M392.915 310.941L347.123 286.433C343.735 280.844 341.426 276.875 341.426 276.875C346.107 264.126 389.564 271.125 389.916 280.201C390.204 288.065 391.447 299.602 392.915 310.941Z" fill="#FFC727"/>
<path d="M398.813 386.691C398.813 386.691 401.134 386.951 404.824 387.273C404.824 387.075 404.824 386.877 404.824 386.691H398.813ZM380.729 345.663C380.93 346.121 381.131 346.578 381.319 347.036C384.986 346.865 388.632 346.406 392.224 345.663H380.729ZM391.446 298.749C391.446 298.749 391.446 298.613 391.446 298.551H384.921C384.921 298.551 385.937 298.675 387.707 298.836L391.471 299.182C391.484 299.033 391.459 298.897 391.446 298.749V298.749ZM369.059 320.908C369.172 321.13 369.297 321.353 369.423 321.576C370.677 321.39 371.932 321.167 373.112 320.908H369.059ZM394.157 320.24H390.819C390.819 320.24 392.074 320.388 394.195 320.586L394.157 320.24ZM395.588 330.132H382.662C382.662 330.132 388.184 330.763 395.776 331.245C395.663 330.837 395.663 330.466 395.663 330.095L395.588 330.132ZM364.717 314.057L364.93 314.354L365.344 314.948L365.758 315.554C370.396 315.468 375.016 314.967 379.562 314.057H364.717ZM394.659 402.729C394.659 402.729 398.549 403.076 404.498 403.446C404.498 403.199 404.498 402.977 404.498 402.729H394.659ZM396.428 447.665C398.792 448.204 401.185 448.617 403.594 448.902C403.594 448.518 403.594 448.098 403.594 447.665H396.428ZM370.414 308.431C370.414 308.431 378.508 312.017 382.599 308.431H370.414ZM392.25 407.465C392.25 407.465 400.331 411.051 404.422 407.465H392.25ZM387.807 368.786C387.807 369.306 387.882 369.837 387.908 370.382C391.012 370.481 394.103 369.938 396.981 368.786H387.807ZM388.184 375.414C388.184 375.526 388.184 375.624 388.184 375.736L390.555 375.365L388.184 375.414ZM391.948 486.542C391.948 486.739 391.948 486.95 391.948 487.148C393.442 486.974 394.86 486.764 396.202 486.542H391.948ZM396.78 432.282C396.78 432.282 399.515 432.517 403.933 432.814C403.933 432.641 403.933 432.456 403.933 432.282H396.78ZM391.609 473.867C391.609 474.139 391.609 474.399 391.609 474.659C393.718 474.436 395.713 474.176 397.533 473.867H391.609ZM391.346 464.865V466.102C395.102 465.898 398.843 465.485 402.552 464.865H391.346Z" fill="#FFC727"/>
<path d="M370.125 276.85C370.125 276.85 391.547 303.102 401.021 316.419C410.496 329.736 431.516 356.693 433.536 359.512C435.557 362.332 465.938 502.357 465.938 502.357C465.938 502.357 442.923 505.176 438.104 505.436C433.285 505.695 410.32 511.544 410.32 511.544L456.752 507.835L438.242 511.544C438.242 511.544 469.138 510.221 470.619 510.097C472.1 509.974 483.005 510.642 483.532 510.258C484.059 509.875 485.678 507.525 485.201 506.549C484.724 505.572 476.028 501.973 476.028 501.973C476.028 501.973 452.134 365.2 451.896 362.801C451.657 360.403 454.406 356.817 452.85 354.43C451.293 352.044 446.148 349.805 445.383 348.099C444.617 346.393 419.381 300.727 418.615 280.213C418.251 271.125 374.819 264.138 370.125 276.85Z" fill="#FFC727"/>
<path opacity="0.7" d="M370.125 276.85C370.125 276.85 391.547 303.102 401.021 316.419C410.496 329.736 431.516 356.693 433.536 359.512C435.557 362.332 465.938 502.357 465.938 502.357C465.938 502.357 442.923 505.176 438.104 505.436C433.285 505.695 410.32 511.544 410.32 511.544L456.752 507.835L438.242 511.544C438.242 511.544 469.138 510.221 470.619 510.097C472.1 509.974 483.005 510.642 483.532 510.258C484.059 509.875 485.678 507.525 485.201 506.549C484.724 505.572 476.028 501.973 476.028 501.973C476.028 501.973 452.134 365.2 451.896 362.801C451.657 360.403 454.406 356.817 452.85 354.43C451.293 352.044 446.148 349.805 445.383 348.099C444.617 346.393 419.381 300.727 418.615 280.213C418.251 271.125 374.819 264.138 370.125 276.85Z" fill="white"/>
<path d="M455.899 386.691H451.77C451.77 386.691 453.339 386.865 455.962 387.1C455.999 386.964 455.974 386.827 455.899 386.691ZM422.857 345.663C423.175 346.059 423.476 346.471 423.761 346.9C426.568 346.681 429.357 346.268 432.106 345.663H422.857ZM422.317 297.29C422.309 297.262 422.309 297.232 422.317 297.203L422.204 296.882H415.742C415.742 296.882 417.611 297.092 420.686 297.377L422.443 297.525C422.408 297.45 422.383 297.371 422.368 297.29H422.317ZM402.603 318.744C402.854 319.102 403.13 319.486 403.418 319.857L403.569 320.067C406.973 319.876 410.359 319.434 413.696 318.744H402.603ZM438.594 335.041H433.323C433.323 335.041 435.444 335.289 438.87 335.573C438.82 335.4 438.732 335.227 438.644 335.041H438.594ZM399.202 314.02C399.578 314.527 399.942 315.022 400.281 315.504C404.789 315.403 409.278 314.907 413.696 314.02H399.202ZM458.798 403.409C458.635 403.162 458.446 402.94 458.258 402.692H447.642C447.642 402.692 452.097 403.088 458.823 403.496C458.823 403.496 458.886 403.434 458.848 403.409H458.798ZM469.289 463.493H463.19C463.19 463.493 465.537 463.691 469.377 463.963C469.402 463.814 469.377 463.653 469.339 463.493H469.289ZM474.108 490.968C474.108 490.746 474.02 490.511 473.982 490.276H465.599C468.441 490.912 471.32 491.366 474.221 491.636L474.108 490.968ZM470.431 469.947H460.655C463.96 470.677 467.316 471.165 470.694 471.406C470.644 470.986 470.556 470.467 470.481 469.972L470.431 469.947ZM425.015 304.709C424.915 304.462 424.827 304.227 424.739 303.98H408.35C412.871 305.043 417.506 305.567 422.154 305.538L423.259 305.476C423.911 305.476 424.513 305.377 425.191 305.29L425.015 304.709ZM445.257 407.465C445.257 407.465 453.351 411.051 457.443 407.465H445.257ZM381.859 291.466L383.114 293.024C385.693 293.162 388.28 292.996 390.819 292.529C391.448 292.415 392.069 292.258 392.676 292.059C393.204 291.901 393.72 291.707 394.22 291.478L381.859 291.466ZM436.059 368.786C436.147 369.145 436.234 369.504 436.335 369.875L436.41 370.196C440.991 370.579 446.349 370.493 449.988 368.786H436.059ZM437.652 375.414C437.652 375.662 437.778 375.934 437.841 376.193C439.886 375.983 441.819 375.723 443.601 375.414H437.652ZM463.88 432.295H449.8L450.553 432.357C452.41 432.505 457.443 432.913 464.018 433.259C463.993 432.926 463.93 432.653 463.88 432.283V432.295ZM451.645 437.241L451.758 437.736C452.887 437.587 453.954 437.426 454.995 437.241H451.645ZM462.174 484.934C462.249 485.297 462.324 485.643 462.399 485.973C465.487 485.726 468.36 485.392 470.933 484.934H462.174ZM453.615 446.033C453.703 446.404 453.778 446.775 453.866 447.146C457.317 446.886 460.53 446.527 463.378 446.033H453.615Z" fill="#FFC727"/>
<path d="M300.151 351.4C300.151 360.996 300.076 370.064 299.925 378.604C299.348 412.658 297.729 438.675 296.06 457.384C294.303 477.02 292.471 488.619 291.718 492.996C286.761 493.268 281.679 493.478 276.408 493.614C277.274 489.521 279.834 476.674 282.131 456.691C284.897 431.885 286.275 406.948 286.259 381.992C286.259 376.626 286.201 371.111 286.084 365.447C286 360.946 285.862 356.355 285.67 351.672C285.67 351.561 285.67 351.462 285.67 351.351L300.151 351.4Z" fill="#FFC727"/>
<path opacity="0.7" d="M300.151 351.4C300.151 360.996 300.076 370.064 299.925 378.604C299.348 412.658 297.729 438.675 296.06 457.384C294.303 477.02 292.471 488.619 291.718 492.996C286.761 493.268 281.679 493.478 276.408 493.614C277.274 489.521 279.834 476.674 282.131 456.691C284.897 431.885 286.275 406.948 286.259 381.992C286.259 376.626 286.201 371.111 286.084 365.447C286 360.946 285.862 356.355 285.67 351.672C285.67 351.561 285.67 351.462 285.67 351.351L300.151 351.4Z" fill="white"/>
<path d="M278.153 467.425C280.372 466.213 282.048 464.222 282.846 461.848C283.086 461.04 283.25 460.212 283.335 459.375C283.335 459.251 283.16 459.239 283.135 459.375C282.931 460.148 282.645 460.898 282.281 461.613C281.945 462.323 281.55 463.006 281.102 463.653C280.232 464.944 279.17 466.099 277.952 467.078C277.776 467.276 277.964 467.536 278.153 467.425Z" fill="#FFC727"/>
<path d="M283.172 454.354C284.325 453.825 285.288 452.962 285.933 451.881C286.25 451.356 286.502 450.796 286.686 450.212C286.895 449.651 286.989 449.054 286.962 448.456C286.962 448.357 286.811 448.37 286.773 448.456C286.535 448.963 286.384 449.507 286.133 450.026C285.88 450.538 285.582 451.026 285.242 451.486C284.916 451.931 284.577 452.364 284.213 452.722C283.824 453.162 283.405 453.575 282.959 453.959C282.905 453.987 282.865 454.034 282.848 454.091C282.83 454.148 282.836 454.209 282.864 454.262C282.893 454.314 282.941 454.353 282.999 454.371C283.056 454.388 283.119 454.382 283.172 454.354V454.354Z" fill="white"/>
<path d="M294.667 454.429C295.296 455.611 296.282 456.57 297.49 457.174C297.56 457.213 297.643 457.224 297.721 457.205C297.799 457.187 297.866 457.139 297.91 457.072C297.953 457.006 297.969 456.925 297.954 456.848C297.939 456.77 297.894 456.701 297.829 456.654C296.942 455.812 296.104 454.92 295.319 453.983C294.55 453.015 293.975 451.912 293.625 450.731C293.625 450.632 293.412 450.67 293.437 450.731C293.6 452.031 294.017 453.286 294.667 454.429Z" fill="#FFC727"/>
<path d="M291.505 444.351C291.613 444.896 291.76 445.433 291.944 445.958C292.137 446.933 292.709 447.794 293.538 448.357C293.952 448.567 294.216 447.962 293.839 447.727C293.501 447.483 293.236 447.154 293.074 446.775C292.855 446.373 292.659 445.96 292.484 445.538C292.308 445.08 292.12 444.623 291.969 444.153C291.819 443.683 291.681 443.176 291.505 442.706C291.505 442.68 291.494 442.655 291.475 442.636C291.457 442.618 291.431 442.607 291.405 442.607C291.378 442.607 291.352 442.618 291.334 442.636C291.315 442.655 291.304 442.68 291.304 442.706C291.309 443.26 291.376 443.812 291.505 444.351V444.351Z" fill="white"/>
<path d="M300.188 442.706C300.527 442.818 300.653 442.311 300.377 442.15C297.783 440.796 295.836 438.491 294.955 435.732C294.955 435.621 294.755 435.658 294.767 435.732C294.899 437.284 295.48 438.766 296.441 440.002C297.401 441.238 298.702 442.177 300.188 442.706V442.706Z" fill="#FFC727"/>
<path d="M296.336 435.003C296.575 435.25 297.001 434.867 296.788 434.607C295.502 433.167 294.832 431.293 294.918 429.377C294.918 429.35 294.908 429.325 294.889 429.307C294.87 429.288 294.844 429.278 294.818 429.278C294.791 429.278 294.766 429.288 294.747 429.307C294.728 429.325 294.717 429.35 294.717 429.377C294.537 430.374 294.589 431.399 294.87 432.373C295.15 433.348 295.652 434.247 296.336 435.003V435.003Z" fill="white"/>
<path d="M282.394 439.751C283.667 439.285 284.786 438.486 285.632 437.439C286.492 436.39 287.132 435.184 287.514 433.89C287.514 433.766 287.376 433.729 287.326 433.89C286.843 435.079 286.121 436.16 285.205 437.068C284.775 437.502 284.323 437.915 283.85 438.304C283.335 438.712 282.771 439.034 282.231 439.405C282.043 439.467 282.131 439.825 282.394 439.751Z" fill="#FFC727"/>
<path d="M283.523 442.706C284.113 442.239 284.647 441.708 285.117 441.124C285.572 440.53 285.991 439.911 286.372 439.269C286.377 439.248 286.376 439.227 286.368 439.207C286.36 439.188 286.345 439.171 286.327 439.16C286.309 439.149 286.288 439.144 286.266 439.146C286.245 439.148 286.225 439.156 286.209 439.17C285.331 440.354 284.33 441.443 283.222 442.422C283.184 442.461 283.163 442.514 283.164 442.568C283.165 442.623 283.188 442.675 283.228 442.713C283.268 442.75 283.322 442.771 283.377 442.77C283.432 442.768 283.485 442.746 283.523 442.706V442.706Z" fill="#FFC727"/>
<path d="M281.541 425.37C282.911 424.519 284.056 423.357 284.879 421.982C285.696 420.451 286.32 418.827 286.736 417.147C286.736 417.036 286.585 416.986 286.548 417.147C285.978 418.695 285.25 420.182 284.377 421.586C283.518 422.889 282.484 424.07 281.302 425.098C281.291 425.132 281.289 425.169 281.296 425.204C281.303 425.24 281.32 425.273 281.344 425.3C281.368 425.327 281.398 425.348 281.433 425.361C281.467 425.373 281.504 425.376 281.541 425.37V425.37Z" fill="#FFC727"/>
<path d="M282.319 429.178C283.27 428.462 284.068 427.567 284.665 426.545C285.246 425.515 285.669 424.407 285.92 423.255C285.92 423.132 285.77 423.107 285.732 423.255C285.338 424.328 284.798 425.344 284.126 426.273C283.493 427.191 282.784 428.055 282.005 428.857C281.792 429.018 282.093 429.352 282.319 429.178Z" fill="#FFC727"/>
<path d="M292.383 427.076C292.509 427.237 292.823 427.076 292.722 426.903C291.441 424.734 290.81 422.252 290.902 419.744C290.902 419.62 290.727 419.583 290.714 419.744C290.451 422.242 290.639 425.049 292.383 427.076Z" fill="white"/>
<path d="M299.034 417.308C299.086 417.339 299.146 417.353 299.207 417.347C299.267 417.341 299.324 417.316 299.368 417.275C299.412 417.234 299.441 417.18 299.451 417.121C299.461 417.063 299.452 417.002 299.423 416.949C298.304 415.415 297.277 413.817 296.349 412.164C295.449 410.472 294.75 408.684 294.266 406.834C294.266 406.723 294.077 406.773 294.077 406.834C294.273 410.831 296.053 414.591 299.034 417.308V417.308Z" fill="#FFC727"/>
<path d="M295.872 419.138C296.073 419.286 296.411 419.039 296.211 418.829C295.677 418.281 295.213 417.67 294.83 417.011C294.454 416.321 294.239 415.556 294.203 414.773C294.203 414.649 294.002 414.674 294.002 414.773C293.952 415.593 294.095 416.414 294.419 417.171C294.743 417.928 295.241 418.601 295.872 419.138V419.138Z" fill="white"/>
<path d="M287.326 409.79C289.917 406.964 291.27 403.244 291.091 399.44C291.091 399.341 290.915 399.329 290.902 399.44C290.305 403.046 289.028 406.51 287.138 409.654C287.05 409.777 287.226 409.889 287.326 409.79Z" fill="#FFC727"/>
<path d="M290.25 411.632C290.454 411.263 290.618 410.873 290.739 410.47C290.851 410.09 290.931 409.701 290.977 409.308C290.977 408.924 291.053 408.541 291.053 408.158C291.053 407.774 291.053 407.762 291.053 407.564C291.034 407.321 291.034 407.077 291.053 406.835C291.053 406.686 290.827 406.699 290.865 406.835C290.89 407.048 290.89 407.264 290.865 407.478L290.789 408.071C290.726 408.454 290.664 408.85 290.576 409.233C290.488 409.617 290.388 410 290.287 410.383C290.187 410.767 290.099 411.15 289.986 411.521C289.873 411.892 290.25 411.805 290.25 411.632Z" fill="white"/>
<path d="M300.139 397.672C300.377 397.783 300.616 397.449 300.402 397.288C298.203 395.304 296.649 392.722 295.935 389.869C295.935 389.77 295.734 389.807 295.746 389.869C296.286 392.911 297.114 396.287 300.139 397.672Z" fill="#FFC727"/>
<path d="M302.297 388.521C302.345 388.514 302.39 388.492 302.425 388.459C302.461 388.426 302.485 388.382 302.494 388.335C302.504 388.288 302.499 388.239 302.479 388.195C302.459 388.151 302.427 388.114 302.385 388.088C301.048 387.664 299.78 387.052 298.62 386.271C297.439 385.435 296.5 384.31 295.897 383.006C295.897 382.895 295.671 383.006 295.721 383.006C296.625 385.813 299.21 388.435 302.297 388.521Z" fill="#FFC727"/>
<path d="M280.211 394.828C282.311 393.484 284.094 391.71 285.439 389.628C286.783 387.546 287.658 385.203 288.004 382.759C288.009 382.744 288.011 382.728 288.009 382.712C288.007 382.696 288.001 382.681 287.992 382.668C287.983 382.655 287.97 382.644 287.956 382.637C287.942 382.63 287.926 382.626 287.909 382.626C287.893 382.626 287.877 382.63 287.863 382.637C287.849 382.644 287.836 382.655 287.827 382.668C287.818 382.681 287.812 382.696 287.81 382.712C287.808 382.728 287.81 382.744 287.815 382.759C286.562 387.416 283.815 391.549 279.985 394.543C279.967 394.577 279.959 394.615 279.962 394.653C279.966 394.691 279.98 394.728 280.004 394.758C280.028 394.788 280.06 394.81 280.097 394.823C280.133 394.835 280.173 394.837 280.211 394.828V394.828Z" fill="#FFC727"/>
<path d="M283.298 398.426C284.722 397.812 285.937 396.807 286.799 395.533C287.72 394.308 288.366 392.904 288.694 391.415C288.686 391.393 288.672 391.374 288.653 391.361C288.634 391.347 288.611 391.34 288.587 391.34C288.564 391.34 288.541 391.347 288.522 391.361C288.503 391.374 288.488 391.393 288.481 391.415C287.97 392.803 287.237 394.101 286.31 395.261C285.862 395.821 285.367 396.342 284.829 396.819C284.277 397.326 283.687 397.783 283.147 398.278C283.047 398.315 283.172 398.463 283.298 398.426Z" fill="white"/>
<path d="M284.502 404.015C285.613 402.865 286.298 401.379 286.447 399.799C286.447 399.675 286.284 399.65 286.259 399.799C286.067 400.529 285.797 401.238 285.456 401.913C285.085 402.581 284.665 403.221 284.201 403.83C284.176 403.869 284.168 403.917 284.179 403.962C284.189 404.007 284.218 404.046 284.258 404.071C284.298 404.095 284.346 404.103 284.392 404.093C284.438 404.083 284.477 404.055 284.502 404.015V404.015Z" fill="#FFC727"/>
<path d="M292.76 388.596C292.86 388.769 293.161 388.596 293.086 388.422C292.711 387.51 292.405 386.572 292.17 385.615C291.943 384.639 291.858 383.635 291.919 382.635C291.919 382.524 291.731 382.512 291.718 382.635C291.391 384.681 291.757 386.776 292.76 388.596V388.596Z" fill="#FFC727"/>
<path d="M300.916 375.958C301.217 376.045 301.33 375.625 301.079 375.476C299.916 374.865 298.875 374.053 298.005 373.077C297.138 372.052 296.589 370.803 296.424 369.479C296.424 369.453 296.413 369.428 296.394 369.409C296.375 369.39 296.35 369.38 296.323 369.38C296.297 369.38 296.271 369.39 296.252 369.409C296.233 369.428 296.223 369.453 296.223 369.479C296.348 372.199 298.13 375.254 300.916 375.958Z" fill="#FFC727"/>
<path d="M283.197 374.276C285.6 372.41 287.476 369.966 288.643 367.179C288.653 367.167 288.659 367.154 288.663 367.139C288.666 367.125 288.666 367.11 288.663 367.096C288.66 367.081 288.653 367.068 288.644 367.056C288.635 367.045 288.623 367.035 288.61 367.029C288.596 367.022 288.582 367.018 288.567 367.018C288.552 367.018 288.537 367.021 288.523 367.027C288.51 367.033 288.498 367.042 288.488 367.053C288.478 367.065 288.471 367.078 288.468 367.092C287.007 369.668 285.144 372.001 282.946 374.004C282.783 374.153 283.021 374.4 283.197 374.276Z" fill="#FFC727"/>
<path d="M284.64 376.712C285.908 375.317 286.919 373.714 287.627 371.976C287.629 371.956 287.624 371.935 287.614 371.917C287.603 371.899 287.586 371.885 287.567 371.876C287.547 371.868 287.526 371.866 287.505 371.871C287.484 371.875 287.465 371.886 287.451 371.902C286.523 373.497 285.393 374.957 284.364 376.477C284.346 376.514 284.34 376.556 284.348 376.597C284.357 376.637 284.378 376.674 284.41 376.701C284.441 376.728 284.481 376.743 284.523 376.745C284.565 376.748 284.606 376.736 284.64 376.712V376.712Z" fill="#FFC727"/>
<path d="M303.163 365.139C303.351 365.139 303.502 364.866 303.276 364.792C302.044 364.475 300.893 363.91 299.893 363.133C298.893 362.356 298.067 361.385 297.466 360.279C297.466 360.168 297.227 360.217 297.277 360.279C298.231 362.727 300.415 364.99 303.163 365.139Z" fill="#FFC727"/>
<path d="M299.285 360.168C299.612 360.588 299.973 360.981 300.365 361.342C300.766 361.705 301.208 362.02 301.682 362.282C301.871 362.393 302.021 362.084 301.833 361.973C301.397 361.71 300.978 361.421 300.578 361.107C300.163 360.8 299.784 360.447 299.449 360.056C299.361 359.97 299.198 360.069 299.285 360.168Z" fill="#FFC727"/>
<path d="M283.975 365.88C285.522 364.942 286.671 363.484 287.213 361.775C287.221 361.752 287.22 361.727 287.209 361.705C287.199 361.683 287.18 361.666 287.156 361.658C287.145 361.654 287.133 361.652 287.12 361.652C287.108 361.653 287.096 361.656 287.085 361.661C287.063 361.672 287.045 361.69 287.037 361.713C286.43 363.341 285.303 364.73 283.825 365.67C283.661 365.782 283.799 365.992 283.975 365.88Z" fill="#FFC727"/>
<path d="M295.997 473.162C296.027 473.188 296.061 473.208 296.099 473.221C296.136 473.234 296.176 473.239 296.216 473.237C296.255 473.235 296.294 473.225 296.33 473.208C296.366 473.19 296.398 473.167 296.424 473.137C296.45 473.108 296.471 473.074 296.484 473.037C296.497 473 296.502 472.961 296.5 472.922C296.497 472.883 296.487 472.845 296.47 472.81C296.453 472.775 296.428 472.743 296.399 472.717C295.113 471.4 293.977 469.949 293.011 468.389C292.078 466.784 291.436 465.031 291.116 463.208C291.116 463.097 290.915 463.109 290.927 463.208C291.078 466.942 292.76 470.986 295.997 473.162Z" fill="#FFC727"/>
<path d="M290.777 475.821C290.812 475.862 290.862 475.887 290.916 475.892C290.97 475.897 291.024 475.88 291.065 475.845C291.107 475.811 291.133 475.762 291.138 475.708C291.142 475.655 291.126 475.602 291.091 475.561C289.823 474.044 289.095 472.158 289.02 470.194C289.02 470.168 289.009 470.143 288.991 470.125C288.972 470.106 288.946 470.096 288.92 470.096C288.893 470.096 288.867 470.106 288.849 470.125C288.83 470.143 288.819 470.168 288.819 470.194C288.713 471.216 288.833 472.248 289.171 473.219C289.509 474.191 290.057 475.078 290.777 475.821V475.821Z" fill="white"/>
<path d="M281.654 478.405C284.261 475.43 285.886 471.742 286.309 467.833C286.309 467.721 286.146 467.684 286.121 467.833C284.957 471.458 283.356 474.933 281.353 478.182C281.24 478.306 281.465 478.578 281.654 478.405Z" fill="#FFC727"/>
<path d="M282.482 483.574C283.105 482.782 283.604 481.902 283.962 480.965C284.293 480.03 284.5 479.058 284.577 478.071C284.583 478.056 284.585 478.04 284.583 478.024C284.581 478.008 284.575 477.993 284.566 477.98C284.556 477.967 284.544 477.956 284.53 477.949C284.515 477.942 284.499 477.938 284.483 477.938C284.467 477.938 284.451 477.942 284.437 477.949C284.422 477.956 284.41 477.967 284.401 477.98C284.392 477.993 284.386 478.008 284.384 478.024C284.382 478.04 284.383 478.056 284.389 478.071C284.192 479.013 283.897 479.933 283.511 480.816C283.134 481.7 282.684 482.552 282.168 483.364C282.14 483.405 282.129 483.455 282.138 483.504C282.148 483.552 282.176 483.595 282.218 483.623C282.26 483.651 282.311 483.662 282.36 483.652C282.41 483.643 282.453 483.615 282.482 483.574Z" fill="white"/>
<path d="M275.756 479.642C277.085 478.919 278.249 477.935 279.175 476.75C280.101 475.565 280.77 474.205 281.139 472.754C281.139 472.731 281.13 472.709 281.114 472.693C281.097 472.677 281.075 472.668 281.051 472.668C281.028 472.668 281.006 472.677 280.989 472.693C280.973 472.709 280.964 472.731 280.964 472.754C280.41 474.098 279.648 475.35 278.705 476.464C277.749 477.536 276.685 478.509 275.53 479.37C275.519 479.403 275.517 479.438 275.524 479.472C275.531 479.507 275.546 479.539 275.568 479.566C275.591 479.593 275.62 479.614 275.652 479.627C275.685 479.64 275.721 479.645 275.756 479.642Z" fill="#FFC727"/>
<path d="M276.634 494.245C277.849 493.419 278.833 492.305 279.495 491.005C280.207 489.736 280.691 488.356 280.926 486.925C280.926 486.814 280.775 486.776 280.738 486.925C280.309 488.263 279.71 489.543 278.956 490.733C278.215 491.97 277.249 492.934 276.446 494.047C276.439 494.073 276.439 494.101 276.446 494.127C276.453 494.153 276.466 494.177 276.485 494.197C276.504 494.217 276.527 494.232 276.553 494.24C276.579 494.248 276.607 494.25 276.634 494.245V494.245Z" fill="white"/>
<path d="M292.76 491.549C292.935 491.648 293.199 491.426 293.023 491.253C291.607 489.939 290.378 488.441 289.371 486.801C288.379 485.129 287.751 483.272 287.527 481.348C287.52 481.329 287.507 481.313 287.49 481.301C287.473 481.29 287.453 481.283 287.433 481.283C287.412 481.283 287.392 481.29 287.375 481.301C287.358 481.313 287.346 481.329 287.339 481.348C287.477 485.243 289.271 489.534 292.76 491.549Z" fill="#FFC727"/>
<path d="M291.505 485.082C291.75 485.459 292.031 485.811 292.346 486.133C292.675 486.461 293.051 486.741 293.462 486.962C293.713 487.11 293.977 486.752 293.726 486.591C292.244 485.668 291.175 484.221 290.739 482.547C290.739 482.521 290.729 482.496 290.71 482.478C290.691 482.459 290.665 482.449 290.639 482.449C290.612 482.449 290.587 482.459 290.568 482.478C290.549 482.496 290.538 482.521 290.538 482.547C290.681 483.449 291.01 484.311 291.505 485.082V485.082Z" fill="#FFC727"/>
<path d="M446.675 287.843C473.468 291.688 498.491 269.183 505.142 255.47C511.793 241.757 516.361 222.925 514.491 218.213C512.621 213.502 499.947 238.282 499.947 238.282C499.947 238.282 512.408 195.708 508.053 189.365C503.699 183.022 482.503 229.862 482.503 229.862C482.503 229.862 491.928 196.648 487.41 195.968C480.094 194.868 465.838 236.86 465.838 236.86C465.838 236.86 470.029 219.425 465.675 220.452C458.71 222.109 436.824 286.433 446.675 287.843Z" fill="#263238"/>
<path d="M446.675 287.843C463.88 290.205 480.771 281.969 493.107 270.606C497.299 266.809 500.912 262.436 503.836 257.622C506.46 252.647 508.623 247.449 510.299 242.091C512.086 236.774 513.417 231.318 514.277 225.781C514.717 223.41 514.717 220.98 514.277 218.609C513.637 215.951 509.258 222.987 508.668 223.803C505.644 228.539 502.958 233.497 500.385 238.48L499.532 238.159C501.402 231.123 512.257 192.852 507.062 189.353C505.807 189.625 504.765 190.96 503.862 191.962C499.996 196.809 497.085 202.361 494.111 207.79C490.208 215.11 486.581 222.628 483.093 230.121L482.001 229.738C483.846 223.147 485.527 216.507 486.845 209.817C487.557 206.498 488.006 203.128 488.188 199.74C488.188 198.676 488.263 197.267 487.548 196.525C483.946 196.018 479.441 205.626 477.872 208.482C473.405 217.728 469.491 227.225 466.151 236.922L465.649 236.774C470.393 216.421 465.536 215.023 457.354 234.152C454.117 240.867 438.091 285.246 446.738 287.793L446.675 287.843ZM446.675 287.843C437.991 285.37 453.941 240.756 457.103 234.128C465.31 214.17 470.82 216.309 466.089 236.947L465.587 236.811C468.845 227.041 472.679 217.466 477.069 208.136C478.542 205.002 480.284 201.999 482.277 199.159C483.256 197.614 484.668 196.381 486.343 195.61C491.476 194.076 488.125 207.555 487.849 210.015C486.594 216.767 484.875 223.419 483.055 230.035L481.976 229.651C485.427 222.072 489.054 214.578 492.956 207.208C496.583 200.89 499.695 193.916 505.204 188.908C513.7 183.714 507.25 211.042 506.622 214.257C504.84 222.381 502.707 230.418 500.348 238.406L499.507 238.072C500.762 236.069 512.734 212.018 514.867 218.411C515.333 220.863 515.333 223.379 514.867 225.831C513.006 236.959 509.368 247.726 504.087 257.733C492.367 276.046 469.264 290.86 446.7 287.806L446.675 287.843Z" fill="#455A64"/>
<path d="M505.141 255.47C503.029 259.527 500.351 263.273 497.185 266.599C504.627 258.067 511.404 233.954 508.304 232.903C505.204 231.852 494.55 249.646 494.55 249.646C494.55 249.646 498.064 227.648 493.483 226.523C488.903 225.398 478.914 242.833 478.914 242.833C478.914 242.833 479.416 225.311 476.404 225.62C473.392 225.929 464.382 246.913 464.382 246.913C464.382 246.913 464.62 234.412 461.872 234.548C459.124 234.684 452.962 246.715 450.578 251.859C455.597 236.254 462.286 221.342 465.637 220.575C469.878 219.574 466.013 236.069 465.812 236.947C466.289 235.562 480.181 195.004 487.372 196.141C491.777 196.797 482.917 228.378 482.478 229.973C483.331 228.13 503.736 183.281 508.015 189.513C512.294 195.746 500.235 237.293 499.908 238.406C500.272 237.726 512.608 213.675 514.44 218.374C516.273 223.073 511.793 241.757 505.141 255.47Z" fill="#EBEBEB"/>
<path d="M285.682 347.036C278.391 353.28 273.133 367.661 275.153 370.381C277.174 373.102 282.419 359.933 282.419 359.933C282.419 359.933 276.647 388.633 282.03 388.435C285.532 388.311 288.769 373.102 288.769 373.102C288.769 373.102 289.961 396.67 296.035 395.359C300.716 394.333 297.29 372.978 297.29 372.978C297.29 372.978 301.833 385.133 305.334 383.724C308.835 382.314 301.833 364.285 301.833 364.285C301.833 364.285 305.334 371.197 307.279 369.59C309.224 367.982 304.857 351.277 300.101 347.048C295.345 342.819 285.682 347.036 285.682 347.036Z" fill="#EBEBEB"/>
<path d="M285.732 355.085C285.92 360.032 285.531 367.908 287.15 367.71C288.769 367.513 289.798 355.085 289.798 355.085C289.798 355.085 290.802 371.915 292.433 371.915C294.064 371.915 295.896 356.891 295.896 356.891C295.896 356.891 296.549 367.5 298.406 367.105C300.264 366.709 301.443 322.663 300.841 308.987C300.088 291.565 312.788 287.36 332.101 288.362C351.414 289.364 415.038 292.764 432.494 292.566C449.95 292.368 466.377 288.164 466.854 285.555C467.331 282.946 441.04 215.246 417.247 196.018C393.454 176.79 357.488 159.379 312.361 162.396C267.234 165.413 257.923 177.235 262.553 212.266C265.063 231.296 279.683 270.074 284.201 305.513C287.012 327.548 285.292 343.709 285.732 355.085Z" fill="#263238"/>
<path d="M341.827 194.336C330.771 206.306 330.67 221.255 357.689 256.163C384.707 291.07 420.912 313.649 425.379 313.241C429.847 312.833 416.595 299.429 416.595 299.429C416.595 299.429 444.04 325.26 447.892 323.467C451.745 321.674 435.343 295.423 435.343 295.423C435.343 295.423 446.374 307.788 448.683 305.834C450.992 303.881 437.389 279.793 437.389 279.793C437.389 279.793 443.663 289.611 446.336 288.449C450.252 286.643 442.722 241.992 426.345 215.493C409.969 188.994 351.188 184.221 341.827 194.336Z" fill="#263238"/>
<path d="M341.827 194.336C333.206 203.165 333.532 214.356 338.238 225.027C342.567 235.166 348.98 244.292 355.593 253.109C369.007 270.712 384.885 286.353 402.753 299.565C408.619 304.049 414.862 308.033 421.414 311.473C423.522 312.413 427.613 314.502 425.078 310.236C422.514 306.449 419.571 302.923 416.294 299.714L416.997 299.108C423.547 305.154 430.211 311.114 437.213 316.642C440.028 319.005 443.105 321.046 446.387 322.725C447.002 322.997 447.792 323.096 447.842 322.886C448.023 322.336 448.023 321.743 447.842 321.192C446.839 317.689 445.428 314.311 443.638 311.127C440.903 305.909 437.903 300.789 434.854 295.744L435.82 295.039C438.899 298.677 442.399 301.947 446.249 304.783C446.826 305.13 447.792 305.686 448.319 305.451C448.671 304.054 447.667 302.038 447.215 300.604C444.213 293.558 440.793 286.692 436.975 280.04L437.803 279.558C438.669 280.918 445.621 291.082 446.587 287.15C446.983 284.386 446.983 281.581 446.587 278.816C445.73 271.308 444.329 263.87 442.396 256.558C438.543 241.98 433.511 227.463 425.467 214.59C421.226 208.297 414.913 203.61 408.174 200.098C394.546 193.149 379.098 189.885 363.801 189.501C359.964 189.414 356.127 189.65 352.331 190.206C348.566 190.861 344.575 191.665 341.802 194.361L341.827 194.336ZM341.827 194.336C344.588 191.628 348.641 190.8 352.343 190.119C356.147 189.549 359.992 189.292 363.838 189.353C385.009 189.86 413.069 196.302 425.894 214.306C434.063 227.215 439.158 241.732 443.111 256.348C443.977 259.662 453.74 298.279 442.321 286.816C440.324 284.726 438.534 282.453 436.975 280.028L437.791 279.533C441.67 286.208 445.144 293.103 448.194 300.183C448.933 301.789 449.358 303.517 449.449 305.278C448.043 310.657 436.536 297.512 434.854 295.781L435.82 295.077C438.531 299.701 451.231 319.523 448.646 323.517C445.496 327.634 420.008 302.929 416.281 299.676L416.997 299.108C420.287 302.387 423.23 305.987 425.781 309.853C430.637 319.374 413.646 308.011 411.4 306.552C383.563 287.891 360.204 263.459 342.956 234.969C335.502 222.133 329.755 206.454 341.789 194.336H341.827Z" fill="#455A64"/>
<path d="M435.344 295.398C435.795 296.115 451.758 321.649 447.893 323.418C444.028 325.186 418.553 301.222 416.708 299.503C417.963 300.74 429.571 312.821 425.329 313.204C421.828 313.525 398.825 299.701 376.049 276.924C386.088 286.186 405.263 298.093 408.375 297.945C411.488 297.797 408.501 288.943 408.375 288.572C408.89 288.98 426.07 302.545 430.073 301.482C434.076 300.418 427.036 282.736 427.036 282.736C427.036 282.736 435.933 291.391 437.954 290.884C439.974 290.377 431.943 270.828 431.679 270.284C431.88 270.494 439.008 278.012 441.355 277.344C445.119 276.269 443.4 259.65 443.4 259.65L443.676 260.231C447.303 275.366 448.294 287.435 446.286 288.374C443.839 289.512 438.079 280.955 437.414 279.867C438.355 281.561 450.879 303.88 448.708 305.834C446.537 307.788 435.82 295.855 435.344 295.398Z" fill="#EBEBEB"/>
<path d="M260.132 42.2051C318.676 42.2051 366.135 33.7957 366.135 23.4221C366.135 13.0486 318.676 4.63916 260.132 4.63916C201.588 4.63916 154.129 13.0486 154.129 23.4221C154.129 33.7957 201.588 42.2051 260.132 42.2051Z" fill="#FFC727"/>
<path opacity="0.1" d="M154.129 23.4221C154.129 21.0727 156.551 18.8345 160.994 16.7572C238.409 30.359 285.168 20.677 317.494 7.61917C346.721 10.9949 366.135 16.7943 366.135 23.4221C366.135 33.7842 318.674 42.1927 260.132 42.1927C201.59 42.1927 154.129 33.7842 154.129 23.4221Z" fill="black"/>
<path d="M150.389 23.4221C151.155 15.904 168.31 12.2933 174.609 10.5993C221.368 0.706977 269.983 1.11503 317.381 5.92515C387.544 13.8019 387.744 33.0176 317.381 41.2653C269.958 46.0136 221.342 46.0754 174.572 36.3192C168.096 34.5633 151.155 30.9897 150.352 23.4839L150.389 23.4221ZM150.515 23.4221C151.268 30.7424 168.485 34.3778 174.685 35.9235C193.358 39.9051 212.458 41.4879 231.507 42.3782C260.116 43.754 288.789 42.9934 317.281 40.103C386.54 32.4488 386.778 14.4201 317.281 6.39503C279.252 2.66675 240.939 2.71647 202.92 6.54342C193.421 7.48414 183.983 8.94135 174.647 10.9084C168.272 12.4912 151.268 16.1018 150.477 23.4221H150.515Z" fill="#FFC727"/>
<path d="M373.074 23.4221C372.384 31.6451 355.506 35.7256 348.666 37.6917C300.427 48.9442 249.854 48.4496 200.825 43.0088C129.094 34.1429 128.893 12.7137 200.825 3.50155C240.246 -1.22844 280.108 -1.16615 319.515 3.68703C329.353 4.90968 339.106 6.73086 348.717 9.14015C355.694 11.1928 372.384 15.1868 373.175 23.4221H373.074ZM372.949 23.4221C372.171 15.3475 355.292 11.3288 348.528 9.47401C329.278 4.9112 309.475 3.09349 289.748 2.0548C260.102 0.465795 230.374 1.33028 200.875 4.63916C130.022 13.2949 129.796 33.537 200.875 42.5266C240.25 46.8113 279.987 46.7616 319.351 42.3782C329.183 41.3188 338.939 39.667 348.566 37.4321C355.468 35.5525 372.196 31.5214 372.987 23.4716L372.949 23.4221Z" fill="#FFC727"/>
<path d="M147.189 24.906C147.804 49.4265 147.817 76.4077 147.189 100.916C146.574 76.4077 146.574 49.4265 147.189 24.906Z" fill="#FFC727"/>
<path d="M227.906 45.7415C228.52 70.262 228.533 97.2432 227.906 121.751C227.278 97.2432 227.291 70.262 227.906 45.7415Z" fill="#FFC727"/>
<path d="M373.074 24.906C373.689 65.2047 373.689 110.425 373.074 150.723C372.459 110.425 372.459 65.2047 373.074 24.906Z" fill="#FFC727"/>
<path d="M157.517 33.0548C158.132 63.3499 158.145 97.3546 157.517 127.662C156.903 97.3546 156.915 63.3623 157.517 33.0548V33.0548Z" fill="#FFC727"/>
<path d="M315.687 51.0216C316.314 69.3841 316.302 88.6741 315.687 107.049C315.06 88.6741 315.047 69.3841 315.687 51.0216Z" fill="#FFC727"/>
<path d="M197.449 42.205C198.064 64.6852 198.064 89.4407 197.449 111.933C196.821 89.4407 196.834 64.6852 197.449 42.205V42.205Z" fill="#FFC727"/>
<path d="M351.289 35.5401C351.904 65.8352 351.917 99.8399 351.289 130.147C350.674 99.8523 350.687 65.8476 351.289 35.5401V35.5401Z" fill="#FFC727"/>
<path d="M147.189 136.701C146.549 127.301 146.549 117.87 147.189 108.471C147.835 117.87 147.835 127.302 147.189 136.701Z" fill="#FFC727"/>
<path d="M334.85 79.2517C334.21 69.8522 334.21 60.421 334.85 51.0216C335.496 60.4208 335.496 69.8524 334.85 79.2517Z" fill="#FFC727"/>
<path d="M172.124 94.9432C171.484 85.5438 171.484 76.1126 172.124 66.7132C172.771 76.1124 172.771 85.544 172.124 94.9432V94.9432Z" fill="#FFC727"/>
<path d="M296.65 75.777C296.004 66.3778 296.004 56.9462 296.65 47.5469C297.29 56.9464 297.29 66.3776 296.65 75.777V75.777Z" fill="#FFC727"/>
<path d="M208.994 77.8296C208.347 68.4304 208.347 58.9988 208.994 49.5995C209.634 58.999 209.634 68.4302 208.994 77.8296V77.8296Z" fill="#FFC727"/>
<path d="M307.819 22.7297C310.831 22.3588 333.934 19.3663 321.874 15.4465C315.298 13.3197 305.259 12.7385 298.332 11.9842C306.3 12.4046 314.344 12.5778 322.062 14.8654C323.668 15.3476 327.534 16.9056 325.312 18.9212C323.616 20.0474 321.695 20.8021 319.678 21.1346C315.769 21.9498 311.806 22.4829 307.819 22.7297Z" fill="white"/>
<path d="M285.82 23.7189C291.38 23.2985 296.901 23.1254 302.473 23.1748C296.96 23.9677 291.374 24.1502 285.82 23.7189V23.7189Z" fill="white"/>
<path d="M255.577 21.6168C259.323 21.8203 263.051 22.2789 266.733 22.9893C262.964 23.1222 259.197 22.6588 255.577 21.6168V21.6168Z" fill="white"/>
<path d="M285.82 11.6874C278.968 11.9348 272.129 12.2068 265.315 12.8498C261.901 13.1466 258.501 13.5422 255.137 14.0863C252.264 14.6551 249.139 15.0137 246.642 16.6459C246.468 16.7628 246.321 16.9147 246.21 17.0916C246.1 17.2685 246.029 17.4664 246.002 17.6723C246.015 17.4598 246.075 17.2527 246.176 17.0649C246.278 16.8772 246.42 16.7132 246.592 16.5841C249.001 14.7664 252.163 14.2842 255.05 13.6164C258.425 12.9487 261.839 12.553 265.252 12.2068C272.09 11.6113 278.959 11.4296 285.82 11.6627V11.6874Z" fill="white"/>
<path d="M301.619 20.6399C303.527 20.3555 320.443 18.5378 311.521 16.4604C306.15 15.1621 300.289 14.9642 294.78 14.3583C301.055 14.6304 307.706 14.3583 313.742 16.5717C318.762 19.762 303.226 20.6276 301.619 20.6399V20.6399Z" fill="white"/>
<path d="M285.82 21.22C289.783 20.6853 293.792 20.5736 297.779 20.8868C293.808 21.413 289.79 21.5205 285.795 21.2076L285.82 21.22Z" fill="white"/>
<path d="M264.048 19.9845C266.751 19.8303 269.462 20.1016 272.079 20.7883C269.375 20.9491 266.663 20.6777 264.048 19.9845V19.9845Z" fill="white"/>
<path d="M285.82 14.1852C280.951 14.6428 276.057 14.5562 271.188 15.0508C267.36 15.496 261.249 15.4836 257.71 17.054C257.471 17.2024 257.183 17.3879 257.145 17.697C257.172 17.5477 257.233 17.4061 257.322 17.2822C257.411 17.1583 257.526 17.0551 257.66 16.9798C261.788 14.8901 266.632 15.0137 271.137 14.4325C276.019 14.0121 280.926 14.1358 285.82 14.1852V14.1852Z" fill="white"/>
<path d="M294.015 17.0292C292.082 28.4919 289.409 42.5142 287.364 52.9629C287.05 54.5457 286.761 56.0419 286.473 57.4392C286.184 58.8364 285.92 60.2832 285.669 61.495C285.669 61.6063 285.669 61.7052 285.607 61.8041C285.506 62.3482 285.393 62.8675 285.306 63.3498C285.218 63.832 285.155 64.067 285.092 64.4009C285.029 64.7347 285.004 64.8089 284.967 65.0067L284.352 68.061L270.058 66.3175V66.1567C270.159 65.5879 270.548 63.56 271.125 60.5058C271.188 60.2214 271.238 59.9246 271.301 59.6155L271.451 58.8241C271.514 58.4284 271.589 58.0327 271.677 57.5875C271.916 56.351 272.167 54.929 272.443 53.4452C274.35 43.2066 276.998 28.6155 278.981 16.3491C284.189 16.4975 289.208 16.7324 294.015 17.0292Z" fill="#FFC727"/>
<path opacity="0.7" d="M294.015 17.0292C292.082 28.4919 289.409 42.5142 287.364 52.9629C287.05 54.5457 286.761 56.0419 286.473 57.4392C286.184 58.8364 285.92 60.2832 285.669 61.495C285.669 61.6063 285.669 61.7052 285.607 61.8041C285.506 62.3482 285.393 62.8675 285.306 63.3498C285.218 63.832 285.155 64.067 285.092 64.4009C285.029 64.7347 285.004 64.8089 284.967 65.0067L284.352 68.061L270.058 66.3175V66.1567C270.159 65.5879 270.548 63.56 271.125 60.5058C271.188 60.2214 271.238 59.9246 271.301 59.6155L271.451 58.8241C271.514 58.4284 271.589 58.0327 271.677 57.5875C271.916 56.351 272.167 54.929 272.443 53.4452C274.35 43.2066 276.998 28.6155 278.981 16.3491C284.189 16.4975 289.208 16.7324 294.015 17.0292Z" fill="white"/>
<path d="M286.485 57.4391C285.23 63.8444 284.352 68.061 284.352 68.061L270.058 66.3174C270.058 66.3174 270.711 62.9293 271.702 57.6617L286.485 57.4391Z" fill="#FFC727"/>
<path d="M292.408 48.0909C290.771 48.5805 289.265 49.4256 288.003 50.564C287.396 51.2137 286.907 51.9627 286.56 52.7774C286.384 53.1978 286.196 53.6182 286.046 54.0139C285.846 54.5219 285.616 55.0175 285.355 55.4978C285.293 55.6091 285.468 55.6956 285.531 55.5843C285.733 55.15 285.977 54.7359 286.259 54.3478L287.087 53.2597C287.571 52.575 288.095 51.9185 288.656 51.2936C289.839 50.1905 291.169 49.2504 292.609 48.499C292.641 48.4624 292.661 48.4175 292.667 48.3698C292.674 48.322 292.665 48.2735 292.644 48.2301C292.623 48.1868 292.589 48.1506 292.547 48.1258C292.505 48.1011 292.457 48.089 292.408 48.0909Z" fill="#FFC727"/>
<path d="M290.89 44.8389C289.701 45.5175 288.663 46.426 287.84 47.5098C287.434 48.0412 287.065 48.5989 286.736 49.1791C286.424 49.7697 286.156 50.3812 285.933 51.0092C285.933 51.1205 286.071 51.1823 286.121 51.0834C286.441 50.5123 286.793 49.9592 287.175 49.4264C287.553 48.8848 287.973 48.3722 288.43 47.8931C289.291 46.9214 290.217 46.0084 291.203 45.1604C291.329 44.9996 291.078 44.7152 290.89 44.8389Z" fill="white"/>
<path d="M271.526 36.7643C271.213 36.6406 270.962 37.1229 271.213 37.3207C273.848 39.4352 276.057 42.2669 276.232 45.6797C276.232 45.7059 276.243 45.7311 276.262 45.7497C276.281 45.7682 276.306 45.7786 276.333 45.7786C276.359 45.7786 276.385 45.7682 276.404 45.7497C276.423 45.7311 276.433 45.7059 276.433 45.6797C276.797 42.1432 275.078 38.075 271.526 36.7643Z" fill="#FFC727"/>
<path d="M281.064 35.9359C280.886 34.6619 280.297 33.4782 279.383 32.5602C279.344 32.5267 279.296 32.5063 279.245 32.5018C279.194 32.4974 279.143 32.5092 279.1 32.5356C279.056 32.5619 279.022 32.6013 279.003 32.6481C278.984 32.6948 278.981 32.7464 278.993 32.7951C279.47 33.886 279.889 35.0003 280.248 36.1338C280.406 36.7015 280.519 37.2802 280.587 37.8649C280.587 38.174 280.587 38.4708 280.65 38.7799C280.625 39.0473 280.625 39.3163 280.65 39.5837C280.66 39.599 280.674 39.6116 280.691 39.6202C280.707 39.6289 280.725 39.6335 280.744 39.6335C280.763 39.6335 280.781 39.6289 280.798 39.6202C280.814 39.6116 280.828 39.599 280.838 39.5837C281.075 39.0279 281.194 38.4305 281.19 37.8278C281.221 37.1945 281.179 36.5598 281.064 35.9359V35.9359Z" fill="white"/>
<path d="M293.375 27.5151C291.605 28.4529 290.087 29.7919 288.946 31.4216C287.805 33.0512 287.073 34.9249 286.812 36.888C286.812 37.024 287 37.0735 287.05 36.9498C287.752 35.2082 288.648 33.5492 289.723 32.0037C290.852 30.4673 292.157 29.0648 293.613 27.8242C293.777 27.6511 293.563 27.4285 293.375 27.5151Z" fill="#FFC727"/>
<path d="M289.585 25.3016C288.698 25.9633 288.002 26.8412 287.564 27.8489C287.34 28.3309 287.159 28.8316 287.025 29.3451C286.862 29.8748 286.773 30.4239 286.761 30.9773C286.761 31.1009 286.937 31.1133 286.987 30.9773C287.15 30.495 287.251 29.9881 287.439 29.5182C287.633 29.0201 287.864 28.5365 288.129 28.0714C288.618 27.1688 289.271 26.3774 289.848 25.5118C289.949 25.3882 289.735 25.1903 289.585 25.3016Z" fill="white"/>
<path d="M281.39 25.3264C281.298 24.4482 281.082 23.5868 280.75 22.7667C280.067 21.1431 278.898 19.763 277.4 18.8098C277.224 18.6985 277.036 18.9582 277.186 19.0942C278.322 20.1629 279.26 21.4182 279.96 22.8038C280.3 23.4856 280.573 24.1978 280.775 24.9307C280.888 25.3374 280.976 25.7503 281.039 26.1672C281.039 26.5011 281.24 27.107 281.039 27.4037C280.964 27.5027 281.039 27.6263 281.177 27.5398C281.277 27.4248 281.354 27.2912 281.401 27.1468C281.449 27.0024 281.466 26.8501 281.453 26.6989C281.47 26.2405 281.449 25.7815 281.39 25.3264V25.3264Z" fill="#FFC727"/>
<path d="M279.684 52.5055C279.617 51.6419 279.255 50.8262 278.655 50.1932C278.466 50.0324 278.103 50.1932 278.203 50.4652C278.546 51.1386 278.836 51.8373 279.069 52.555C279.261 53.3065 279.303 54.0875 279.194 54.8549C279.194 54.9539 279.332 55.0404 279.37 54.9291C279.673 54.1585 279.781 53.3265 279.684 52.5055Z" fill="white"/>
<path d="M273.284 51.9366C272.715 51.014 271.954 50.2215 271.05 49.6119C270.849 49.4759 270.686 49.7726 270.811 49.921C271.464 50.7056 272.064 51.5317 272.606 52.3941C273.147 53.2449 273.634 54.1288 274.062 55.0403C274.062 55.1392 274.287 55.0403 274.275 54.9661C274.173 53.897 273.835 52.8629 273.284 51.9366V51.9366Z" fill="#FFC727"/>
<path d="M298.218 104.662C296.75 107.63 300.339 119.328 297.403 122.172C289.321 130.011 273.095 130.011 264.147 128.354C255.2 126.698 240.091 120.935 235.435 110.697C233.753 106.987 241.396 97.3916 241.132 94.1025C240.869 90.8133 233.214 88.5504 235.535 77.2361C237.857 65.9218 250.343 60.4564 257.522 60.0359C270.554 59.4778 283.543 61.8809 295.483 67.0595C302.008 70.0271 311.646 79.5856 309.638 90.9493C307.63 102.313 299.674 101.707 298.218 104.662Z" fill="#FFC727"/>
<path opacity="0.7" d="M298.218 104.662C296.75 107.63 300.339 119.328 297.403 122.172C289.321 130.011 273.095 130.011 264.147 128.354C255.2 126.698 240.091 120.935 235.435 110.697C233.753 106.987 241.396 97.3916 241.132 94.1025C240.869 90.8133 233.214 88.5504 235.535 77.2361C237.857 65.9218 250.343 60.4564 257.522 60.0359C270.554 59.4778 283.543 61.8809 295.483 67.0595C302.008 70.0271 311.646 79.5856 309.638 90.9493C307.63 102.313 299.674 101.707 298.218 104.662Z" fill="white"/>
<path d="M296.412 96.0933L243.818 86.4236C244.483 84.4946 261.299 76.1357 272.606 78.2254C283.913 80.3152 296.525 94.0654 296.412 96.0933Z" fill="#FFC727"/>
<path opacity="0.1" d="M296.412 96.0933L243.818 86.4236C244.349 85.7037 245.046 85.1188 245.851 84.7171C248.968 83.9351 252.197 83.68 255.401 83.9628C261.512 84.8284 265.93 88.2042 270.548 89.0574C275.166 89.9106 280.525 88.3402 286.536 89.7251C289.618 90.6146 292.528 92.0064 295.144 93.8428C295.743 94.4822 296.178 95.254 296.412 96.0933V96.0933Z" fill="black"/>
<path d="M300.088 98.3314C299.875 98.6529 294.742 96.0067 290.288 96.1428C283.837 96.3406 277.262 103.438 268.101 101.744C258.94 100.05 255.439 91.0853 249.49 88.5875C245.399 86.8688 239.627 87.5117 239.551 87.1161C239.476 86.7204 249.038 84.3215 255.112 85.1871C261.186 86.0526 265.578 89.7746 270.171 90.6278C274.764 91.481 280.211 89.6262 286.234 90.9617C292.258 92.2971 300.289 97.9976 300.088 98.3314Z" fill="#FFC727"/>
<path opacity="0.1" d="M264.148 98.2201C262.002 98.554 259.53 93.917 261.964 93.41C264.399 92.903 265.29 98.047 264.148 98.2201Z" fill="black"/>
<path opacity="0.1" d="M273.083 99.8772C274.965 100.953 278.968 97.5154 276.848 96.1675C274.727 94.8197 272.091 99.3083 273.083 99.8772Z" fill="black"/>
<path d="M288.468 107.16C288.468 107.259 288.694 107.086 288.707 106.987C289.183 104.576 290.125 101.893 292.471 101.584C292.547 101.584 292.572 101.46 292.471 101.448C289.748 101.262 288.531 104.799 288.468 107.16Z" fill="#263238"/>
<path d="M291.342 111.451C297.102 112.762 298.746 103.859 293.4 102.635C288.054 101.41 286.485 110.351 291.342 111.451Z" fill="#263238"/>
<path d="M293.613 111.426C294.554 111.043 295.546 110.264 296.575 110.351C297.604 110.437 298.445 111.587 299.009 112.7C299.009 112.811 299.172 112.7 299.197 112.626C299.574 110.833 299.197 108.916 297.328 108.211C295.458 107.507 293.99 108.978 293.186 110.684C293.036 111.018 293.237 111.575 293.613 111.426Z" fill="#263238"/>
<path d="M249.24 99.9017C249.24 99.9883 249.064 99.7533 249.076 99.6544C249.528 97.1813 249.629 94.3991 247.533 93.2615C247.458 93.2615 247.533 93.1008 247.533 93.1255C250.231 93.9045 250.093 97.6759 249.24 99.9017Z" fill="#263238"/>
<path d="M244.985 102.869C239.137 102.029 240.881 93.1502 246.315 93.9169C251.749 94.6835 249.904 103.574 244.985 102.869Z" fill="#263238"/>
<path d="M242.877 102.029C242.149 101.349 241.509 100.26 240.517 99.976C239.526 99.6916 238.309 100.483 237.38 101.299C237.28 101.373 237.204 101.299 237.229 101.163C237.543 99.3454 238.585 97.6266 240.593 97.7132C242.6 97.7997 243.429 99.6174 243.542 101.509C243.567 101.868 243.178 102.313 242.877 102.029Z" fill="#263238"/>
<path d="M263.721 116.644C262.667 119.797 261.252 122.821 259.505 125.659C257.815 128.516 255.775 131.157 253.431 133.523C253.343 133.61 253.431 133.709 253.544 133.647C256.22 131.527 258.519 128.982 260.345 126.116C262.082 123.204 263.289 120.016 263.909 116.694C263.91 116.672 263.903 116.65 263.889 116.633C263.876 116.615 263.856 116.602 263.835 116.597C263.813 116.591 263.79 116.593 263.77 116.601C263.749 116.61 263.732 116.625 263.721 116.644V116.644Z" fill="#FFC727"/>
<path d="M265.867 121.195C264.737 129.504 260.571 137.369 255.451 143.972C255.438 143.985 255.427 144 255.42 144.017C255.413 144.034 255.409 144.052 255.409 144.071C255.409 144.089 255.413 144.107 255.42 144.124C255.427 144.141 255.438 144.157 255.451 144.17C255.464 144.183 255.48 144.193 255.497 144.2C255.514 144.207 255.533 144.211 255.551 144.211C255.57 144.211 255.588 144.207 255.606 144.2C255.623 144.193 255.638 144.183 255.652 144.17C262.177 138.173 265.327 129.851 266.055 121.207C266.067 121.108 265.879 121.047 265.867 121.195Z" fill="#FFC727"/>
<path d="M263.746 123.384C263.188 125.063 262.461 126.682 261.575 128.218C260.706 129.766 259.711 131.242 258.601 132.633C258.601 132.707 258.601 132.781 258.689 132.719C260.018 131.485 261.145 130.054 262.027 128.478C262.879 126.884 263.521 125.188 263.934 123.433C263.935 123.411 263.928 123.389 263.914 123.372C263.901 123.354 263.881 123.342 263.86 123.336C263.838 123.33 263.815 123.332 263.795 123.34C263.774 123.349 263.757 123.364 263.746 123.384V123.384Z" fill="white"/>
<path d="M273.849 131.977C271.581 129.175 269.924 125.942 268.979 122.481C268.979 122.394 268.804 122.407 268.816 122.481C268.955 124.306 269.453 126.087 270.285 127.724C271.158 129.369 272.313 130.854 273.698 132.114C273.798 132.237 273.936 132.089 273.849 131.977Z" fill="#FFC727"/>
<path d="M275.994 122.283C275.429 121.108 274.915 119.946 274.463 118.734C273.976 117.544 273.647 116.298 273.484 115.025C273.484 114.876 273.258 114.889 273.233 115.025C272.986 116.347 273.09 117.71 273.534 118.982C274.029 120.262 274.781 121.431 275.743 122.419C275.843 122.481 276.069 122.394 275.994 122.283Z" fill="white"/>
<path d="M260.132 108.273C259.919 108.607 259.655 108.891 259.454 109.225L258.777 110.239C258.325 110.907 257.861 111.55 257.409 112.193C256.957 112.836 256.518 113.429 256.066 114.072C255.614 114.715 255.087 115.309 254.648 116.014C254.635 116.041 254.63 116.073 254.635 116.103C254.641 116.133 254.655 116.161 254.677 116.183C254.699 116.204 254.728 116.219 254.758 116.224C254.789 116.229 254.821 116.225 254.849 116.212C256.138 115.218 257.253 114.024 258.149 112.675C258.618 112.009 259.038 111.311 259.404 110.585C259.592 110.214 259.768 109.856 259.931 109.485C260.094 109.114 260.182 108.731 260.32 108.347C260.358 108.236 260.195 108.187 260.132 108.273Z" fill="white"/>
<path d="M255.928 118.932C255.631 119.223 255.312 119.492 254.974 119.736C254.648 120.02 254.297 120.292 253.945 120.552C253.277 121.037 252.577 121.479 251.85 121.875C250.385 122.689 248.848 123.368 247.257 123.903C247.223 123.903 247.192 123.916 247.168 123.939C247.144 123.962 247.131 123.994 247.131 124.027C247.131 124.059 247.144 124.091 247.168 124.114C247.192 124.137 247.223 124.15 247.257 124.15C249 124.018 250.688 123.489 252.189 122.605C252.928 122.162 253.622 121.648 254.259 121.071C254.573 120.787 254.887 120.478 255.188 120.156C255.489 119.835 255.727 119.414 256.029 119.068C256.154 118.969 256.003 118.833 255.928 118.932Z" fill="#FFC727"/>
<path d="M301.03 123.705C300.636 123.365 300.216 123.055 299.775 122.778C299.298 122.444 298.846 122.073 298.394 121.702C297.513 120.967 296.675 120.182 295.885 119.353C295.102 118.524 294.373 117.649 293.701 116.731C293.064 115.786 292.485 114.803 291.969 113.788C291.906 113.677 291.731 113.788 291.756 113.875C292.37 116.169 293.527 118.288 295.132 120.057C295.917 120.904 296.807 121.652 297.779 122.283C298.723 123.021 299.813 123.556 300.979 123.854C300.994 123.849 301.007 123.84 301.018 123.83C301.029 123.819 301.037 123.806 301.042 123.791C301.046 123.777 301.048 123.762 301.046 123.747C301.044 123.732 301.038 123.718 301.03 123.705Z" fill="#FFC727"/>
<path d="M289.372 119.971C287.482 117.368 286.197 114.388 285.607 111.241C285.591 111.198 285.56 111.162 285.52 111.138C285.48 111.115 285.433 111.107 285.387 111.114C285.341 111.121 285.299 111.144 285.268 111.178C285.237 111.213 285.22 111.257 285.218 111.303C285.398 114.613 286.815 117.74 289.196 120.082C289.284 120.169 289.434 120.057 289.372 119.971Z" fill="white"/>
<path d="M295.006 128.033C293.417 126.894 291.904 125.655 290.476 124.323C289.079 122.928 287.795 121.428 286.636 119.835C286.621 119.811 286.602 119.791 286.579 119.775C286.556 119.758 286.53 119.747 286.503 119.741C286.475 119.734 286.447 119.733 286.419 119.738C286.392 119.742 286.365 119.752 286.341 119.767C286.317 119.781 286.296 119.8 286.28 119.823C286.264 119.845 286.252 119.871 286.246 119.898C286.239 119.925 286.238 119.953 286.243 119.98C286.247 120.008 286.257 120.034 286.272 120.057C287.178 121.876 288.42 123.512 289.936 124.88C291.388 126.268 293.09 127.375 294.956 128.144C295.006 128.231 295.082 128.095 295.006 128.033Z" fill="#FFC727"/>
<path d="M246.792 105.219C242.913 108.438 238.056 110.291 232.988 110.487C232.825 110.487 232.787 110.734 232.988 110.759C238.171 111.55 243.956 109.745 247.068 105.417C247.081 105.306 246.905 105.132 246.792 105.219Z" fill="#FFC727"/>
<path d="M251.235 103.141C250.701 104.273 250.035 105.339 249.252 106.319C248.49 107.306 247.65 108.232 246.742 109.089C246.604 109.213 246.742 109.423 246.943 109.336C248.074 108.672 249.052 107.784 249.817 106.727C250.563 105.662 251.107 104.472 251.423 103.216C251.448 103.117 251.348 103.043 251.235 103.141Z" fill="white"/>
<path d="M246.604 111.154C245.386 112.534 243.955 113.715 242.362 114.654C240.8 115.624 239.112 116.381 237.343 116.904C237.28 116.904 237.343 117.015 237.343 117.003C239.243 116.78 241.072 116.151 242.701 115.161C244.305 114.132 245.694 112.81 246.792 111.265C246.83 111.154 246.679 111.068 246.604 111.154Z" fill="#FFC727"/>
<path d="M283.173 121.368C282.64 120.341 282.171 119.284 281.767 118.202C281.767 118.079 281.566 118.202 281.579 118.202C281.786 119.366 282.149 120.497 282.658 121.566C283.182 122.618 283.877 123.579 284.716 124.41C284.779 124.484 284.904 124.41 284.842 124.311C284.239 123.396 283.7 122.382 283.173 121.368Z" fill="white"/>
<path d="M278.228 116.335C276.287 113.414 274.92 110.159 274.2 106.74C274.2 106.641 274.049 106.678 274.037 106.74C273.921 108.555 274.239 110.372 274.965 112.045C275.697 113.697 276.755 115.189 278.078 116.434C278.094 116.444 278.113 116.449 278.131 116.448C278.15 116.448 278.169 116.442 278.185 116.431C278.2 116.421 278.213 116.407 278.22 116.39C278.228 116.373 278.231 116.354 278.228 116.335V116.335Z" fill="#FFC727"/>
<path d="M312.223 89.8611C310.84 91.3381 309.369 92.7337 307.819 94.0406C306.239 95.335 304.518 96.4507 302.686 97.3669C302.561 97.4287 302.686 97.6389 302.786 97.6018C306.863 96.3817 310.3 93.6511 312.374 89.9847C312.424 89.8858 312.299 89.7869 312.223 89.8611Z" fill="#FFC727"/>
<path d="M242.651 90.1332C241.886 89.9106 241.07 89.7993 240.292 89.6015C239.514 89.4036 238.723 89.1934 237.945 88.9461C237.167 88.6988 236.364 88.4391 235.586 88.1176C234.808 87.7961 234.105 87.4252 233.352 87.1284C233.324 87.1087 233.289 87.1009 233.255 87.1067C233.22 87.1125 233.19 87.1314 233.17 87.1593C233.15 87.1872 233.142 87.2217 233.148 87.2554C233.154 87.289 233.173 87.3189 233.201 87.3386C234.477 88.4784 235.995 89.3233 237.644 89.8117C239.25 90.3801 240.973 90.5541 242.664 90.3187C242.764 90.2568 242.739 90.1332 242.651 90.1332Z" fill="#FFC727"/>
<path d="M238.359 85.9785C237.233 85.1614 236.194 84.2334 235.259 83.2086C234.367 82.1487 233.581 81.0057 232.913 79.7958C232.837 79.6598 232.662 79.7958 232.687 79.8947C232.976 81.3298 233.645 82.6641 234.625 83.7627C235.606 84.8614 236.864 85.6854 238.271 86.1516C238.293 86.1573 238.317 86.1553 238.338 86.1459C238.359 86.1366 238.376 86.1204 238.386 86.1001C238.396 86.0798 238.399 86.0567 238.394 86.0345C238.389 86.0124 238.377 85.9926 238.359 85.9785V85.9785Z" fill="#FFC727"/>
<path d="M310.14 79.8699C310.14 79.7586 309.927 79.7834 309.927 79.8699C310.008 81.7178 309.77 83.5658 309.224 85.3354C308.718 87.162 307.8 88.8526 306.539 90.2815C306.527 90.3005 306.522 90.3228 306.525 90.3448C306.527 90.3669 306.537 90.3874 306.553 90.4031C306.569 90.4188 306.59 90.4288 306.613 90.4314C306.635 90.434 306.658 90.4292 306.677 90.4176C307.402 89.7553 308.062 89.0266 308.647 88.2413C309.181 87.4174 309.603 86.5276 309.902 85.5951C310.553 83.7517 310.636 81.7597 310.14 79.8699V79.8699Z" fill="#FFC727"/>
<path d="M255.878 61.4827C255.514 61.1006 255.09 60.779 254.623 60.5305C254.154 60.2763 253.651 60.089 253.129 59.9741C253.058 59.9462 252.978 59.9475 252.907 59.9777C252.837 60.0078 252.781 60.0643 252.753 60.1349C252.725 60.2054 252.726 60.2841 252.756 60.3536C252.787 60.4232 252.844 60.4779 252.916 60.5058C253.352 60.7048 253.771 60.9363 254.171 61.1983C254.56 61.4579 254.949 61.7053 255.313 62.002C256.066 62.6139 256.711 63.3452 257.22 64.166C257.237 64.1805 257.257 64.19 257.279 64.1932C257.301 64.1963 257.323 64.1931 257.344 64.1839C257.364 64.1747 257.38 64.1599 257.392 64.1413C257.404 64.1227 257.409 64.1012 257.409 64.0794C257.127 63.1014 256.6 62.2086 255.878 61.4827V61.4827Z" fill="#FFC727"/>
<path d="M239.639 65.8599C239.646 65.8188 239.638 65.7768 239.617 65.7406C239.596 65.7045 239.563 65.6763 239.524 65.6606C239.485 65.6449 239.442 65.6427 239.401 65.6541C239.361 65.6656 239.325 65.6902 239.3 65.7239C238.515 67.1256 238.129 68.7109 238.184 70.3115C238.258 71.8848 238.687 73.4222 239.439 74.8124C239.452 74.8282 239.471 74.8393 239.492 74.8439C239.513 74.8486 239.534 74.8467 239.554 74.8384C239.573 74.8302 239.59 74.816 239.601 74.798C239.611 74.78 239.616 74.7591 239.614 74.7383C238.788 71.8336 238.797 68.76 239.639 65.8599V65.8599Z" fill="#FFC727"/>
<path d="M241.823 73.0071C241.823 72.9153 241.786 72.8272 241.72 72.7623C241.654 72.6974 241.565 72.6609 241.472 72.6609C241.378 72.6609 241.289 72.6974 241.223 72.7623C241.157 72.8272 241.12 72.9153 241.12 73.0071C241.09 74.1296 241.297 75.246 241.729 76.285C242.162 77.3241 242.809 78.2628 243.63 79.0414C243.718 79.1156 243.843 79.0414 243.781 78.9178C242.716 77.1042 242.049 75.0906 241.823 73.0071V73.0071Z" fill="white"/>
<path d="M269.87 67.3809C269.839 67.3342 269.791 67.3002 269.736 67.2851C269.681 67.2701 269.622 67.275 269.571 67.2989C269.519 67.3229 269.478 67.3643 269.455 67.4157C269.431 67.467 269.427 67.5249 269.444 67.5788C269.829 68.9546 270.139 70.3498 270.372 71.7583C270.561 73.1991 270.561 74.6577 270.372 76.0985C270.372 76.1974 270.51 76.284 270.561 76.1727C271.187 74.7642 271.452 73.2252 271.332 71.6917C271.212 70.1583 270.71 68.6777 269.87 67.3809V67.3809Z" fill="#FFC727"/>
<path d="M276.446 64.7594C275.488 65.8152 274.757 67.0521 274.3 68.3948C273.866 69.7482 273.63 71.1554 273.597 72.5743C273.597 72.6006 273.608 72.6257 273.627 72.6443C273.645 72.6628 273.671 72.6732 273.698 72.6732C273.724 72.6732 273.75 72.6628 273.769 72.6443C273.787 72.6257 273.798 72.6006 273.798 72.5743C274.057 71.2227 274.457 69.9009 274.99 68.6298C275.505 67.3932 276.032 66.1567 276.647 64.9202C276.659 64.7841 276.446 64.6481 276.446 64.7594Z" fill="white"/>
<path d="M278.178 70.1261C277.268 71.3529 276.581 72.7249 276.145 74.1819C276.145 74.2808 276.283 74.355 276.32 74.2561C276.953 72.9017 277.687 71.5955 278.516 70.3487C278.629 70.1755 278.328 69.9406 278.178 70.1261Z" fill="#FFC727"/>
<path d="M291.003 63.3251C289.352 63.6135 287.8 64.3019 286.485 65.3283C285.209 66.398 284.207 67.7495 283.561 69.2728C283.548 69.2958 283.545 69.323 283.552 69.3485C283.559 69.374 283.576 69.3957 283.599 69.4089C283.622 69.422 283.65 69.4254 283.676 69.4185C283.702 69.4115 283.724 69.3947 283.737 69.3718C284.61 68.0456 285.71 66.8784 286.987 65.9218C288.222 64.9263 289.601 64.1177 291.078 63.523C291.105 63.5131 291.127 63.4933 291.138 63.4677C291.15 63.4422 291.151 63.4132 291.141 63.3869C291.131 63.3607 291.111 63.3394 291.085 63.3278C291.059 63.3163 291.03 63.3153 291.003 63.3251V63.3251Z" fill="#FFC727"/>
<path d="M306.175 85.5951C305.685 86.4112 305.133 87.2026 304.594 87.9816C304.059 88.784 303.422 89.5154 302.699 90.1579C302.623 90.1579 302.699 90.3681 302.824 90.3063C303.617 89.7204 304.353 89.0622 305.02 88.3402C305.679 87.6099 306.205 86.7733 306.576 85.8671C306.677 85.5456 306.325 85.3354 306.175 85.5951Z" fill="white"/>
<path d="M306.84 76.2222C306.765 75.913 306.338 76.0243 306.326 76.2963C306.326 76.791 306.326 77.2856 306.326 77.7678C306.294 78.2658 306.231 78.7613 306.138 79.2517C305.937 80.2319 305.581 81.175 305.084 82.0462C305.084 82.1328 305.171 82.2441 305.247 82.1575C305.88 81.3201 306.356 80.3779 306.652 79.3753C306.991 78.3581 307.056 77.2715 306.84 76.2222Z" fill="#FFC727"/>
<path d="M296.185 80.4882C295.489 82.3005 294.566 84.0202 293.437 85.6074C293.362 85.7064 293.437 85.83 293.575 85.7434C295.084 84.3831 296.134 82.6014 296.587 80.6366C296.625 80.414 296.298 80.2409 296.185 80.4882Z" fill="white"/>
<path d="M294.743 74.219C294.466 75.2576 294.203 76.3087 293.877 77.3474C293.547 78.3948 293.128 79.4125 292.622 80.3893C292.607 80.4155 292.603 80.4465 292.611 80.4755C292.619 80.5045 292.639 80.5291 292.666 80.5438C292.692 80.5586 292.724 80.5623 292.753 80.5542C292.783 80.5461 292.808 80.5268 292.822 80.5005C294.2 78.6949 295.066 76.5613 295.332 74.3179C295.37 73.9346 294.83 73.8975 294.743 74.219Z" fill="#FFC727"/>
<path d="M290.739 69.9034C289.787 70.5493 288.99 71.3936 288.405 72.3764C287.799 73.3255 287.342 74.3594 287.05 75.4431C287.048 75.4639 287.053 75.4848 287.064 75.5028C287.074 75.5208 287.091 75.535 287.11 75.5432C287.13 75.5515 287.152 75.5534 287.172 75.5487C287.193 75.5441 287.212 75.533 287.226 75.5172C287.727 74.5383 288.32 73.6069 288.995 72.735C289.648 71.8571 290.388 71.0657 291.066 70.262C291.141 70.0394 290.953 69.7674 290.739 69.9034Z" fill="white"/>
<path d="M257.722 68.9514C257.204 67.4476 256.21 66.1474 254.886 65.2418C254.786 65.1799 254.635 65.3283 254.711 65.4272C255.164 66.0263 255.583 66.6496 255.966 67.2944C256.38 67.925 256.781 68.531 257.133 69.2481C257.826 70.5895 258.321 72.022 258.601 73.5018C258.601 73.5281 258.611 73.5532 258.63 73.5718C258.649 73.5903 258.675 73.6007 258.701 73.6007C258.728 73.6007 258.753 73.5903 258.772 73.5718C258.791 73.5532 258.802 73.5281 258.802 73.5018C258.702 71.9362 258.338 70.3981 257.722 68.9514V68.9514Z" fill="#FFC727"/>
<path d="M251.498 67.9498C251.265 67.4982 251.005 67.0605 250.72 66.639C250.213 65.7551 249.494 65.0076 248.624 64.4627C248.588 64.443 248.546 64.4358 248.505 64.442C248.464 64.4483 248.426 64.4678 248.397 64.4974C248.369 64.527 248.351 64.5652 248.346 64.6059C248.342 64.6466 248.351 64.6875 248.373 64.7224C248.887 65.4953 249.462 66.2272 250.092 66.9111C250.381 67.282 250.67 67.6406 250.946 68.024C251.084 68.2218 251.222 68.4197 251.347 68.6299C251.515 68.8335 251.646 69.0634 251.736 69.31C251.736 69.4089 251.937 69.3965 251.925 69.31C251.873 68.8337 251.728 68.3718 251.498 67.9498V67.9498Z" fill="white"/>
<path d="M261.601 61.767C260.716 60.3601 259.508 59.1782 258.074 58.3171C258.054 58.3068 258.031 58.3036 258.008 58.3081C257.986 58.3125 257.966 58.3244 257.951 58.3417C257.936 58.359 257.928 58.3807 257.928 58.4032C257.927 58.4257 257.935 58.4477 257.949 58.4655C259.161 59.5624 260.224 60.8093 261.111 62.1751C262.026 63.5199 262.7 65.0086 263.106 66.5772C263.106 66.7008 263.307 66.5772 263.295 66.5772C263.075 64.8753 262.498 63.2373 261.601 61.767Z" fill="white"/>
<path d="M270.698 113.479C270.172 112.378 269.752 111.232 269.444 110.054C269.109 108.892 268.874 107.705 268.741 106.505C268.731 106.474 268.712 106.447 268.686 106.428C268.66 106.409 268.629 106.399 268.596 106.399C268.564 106.399 268.532 106.409 268.506 106.428C268.48 106.447 268.461 106.474 268.452 106.505C268.313 107.749 268.416 109.008 268.753 110.214C269.127 111.423 269.727 112.551 270.523 113.541C270.611 113.689 270.749 113.627 270.698 113.479Z" fill="white"/>
<path d="M265.917 108.1C265.414 109.151 264.804 110.149 264.098 111.08C263.418 112.034 262.644 112.921 261.789 113.726C261.789 113.726 261.789 113.862 261.876 113.825C262.952 113.238 263.889 112.433 264.625 111.463C265.348 110.483 265.848 109.362 266.093 108.174C266.118 108.075 265.955 108.001 265.917 108.1Z" fill="#FFC727"/>
<path d="M159.738 441.754C159.735 443.76 159.327 445.745 158.538 447.594C157.749 449.443 156.594 451.119 155.141 452.524C153.689 453.93 151.967 455.036 150.076 455.779C148.185 456.522 146.163 456.887 144.127 456.852H141.341V477.737C141.341 481.745 139.726 485.588 136.85 488.422C133.974 491.256 130.073 492.848 126.006 492.848C121.939 492.848 118.039 491.256 115.163 488.422C112.287 485.588 110.671 481.745 110.671 477.737V456.852H22.8269C19.3592 456.982 15.9715 455.806 13.3523 453.563C11.7377 452.367 10.3865 450.86 9.38058 449.133C8.37466 447.407 7.73498 445.498 7.5003 443.521C7.26562 441.543 7.44084 439.54 8.01533 437.632C8.58982 435.723 9.55162 433.95 10.8424 432.418L113.984 306.069C114.26 306.069 114.26 305.797 114.536 305.513C114.888 305.205 115.174 304.831 115.377 304.412C115.91 304.274 116.393 303.992 116.77 303.596C117.046 303.324 117.611 303.04 117.887 302.768C118.376 302.426 118.957 302.237 119.556 302.224C119.832 301.667 120.121 301.395 120.673 301.395C120.949 301.123 121.514 301.123 122.342 300.851C122.737 300.895 123.134 300.793 123.459 300.567H128.202C128.627 300.797 129.112 300.896 129.595 300.851C129.871 301.123 130.712 301.123 131.264 301.395C131.54 301.395 132.105 301.667 132.381 301.667C132.946 302.224 133.498 302.496 133.774 302.768C134.326 303.04 134.615 303.324 135.167 303.596C135.203 303.596 135.239 303.603 135.273 303.617C135.306 303.631 135.337 303.651 135.362 303.676C135.388 303.701 135.408 303.731 135.422 303.764C135.436 303.797 135.443 303.832 135.443 303.868C135.732 303.868 136.284 304.14 136.284 304.412L137.401 305.513C137.677 305.797 137.953 306.341 138.229 306.613C138.658 307.023 139.033 307.484 139.346 307.986C139.42 308.4 139.616 308.783 139.911 309.086C140.134 309.621 140.319 310.171 140.463 310.731C140.463 311.015 140.739 311.559 140.739 311.832C140.987 312.347 141.083 312.922 141.015 313.488C141.015 314.033 141.304 314.305 141.304 314.861V426.644H144.09C148.195 426.614 152.145 428.187 155.077 431.018C158.01 433.849 159.685 437.709 159.738 441.754V441.754ZM110.671 358.807L55.2037 426.644H110.671V358.807Z" fill="#455A64"/>
<path d="M497.412 441.754C497.409 443.76 497.001 445.745 496.211 447.594C495.422 449.443 494.268 451.119 492.815 452.524C491.362 453.93 489.64 455.036 487.749 455.779C485.858 456.522 483.836 456.887 481.8 456.852H479.002V477.737C478.888 481.668 477.223 485.401 474.361 488.142C471.498 490.882 467.664 492.416 463.673 492.416C459.682 492.416 455.848 490.882 452.986 488.142C450.124 485.401 448.459 481.668 448.344 477.737V456.852H360.525C357.057 456.983 353.669 455.807 351.051 453.563C349.436 452.367 348.085 450.86 347.079 449.133C346.073 447.407 345.433 445.498 345.199 443.521C344.964 441.543 345.139 439.54 345.714 437.632C346.288 435.723 347.25 433.95 348.541 432.418L451.682 306.069C451.959 306.069 451.959 305.797 452.235 305.513C452.582 305.201 452.867 304.828 453.075 304.412C453.608 304.274 454.091 303.992 454.468 303.596C454.744 303.324 455.309 303.04 455.585 302.768C456.074 302.426 456.655 302.237 457.254 302.224C457.53 301.667 457.806 301.395 458.371 301.395C458.647 301.123 459.199 301.123 460.04 300.851C460.435 300.893 460.832 300.792 461.157 300.567H465.938C466.363 300.797 466.848 300.896 467.331 300.851C467.607 301.123 468.448 301.123 469 301.395C469.276 301.395 469.841 301.667 470.117 301.667C470.682 302.224 471.222 302.496 471.51 302.768C472.062 303.04 472.338 303.324 472.903 303.596C472.939 303.596 472.975 303.603 473.009 303.617C473.042 303.631 473.073 303.651 473.098 303.676C473.124 303.701 473.144 303.731 473.158 303.764C473.172 303.797 473.179 303.832 473.179 303.868C473.455 303.868 474.02 304.14 474.02 304.412L475.137 305.513C475.413 305.797 475.689 306.341 475.965 306.613C476.394 307.023 476.769 307.484 477.082 307.986C477.156 308.4 477.352 308.783 477.647 309.086C477.87 309.621 478.055 310.171 478.199 310.731C478.199 311.015 478.475 311.559 478.475 311.832C478.723 312.347 478.819 312.922 478.751 313.488C478.751 314.033 479.027 314.305 479.027 314.861V426.644H481.826C485.92 426.63 489.854 428.21 492.773 431.04C495.692 433.869 497.359 437.72 497.412 441.754V441.754ZM448.369 358.807L392.902 426.644H448.369V358.807Z" fill="#455A64"/>
<path d="M144.14 153.654C144.884 146.648 147.588 139.984 151.952 134.404C156.316 128.825 162.167 124.55 168.854 122.057C175.54 119.564 182.797 118.95 189.817 120.285C196.836 121.62 203.341 124.85 208.605 129.616L227.906 126.821L218.243 143.267C220.659 149.055 221.57 155.346 220.891 161.568C220.43 166.586 218.962 171.463 216.572 175.917C214.181 180.371 210.917 184.312 206.967 187.512C203.018 190.712 198.462 193.106 193.565 194.556C188.669 196.006 183.528 196.483 178.443 195.958C173.358 195.434 168.429 193.919 163.943 191.502C159.457 189.084 155.503 185.812 152.311 181.876C149.12 177.94 146.754 173.418 145.351 168.573C143.948 163.728 143.537 158.657 144.14 153.654V153.654Z" fill="white"/>
<path d="M144.139 153.654C144.883 146.649 147.576 139.982 151.92 134.389C154.03 131.551 156.569 129.049 159.449 126.97C162.29 124.845 165.421 123.126 168.748 121.863C172.08 120.571 175.577 119.739 179.139 119.39C180.92 119.227 182.711 119.194 184.498 119.291C186.292 119.33 188.079 119.512 189.844 119.835C196.957 121.125 203.566 124.34 208.931 129.121L208.466 128.985L227.755 126.067L229.148 125.857L228.445 127.093L218.845 143.564V142.921C221.096 148.321 222.067 154.156 221.685 159.981C221.304 165.807 219.579 171.47 216.642 176.54C213.705 181.61 209.633 185.954 204.737 189.24C199.84 192.527 194.247 194.669 188.384 195.506C182.521 196.342 176.541 195.85 170.899 194.067C165.258 192.284 160.103 189.257 155.828 185.216C151.552 181.174 148.268 176.226 146.225 170.746C144.183 165.266 143.435 159.4 144.039 153.592L144.139 153.654ZM144.139 153.654C143.569 159.394 144.326 165.186 146.354 170.596C148.382 176.006 151.628 180.893 155.848 184.889C160.092 188.831 165.177 191.789 170.731 193.545C176.286 195.224 182.154 195.647 187.898 194.781C193.616 193.943 199.063 191.829 203.823 188.599C208.535 185.35 212.475 181.13 215.369 176.233C218.213 171.309 219.886 165.812 220.263 160.158C220.626 154.505 219.7 148.843 217.552 143.589L217.414 143.255L217.602 142.946L227.315 126.537L228.006 127.538L208.68 130.148H208.416L208.228 129.974C203.076 125.217 196.678 121.971 189.756 120.601C188.027 120.255 186.273 120.044 184.51 119.971C182.755 119.847 180.994 119.847 179.239 119.971C175.716 120.233 172.248 120.982 168.937 122.197C165.602 123.383 162.464 125.05 159.625 127.143C156.748 129.172 154.207 131.629 152.096 134.426C147.691 139.987 144.937 146.643 144.139 153.654Z" fill="#263238"/>
<path d="M185.126 163.435V168.035C185.136 168.497 185.051 168.957 184.876 169.386C184.701 169.815 184.44 170.205 184.108 170.532C183.776 170.859 183.381 171.116 182.945 171.289C182.51 171.461 182.043 171.545 181.574 171.534C180.631 171.534 179.726 171.166 179.058 170.51C178.39 169.854 178.013 168.964 178.01 168.035V160.616C178.01 160.542 178.085 160.542 178.085 160.48C178.085 160.418 178.01 160.406 178.01 160.331C178.057 159.423 178.45 158.566 179.111 157.931C179.772 157.296 180.651 156.93 181.574 156.906C182.668 156.949 183.759 156.773 184.783 156.39C185.806 156.006 186.74 155.423 187.53 154.676C188.319 153.928 188.947 153.031 189.375 152.039C189.804 151.046 190.025 149.978 190.025 148.9C190.025 147.821 189.804 146.753 189.375 145.761C188.947 144.768 188.319 143.871 187.53 143.124C186.74 142.376 185.806 141.793 184.783 141.41C183.759 141.026 182.668 140.851 181.574 140.893C180.165 140.89 178.781 141.252 177.558 141.942C176.336 142.632 175.319 143.626 174.609 144.825C174.37 145.228 174.052 145.579 173.674 145.86C173.295 146.14 172.864 146.344 172.406 146.459C171.947 146.574 171.469 146.598 171.001 146.53C170.533 146.462 170.083 146.303 169.678 146.062C169.274 145.831 168.921 145.523 168.64 145.157C168.358 144.79 168.153 144.372 168.036 143.927C167.919 143.482 167.893 143.019 167.96 142.564C168.026 142.109 168.183 141.671 168.423 141.276C169.689 139.126 171.478 137.32 173.628 136.02C175.779 134.719 178.223 133.965 180.742 133.825C183.261 133.686 185.776 134.165 188.061 135.22C190.346 136.274 192.329 137.871 193.832 139.868C195.336 141.864 196.312 144.198 196.675 146.658C197.037 149.118 196.774 151.629 195.908 153.964C195.042 156.299 193.602 158.386 191.715 160.037C189.829 161.688 187.556 162.851 185.1 163.423L185.126 163.435ZM185.126 179.09V180.326C185.136 180.789 185.051 181.248 184.876 181.677C184.701 182.106 184.44 182.496 184.108 182.823C183.776 183.15 183.381 183.408 182.945 183.58C182.51 183.752 182.043 183.836 181.574 183.826C180.631 183.826 179.726 183.457 179.058 182.801C178.39 182.145 178.013 181.255 178.01 180.326V179.09C178.026 178.164 178.407 177.282 179.073 176.629C179.738 175.975 180.635 175.603 181.574 175.59C182.042 175.585 182.506 175.672 182.939 175.847C183.372 176.021 183.766 176.278 184.097 176.604C184.427 176.93 184.689 177.318 184.865 177.745C185.042 178.171 185.131 178.629 185.126 179.09Z" fill="#FFC727"/>
</svg>
