<svg width="24" height="24" viewBox="0 0 24 24" fill="none" xmlns="http://www.w3.org/2000/svg">
<path fill-rule="evenodd" clip-rule="evenodd" d="M14.4769 14.1429H9.52294C8.06488 14.2153 6.7731 15.1059 6.18693 16.4429C5.47993 17.8309 6.89093 19.1429 8.53193 19.1429H15.4679C17.1099 19.1429 18.5209 17.8309 17.8129 16.4429C17.2268 15.1059 15.935 14.2153 14.4769 14.1429Z" stroke="black" stroke-width="2" stroke-linecap="round" stroke-linejoin="round"/>
<path fill-rule="evenodd" clip-rule="evenodd" d="M15 8.14288C15 9.79974 13.6569 11.1429 12 11.1429C10.3431 11.1429 9 9.79974 9 8.14288C9 6.48603 10.3431 5.14288 12 5.14288C12.7956 5.14288 13.5587 5.45895 14.1213 6.02156C14.6839 6.58417 15 7.34723 15 8.14288Z" stroke="black" stroke-width="2" stroke-linecap="round" stroke-linejoin="round"/>
</svg>
