<svg width="28" height="28" viewBox="0 0 28 28" fill="none" xmlns="http://www.w3.org/2000/svg">
<path fill-rule="evenodd" clip-rule="evenodd" d="M16.8898 16.5H11.1101C9.40902 16.5844 7.90195 17.6235 7.21809 19.1833C6.39326 20.8027 8.03942 22.3333 9.95392 22.3333H18.0459C19.9616 22.3333 21.6078 20.8027 20.7818 19.1833C20.0979 17.6235 18.5908 16.5844 16.8898 16.5Z" fill="#115BCB" stroke="#115BCB" stroke-width="2" stroke-linecap="round" stroke-linejoin="round"/>
<path fill-rule="evenodd" clip-rule="evenodd" d="M17.4999 9.5C17.4999 11.433 15.9329 13 13.9999 13C12.0669 13 10.4999 11.433 10.4999 9.5C10.4999 7.567 12.0669 6 13.9999 6C14.9281 6 15.8184 6.36875 16.4748 7.02513C17.1311 7.6815 17.4999 8.57174 17.4999 9.5Z" fill="#115BCB" stroke="#115BCB" stroke-width="2" stroke-linecap="round" stroke-linejoin="round"/>
</svg>
