<svg width="28" height="28" viewBox="0 0 28 28" fill="none" xmlns="http://www.w3.org/2000/svg">
<path fill-rule="evenodd" clip-rule="evenodd" d="M17.3074 6H11.026C8.24231 6.00836 5.99228 8.27146 6.00002 11.0552V16.1115C5.99228 18.8952 8.24231 21.1583 11.026 21.1667H17.3074C20.0911 21.1583 22.3411 18.8952 22.3334 16.1115V11.0552C22.3411 8.27146 20.0911 6.00836 17.3074 6ZM14.1667 9.08331C14.719 9.08331 15.1667 9.53103 15.1667 10.0833V17.0833C15.1667 17.6356 14.719 18.0833 14.1667 18.0833C13.6144 18.0833 13.1667 17.6356 13.1667 17.0833V10.0833C13.1667 9.53103 13.6144 9.08331 14.1667 9.08331ZM10.0834 11.4166C10.6357 11.4166 11.0834 11.8644 11.0834 12.4166V17.0833C11.0834 17.6356 10.6357 18.0833 10.0834 18.0833C9.53109 18.0833 9.08337 17.6356 9.08337 17.0833V12.4166C9.08337 11.8644 9.53109 11.4166 10.0834 11.4166ZM18.25 11.4166C18.8023 11.4166 19.25 11.8644 19.25 12.4166V17.0833C19.25 17.6356 18.8023 18.0833 18.25 18.0833C17.6978 18.0833 17.25 17.6356 17.25 17.0833V12.4166C17.25 11.8644 17.6978 11.4166 18.25 11.4166Z" fill="#115BCB"/>
</svg>
