<svg width="28" height="28" viewBox="0 0 28 28" fill="none" xmlns="http://www.w3.org/2000/svg">
<path fill-rule="evenodd" clip-rule="evenodd" d="M17.3074 6H11.026C8.24231 6.00836 5.99228 8.27146 6.00002 11.0552V16.1115C5.99228 18.8952 8.24231 21.1583 11.026 21.1667H17.3074C20.0911 21.1583 22.3411 18.8952 22.3334 16.1115V11.0552C22.3411 8.27146 20.0911 6.00836 17.3074 6Z" stroke="#115BCB" stroke-width="2" stroke-linecap="round" stroke-linejoin="round"/>
<path d="M9.08337 17.0833C9.08337 17.6356 9.53109 18.0833 10.0834 18.0833C10.6357 18.0833 11.0834 17.6356 11.0834 17.0833H9.08337ZM11.0834 12.4167C11.0834 11.8644 10.6357 11.4167 10.0834 11.4167C9.53109 11.4167 9.08337 11.8644 9.08337 12.4167H11.0834ZM13.1667 17.0833C13.1667 17.6356 13.6144 18.0833 14.1667 18.0833C14.719 18.0833 15.1667 17.6356 15.1667 17.0833H13.1667ZM15.1667 10.0833C15.1667 9.53104 14.719 9.08333 14.1667 9.08333C13.6144 9.08333 13.1667 9.53104 13.1667 10.0833H15.1667ZM17.25 17.0833C17.25 17.6356 17.6978 18.0833 18.25 18.0833C18.8023 18.0833 19.25 17.6356 19.25 17.0833H17.25ZM19.25 12.4167C19.25 11.8644 18.8023 11.4167 18.25 11.4167C17.6978 11.4167 17.25 11.8644 17.25 12.4167H19.25ZM11.0834 17.0833V12.4167H9.08337V17.0833H11.0834ZM15.1667 17.0833V10.0833H13.1667V17.0833H15.1667ZM19.25 17.0833V12.4167H17.25V17.0833H19.25Z" fill="#115BCB"/>
</svg>
