<svg width="170" height="170" viewBox="0 0 170 170" fill="none" xmlns="http://www.w3.org/2000/svg">
<path d="M84.5 159.542C128.959 159.542 165 157.427 165 154.818C165 152.209 128.959 150.094 84.5 150.094C40.0411 150.094 4 152.209 4 154.818C4 157.427 40.0411 159.542 84.5 159.542Z" fill="#F5F5F5"/>
<path opacity="0.7" d="M126.172 126.249H75.0048C73.3055 126.259 71.6223 125.918 70.0595 125.247C68.4967 124.576 67.0877 123.59 65.9199 122.349C64.752 121.108 63.8502 119.64 63.2704 118.034C62.6906 116.429 62.4451 114.721 62.5492 113.016L66.9253 29.0695C67.2865 21.7916 73.5184 15.8366 80.7634 15.8366H131.931C133.632 15.8237 135.317 16.1625 136.882 16.832C138.448 17.5015 139.859 18.4874 141.029 19.7285C142.199 20.9695 143.103 22.4392 143.684 24.0461C144.265 25.6531 144.511 27.3629 144.407 29.0695L140.027 113.016C139.649 120.294 133.413 126.249 126.172 126.249Z" fill="#AFB5C0"/>
<path d="M95.9549 11H92.7705V11.4173H95.9549V11Z" fill="#AFB5C0"/>
<path d="M90.051 11H78.9781V11.4173H90.051V11Z" fill="#AFB5C0"/>
<path d="M61.3942 39.6246L61.2277 42.7876L61.6423 42.8097L61.8088 39.6467L61.3942 39.6246Z" fill="#AFB5C0"/>
<path opacity="0.6" d="M123.228 123.294H72.0445C70.3456 123.304 68.6627 122.963 67.1003 122.293C65.5378 121.622 64.129 120.636 62.9612 119.396C61.7934 118.156 60.8915 116.688 60.3114 115.083C59.7314 113.477 59.4855 111.77 59.589 110.065L63.9692 26.115C64.347 18.8371 70.583 12.8821 77.8238 12.8821H128.987C130.688 12.8691 132.373 13.2079 133.939 13.8775C135.504 14.547 136.915 15.5329 138.086 16.774C139.256 18.015 140.159 19.4847 140.74 21.0916C141.321 22.6985 141.567 24.4084 141.463 26.115L137.087 110.065C136.705 117.339 130.469 123.294 123.228 123.294Z" fill="#AFB5C0"/>
<path d="M81.6311 111.413C69.4662 111.413 58.2728 106.652 50.1103 98.0093C41.9478 89.3668 37.7794 77.8281 38.4188 65.5759C38.8641 57.4448 41.3725 49.5635 45.7052 42.6823C49.9475 35.9373 55.74 30.3156 62.5949 26.2903C62.6202 26.2799 62.6485 26.2799 62.6738 26.2903C62.7013 26.2982 62.725 26.316 62.7402 26.3404L66.9294 34.3736C67.0789 34.2901 67.2284 34.2067 67.382 34.1274L67.5439 34.0356C67.5695 34.0273 67.5971 34.0273 67.6228 34.0356C67.6364 34.0396 67.649 34.0466 67.6598 34.0559C67.6705 34.0653 67.6791 34.0768 67.6851 34.0898L68.831 36.2807C68.843 36.3046 68.8453 36.3323 68.8376 36.3579C68.8299 36.3835 68.8126 36.4052 68.7894 36.4184C58.1317 42.4068 51.1192 53.5866 50.4965 65.6009C50.0231 74.6065 53.0747 83.0737 59.0866 89.4377C62.0696 92.5891 65.6656 95.0899 69.6511 96.7849C73.6367 98.4799 77.9265 99.3327 82.2539 99.2904C82.268 99.2901 82.282 99.2929 82.295 99.2987C82.3079 99.3044 82.3194 99.313 82.3286 99.3238C82.3388 99.3333 82.3467 99.345 82.3518 99.358C82.3568 99.371 82.3588 99.385 82.3577 99.3989L81.7349 111.334C81.7299 111.358 81.7167 111.379 81.6977 111.393C81.6786 111.408 81.655 111.415 81.6311 111.413ZM62.6032 26.5282C48.6406 34.7492 39.4526 49.7056 38.6222 65.5843C37.987 77.7822 42.1222 89.2458 50.2473 97.8632C58.3725 106.481 69.4496 111.18 81.5231 111.217L82.1335 99.4949C77.7965 99.5218 73.5 98.6559 69.5085 96.9507C65.517 95.2454 61.9151 92.7369 58.9247 89.5796C52.8755 83.1697 49.7906 74.6482 50.2764 65.5884C50.9033 53.5365 57.9158 42.315 68.586 36.2807L67.5397 34.2734L67.465 34.3152C67.2865 34.4112 67.1038 34.5071 66.9294 34.6115C66.9028 34.6222 66.873 34.6222 66.8464 34.6115C66.82 34.6034 66.7978 34.5855 66.7841 34.5614L62.6032 26.5282Z" fill="#AFB5C0"/>
<path d="M84.5872 115.766C84.5576 115.766 84.5292 115.754 84.5083 115.732C84.4992 115.721 84.4923 115.709 84.488 115.695C84.4837 115.682 84.4822 115.667 84.4834 115.653L85.1477 102.888C85.1498 102.861 85.1617 102.837 85.1809 102.819C85.2001 102.801 85.2254 102.792 85.2515 102.792C105.035 102.792 121.975 86.6125 123.012 66.7235C123.015 66.6973 123.026 66.6728 123.046 66.655C123.065 66.6372 123.09 66.6274 123.116 66.6275H126.139C126.152 66.6269 126.166 66.6291 126.178 66.6339C126.191 66.6387 126.202 66.646 126.212 66.6553C126.222 66.6647 126.229 66.6759 126.235 66.6883C126.24 66.7008 126.243 66.7141 126.243 66.7276C126.268 67.7626 126.243 68.8142 126.205 69.8366H135.543C135.557 69.8363 135.571 69.8391 135.584 69.8449C135.597 69.8506 135.608 69.8592 135.617 69.87C135.637 69.8935 135.647 69.9231 135.647 69.9535C134.174 81.9677 128.579 93.0895 119.824 101.402C110.262 110.529 97.4205 115.766 84.5872 115.766ZM85.3511 103L84.6952 115.557C97.4413 115.528 110.187 110.316 119.679 101.248C128.372 92.999 133.939 81.9679 135.426 70.0453H126.097C126.082 70.0453 126.066 70.0415 126.053 70.0342C126.039 70.027 126.027 70.0164 126.018 70.0035C126.008 69.9943 126 69.9826 125.995 69.9695C125.99 69.9565 125.988 69.9424 125.989 69.9284C126.043 68.9018 126.056 67.8419 126.035 66.8278H123.212C122.124 86.7502 105.168 102.946 85.3511 103Z" fill="#AFB5C0"/>
<path d="M126.139 66.8361C126.112 66.8351 126.086 66.8238 126.067 66.8044C126.047 66.7851 126.036 66.7592 126.035 66.7318C125.508 45.6451 108.597 29.128 87.5184 29.128C80.5772 29.1445 73.7485 30.8909 67.6436 34.2108C67.6317 34.218 67.6185 34.2227 67.6048 34.2245C67.5911 34.2263 67.5771 34.2252 67.5638 34.2212C67.5505 34.2173 67.5382 34.2106 67.5277 34.2017C67.5171 34.1927 67.5085 34.1816 67.5024 34.1691C67.4902 34.1445 67.4877 34.1163 67.4954 34.0899C67.5031 34.0636 67.5204 34.0412 67.5439 34.0272C73.6795 30.6908 80.5425 28.9358 87.5184 28.9193C97.6329 28.802 107.383 32.7123 114.638 39.7963C121.894 46.8803 126.066 56.5623 126.243 66.7276C126.243 66.7413 126.241 66.755 126.236 66.7679C126.232 66.7808 126.224 66.7926 126.215 66.8027C126.206 66.8127 126.195 66.8209 126.182 66.8266C126.17 66.8324 126.157 66.8356 126.143 66.8361H126.139Z" fill="#AFB5C0"/>
<path d="M140.467 70.0453H135.543C135.515 70.0453 135.489 70.0343 135.469 70.0147C135.45 69.9952 135.439 69.9686 135.439 69.941C135.439 69.9133 135.45 69.8867 135.469 69.8672C135.489 69.8476 135.515 69.8366 135.543 69.8366H140.367C140.876 60.2966 138.83 50.7941 134.442 42.3192C128.011 30.021 117.038 21.0363 103.54 17.0135C89.1833 12.7319 73.9004 14.5096 60.4941 22.0212L62.7402 26.3195C62.7521 26.3445 62.754 26.3732 62.7455 26.3996C62.737 26.426 62.7188 26.4481 62.6945 26.4614C62.6823 26.4678 62.6689 26.4718 62.6551 26.4729C62.6414 26.4741 62.6275 26.4725 62.6144 26.4683C62.6012 26.464 62.5891 26.4571 62.5786 26.448C62.5681 26.439 62.5595 26.4279 62.5534 26.4155L60.2657 22.0295C60.2592 22.0178 60.2552 22.0049 60.2537 21.9915C60.2523 21.9782 60.2536 21.9647 60.2575 21.9518C60.2613 21.939 60.2677 21.9271 60.2763 21.9167C60.2848 21.9064 60.2954 21.898 60.3072 21.8918C66.9956 18.1059 74.3782 15.7223 82.0089 14.8852C89.2613 14.0726 96.6022 14.7282 103.598 16.8132C117.15 20.8527 128.169 29.875 134.625 42.2232C139.046 50.76 141.1 60.3356 140.571 69.9451C140.57 69.9721 140.558 69.9975 140.539 70.0162C140.519 70.0349 140.494 70.0453 140.467 70.0453Z" fill="#AFB5C0"/>
<path d="M66.8879 34.6114H66.8588C66.8325 34.6033 66.8102 34.5854 66.7966 34.5613L62.5534 26.4321C62.5407 26.4072 62.5384 26.3783 62.547 26.3517C62.5556 26.3251 62.5743 26.303 62.5991 26.2902C62.6238 26.2775 62.6526 26.2752 62.6791 26.2838C62.7056 26.2924 62.7276 26.3112 62.7402 26.3361L66.9294 34.3694C67.0789 34.2859 67.2284 34.2024 67.382 34.1232L67.5439 34.0314C67.5561 34.0249 67.5695 34.021 67.5833 34.0198C67.5971 34.0186 67.6109 34.0202 67.6241 34.0245C67.6372 34.0287 67.6494 34.0356 67.6599 34.0447C67.6703 34.0537 67.6789 34.0648 67.6851 34.0773C67.6916 34.089 67.6956 34.1019 67.697 34.1153C67.6985 34.1286 67.6972 34.1421 67.6933 34.155C67.6895 34.1678 67.6831 34.1797 67.6745 34.19C67.6659 34.2003 67.6554 34.2088 67.6435 34.215L67.4775 34.3068C67.2989 34.4028 67.1163 34.4987 66.9419 34.6031C66.9248 34.6101 66.9063 34.613 66.8879 34.6114Z" fill="#AFB5C0"/>
<g opacity="0.3">
<path d="M81.6311 111.413C69.4662 111.413 58.2728 106.652 50.1103 98.0093C41.9478 89.3668 37.7794 77.8281 38.4188 65.5759C38.8641 57.4448 41.3725 49.5635 45.7052 42.6823C49.9475 35.9373 55.74 30.3156 62.5949 26.2903C62.6202 26.2799 62.6485 26.2799 62.6738 26.2903C62.7013 26.2982 62.725 26.316 62.7402 26.3404L66.9294 34.3736C67.0789 34.2901 67.2284 34.2067 67.382 34.1274L67.5439 34.0356C67.5695 34.0273 67.5971 34.0273 67.6228 34.0356C67.6364 34.0396 67.649 34.0466 67.6598 34.0559C67.6705 34.0653 67.6791 34.0768 67.6851 34.0898L68.831 36.2807C68.843 36.3046 68.8453 36.3323 68.8376 36.3579C68.8299 36.3835 68.8126 36.4052 68.7894 36.4184C58.1317 42.4068 51.1192 53.5866 50.4965 65.6009C50.0231 74.6065 53.0747 83.0737 59.0866 89.4377C62.0696 92.5891 65.6656 95.0899 69.6511 96.7849C73.6367 98.4799 77.9265 99.3327 82.2539 99.2904C82.268 99.2901 82.282 99.2929 82.295 99.2987C82.3079 99.3044 82.3194 99.313 82.3286 99.3238C82.3388 99.3333 82.3467 99.345 82.3518 99.358C82.3568 99.371 82.3588 99.385 82.3577 99.3989L81.7349 111.334C81.7299 111.358 81.7167 111.379 81.6977 111.393C81.6786 111.408 81.655 111.415 81.6311 111.413ZM62.6032 26.5282C48.6406 34.7492 39.4526 49.7056 38.6222 65.5843C37.987 77.7822 42.1222 89.2458 50.2473 97.8632C58.3725 106.481 69.4496 111.18 81.5231 111.217L82.1335 99.4949C77.7965 99.5218 73.5 98.6559 69.5085 96.9507C65.517 95.2454 61.9151 92.7369 58.9247 89.5796C52.8755 83.1697 49.7906 74.6482 50.2764 65.5884C50.9033 53.5365 57.9158 42.315 68.586 36.2807L67.5397 34.2734L67.465 34.3152C67.2865 34.4112 67.1038 34.5071 66.9294 34.6115C66.9028 34.6222 66.873 34.6222 66.8464 34.6115C66.82 34.6034 66.7978 34.5855 66.7841 34.5614L62.6032 26.5282Z" fill="white"/>
<path d="M84.5872 115.766C84.5576 115.766 84.5292 115.754 84.5083 115.732C84.4992 115.721 84.4923 115.709 84.488 115.695C84.4837 115.682 84.4822 115.667 84.4834 115.653L85.1477 102.888C85.1498 102.861 85.1617 102.837 85.1809 102.819C85.2001 102.801 85.2254 102.792 85.2515 102.792C105.035 102.792 121.975 86.6125 123.012 66.7235C123.015 66.6973 123.026 66.6728 123.046 66.655C123.065 66.6372 123.09 66.6274 123.116 66.6275H126.139C126.152 66.6269 126.166 66.6291 126.178 66.6339C126.191 66.6387 126.202 66.646 126.212 66.6553C126.222 66.6647 126.229 66.6759 126.235 66.6883C126.24 66.7008 126.243 66.7141 126.243 66.7276C126.268 67.7626 126.243 68.8142 126.205 69.8366H135.543C135.557 69.8363 135.571 69.8391 135.584 69.8449C135.597 69.8506 135.608 69.8592 135.617 69.87C135.637 69.8935 135.647 69.9231 135.647 69.9535C134.174 81.9677 128.579 93.0895 119.824 101.402C110.262 110.529 97.4205 115.766 84.5872 115.766ZM85.3511 103L84.6952 115.557C97.4413 115.528 110.187 110.316 119.679 101.248C128.372 92.999 133.939 81.9679 135.426 70.0453H126.097C126.082 70.0453 126.066 70.0415 126.053 70.0342C126.039 70.027 126.027 70.0164 126.018 70.0035C126.008 69.9943 126 69.9826 125.995 69.9695C125.99 69.9565 125.988 69.9424 125.989 69.9284C126.043 68.9018 126.056 67.8419 126.035 66.8278H123.212C122.124 86.7502 105.168 102.946 85.3511 103Z" fill="white"/>
<path d="M126.139 66.8361C126.112 66.8351 126.086 66.8238 126.067 66.8044C126.047 66.7851 126.036 66.7592 126.035 66.7318C125.508 45.6451 108.597 29.128 87.5184 29.128C80.5772 29.1445 73.7485 30.8909 67.6436 34.2108C67.6317 34.218 67.6185 34.2227 67.6048 34.2245C67.5911 34.2263 67.5771 34.2252 67.5638 34.2212C67.5505 34.2173 67.5382 34.2106 67.5277 34.2017C67.5171 34.1927 67.5085 34.1816 67.5024 34.1691C67.4902 34.1445 67.4877 34.1163 67.4954 34.0899C67.5031 34.0636 67.5204 34.0412 67.5439 34.0272C73.6795 30.6908 80.5425 28.9358 87.5184 28.9193C97.6329 28.802 107.383 32.7123 114.638 39.7963C121.894 46.8803 126.066 56.5623 126.243 66.7276C126.243 66.7413 126.241 66.755 126.236 66.7679C126.232 66.7808 126.224 66.7926 126.215 66.8027C126.206 66.8127 126.195 66.8209 126.182 66.8266C126.17 66.8324 126.157 66.8356 126.143 66.8361H126.139Z" fill="white"/>
<path d="M140.467 70.0453H135.543C135.515 70.0453 135.489 70.0343 135.469 70.0147C135.45 69.9952 135.439 69.9686 135.439 69.941C135.439 69.9133 135.45 69.8867 135.469 69.8672C135.489 69.8476 135.515 69.8366 135.543 69.8366H140.367C140.876 60.2966 138.83 50.7941 134.442 42.3192C128.011 30.021 117.038 21.0363 103.54 17.0135C89.1833 12.7319 73.9004 14.5096 60.4941 22.0212L62.7402 26.3195C62.7521 26.3445 62.754 26.3732 62.7455 26.3996C62.737 26.426 62.7188 26.4481 62.6945 26.4614C62.6823 26.4678 62.6689 26.4718 62.6551 26.4729C62.6414 26.4741 62.6275 26.4725 62.6144 26.4683C62.6012 26.464 62.5891 26.4571 62.5786 26.448C62.5681 26.439 62.5595 26.4279 62.5534 26.4155L60.2657 22.0295C60.2592 22.0178 60.2552 22.0049 60.2537 21.9915C60.2523 21.9782 60.2536 21.9647 60.2575 21.9518C60.2613 21.939 60.2677 21.9271 60.2763 21.9167C60.2848 21.9064 60.2954 21.898 60.3072 21.8918C66.9956 18.1059 74.3782 15.7223 82.0089 14.8852C89.2613 14.0726 96.6022 14.7282 103.598 16.8132C117.15 20.8527 128.169 29.875 134.625 42.2232C139.046 50.76 141.1 60.3356 140.571 69.9451C140.57 69.9721 140.558 69.9975 140.539 70.0162C140.519 70.0349 140.494 70.0453 140.467 70.0453Z" fill="white"/>
<path d="M66.8879 34.6114H66.8588C66.8325 34.6033 66.8102 34.5854 66.7966 34.5613L62.5534 26.4321C62.5407 26.4072 62.5384 26.3783 62.547 26.3517C62.5556 26.3251 62.5743 26.303 62.5991 26.2902C62.6238 26.2775 62.6526 26.2752 62.6791 26.2838C62.7056 26.2924 62.7276 26.3112 62.7402 26.3361L66.9294 34.3694C67.0789 34.2859 67.2284 34.2024 67.382 34.1232L67.5439 34.0314C67.5561 34.0249 67.5695 34.021 67.5833 34.0198C67.5971 34.0186 67.6109 34.0202 67.6241 34.0245C67.6372 34.0287 67.6494 34.0356 67.6599 34.0447C67.6703 34.0537 67.6789 34.0648 67.6851 34.0773C67.6916 34.089 67.6956 34.1019 67.697 34.1153C67.6985 34.1286 67.6972 34.1421 67.6933 34.155C67.6895 34.1678 67.6831 34.1797 67.6745 34.19C67.6659 34.2003 67.6554 34.2088 67.6435 34.215L67.4775 34.3068C67.2989 34.4028 67.1163 34.4987 66.9419 34.6031C66.9248 34.6101 66.9063 34.613 66.8879 34.6114Z" fill="white"/>
</g>
<path d="M84.8446 94.0782L84.4294 101.744C68.2829 101.744 55.8731 88.5822 56.72 72.3572C57.2888 61.4821 63.6661 51.9799 72.6714 46.9012L76.1423 53.5407C72.7607 55.4257 69.9072 58.1382 67.846 61.4267C65.7849 64.7152 64.5828 68.4733 64.3511 72.353C63.7408 84.3507 72.9122 94.0782 84.8446 94.0782Z" fill="#AFB5C0"/>
<path opacity="0.6" d="M84.8446 94.0782L84.4294 101.744C68.2829 101.744 55.8731 88.5822 56.72 72.3572C57.2888 61.4821 63.6661 51.9799 72.6714 46.9012L76.1423 53.5407C72.7607 55.4257 69.9072 58.1382 67.846 61.4267C65.7849 64.7152 64.5828 68.4733 64.3511 72.353C63.7408 84.3507 72.9122 94.0782 84.8446 94.0782Z" fill="black"/>
<path d="M119.267 73.0958C118.745 81.5474 115.06 89.4872 108.952 95.32C102.845 101.153 94.7677 104.447 86.3434 104.54L86.7586 96.3358C99.5255 96.3358 110.424 85.9281 111.093 73.0958H119.267Z" fill="#AFB5C0"/>
<path opacity="0.3" d="M119.267 73.0958C118.745 81.5474 115.06 89.4872 108.952 95.32C102.845 101.153 94.7677 104.447 86.3434 104.54L86.7586 96.3358C99.5255 96.3358 110.424 85.9281 111.093 73.0958H119.267Z" fill="black"/>
<path d="M122.253 75.1615H113.019C113.775 60.6266 102.673 48.8709 88.2284 48.8709C83.5743 48.8693 78.9994 50.0815 74.9508 52.3889L70.7533 44.3473C88.0789 34.5906 109.59 40.4747 118.425 57.3757C121.266 62.8515 122.588 68.995 122.253 75.1615Z" fill="#FAFAFA"/>
<path d="M121.244 98.3139H112.741L111.823 115.916H120.326L121.244 98.3139Z" fill="#FAFAFA"/>
<path d="M133.38 92.4966H124.877L123.656 115.916H132.159L133.38 92.4966Z" fill="#AFB5C0"/>
<path opacity="0.6" d="M133.38 92.4966H124.877L123.656 115.916H132.159L133.38 92.4966Z" fill="black"/>
<path d="M144.905 98.3139H136.402L135.485 115.916H143.988L144.905 98.3139Z" fill="#AFB5C0"/>
<path opacity="0.3" d="M144.905 98.3139H136.402L135.485 115.916H143.988L144.905 98.3139Z" fill="black"/>
<path d="M143.909 117.414H111.744L111.765 117.014H143.929L143.909 117.414Z" fill="#111C21"/>
<path opacity="0.8" d="M148.256 42.9409H111.18L112.276 21.8876H149.356L148.256 42.9409Z" fill="#FAFAFA"/>
<path d="M111.848 30.092L111.18 42.941H148.256L149.086 26.9872C142.933 26.9872 139.284 34.0272 131.673 34.0272C124.063 34.0272 121.975 30.092 111.848 30.092Z" fill="#AFB5C0"/>
<path opacity="0.1" d="M111.848 30.092L111.18 42.941H148.256L149.086 26.9872C142.933 26.9872 139.284 34.0272 131.673 34.0272C124.063 34.0272 121.975 30.092 111.848 30.092Z" fill="black"/>
<path d="M111.529 36.2348C119.861 36.2348 122.855 31.6443 127.534 31.6443C132.213 31.6443 134.26 36.4726 140.089 36.4726C146.167 36.4726 148.808 32.6751 148.808 32.6751L148.272 42.9493H111.196L111.529 36.2348Z" fill="#AFB5C0"/>
<path opacity="0.5" d="M111.529 36.2348C119.861 36.2348 122.855 31.6443 127.534 31.6443C132.213 31.6443 134.26 36.4726 140.089 36.4726C146.167 36.4726 148.808 32.6751 148.808 32.6751L148.272 42.9493H111.196L111.529 36.2348Z" fill="black"/>
<path d="M38.2029 52.393C37.6548 53.1317 37.0445 53.9538 36.4923 54.7592C35.9401 55.5646 35.3838 56.3867 34.8606 57.213C33.8141 58.821 32.8977 60.511 32.1204 62.2666L31.9834 62.5837L31.917 62.7423C31.8872 62.8078 31.8717 62.879 31.8713 62.951C31.8607 63.2913 31.8984 63.6313 31.9834 63.9609C32.205 64.8396 32.5066 65.6959 32.8844 66.519C33.7068 68.322 34.6186 70.0825 35.6163 71.7938L33.8185 73.221C32.3017 71.6992 30.949 70.0207 29.7829 68.2133C29.1555 67.2406 28.6349 66.2023 28.2301 65.1168C27.9902 64.4659 27.8408 63.7848 27.7859 63.0929C27.7551 62.6512 27.7859 62.2073 27.8772 61.7742C27.9022 61.6531 27.9395 61.5238 27.9769 61.4028L28.0433 61.1983L28.1762 60.781C28.3464 60.2343 28.554 59.721 28.7533 59.1994C28.9526 58.6777 29.1685 58.1769 29.43 57.6887C29.8867 56.6913 30.414 55.744 30.9496 54.8092C31.4852 53.8745 32.0664 52.9731 32.6726 52.0926C32.9757 51.6502 33.2871 51.2162 33.6026 50.7822C33.9182 50.3482 34.2337 49.9476 34.6074 49.4802L38.2029 52.393Z" fill="#C8BEBC"/>
<path d="M34.9645 71.1386L37.194 71.5225L35.2136 74.8944C35.2136 74.8944 33.6608 74.1432 33.3784 72.6868L34.9645 71.1386Z" fill="#C8BEBC"/>
<path d="M39.6021 72.7285L37.8375 75.4411L35.2136 74.8944L37.194 71.5225L39.6021 72.7285Z" fill="#C8BEBC"/>
<path d="M49.6993 36.0344C49.6993 36.2806 49.828 36.4809 49.9899 36.4809C50.1518 36.4809 50.2805 36.2806 50.2805 36.0344C50.2805 35.7882 50.1518 35.5879 49.9899 35.5879C49.828 35.5879 49.6993 35.784 49.6993 36.0344Z" fill="#111C21"/>
<path d="M49.8073 36.481C50.1012 37.2367 50.4965 37.9486 50.9823 38.5967C50.8143 38.7175 50.6221 38.7999 50.4191 38.8381C50.2162 38.8763 50.0073 38.8694 49.8073 38.8179V36.481Z" fill="#595252"/>
<path d="M48.8274 34.6657C48.8043 34.6663 48.7814 34.6609 48.761 34.6499C48.7406 34.6389 48.7235 34.6228 48.7112 34.6031C48.6995 34.588 48.691 34.5707 48.6863 34.5522C48.6816 34.5337 48.6808 34.5144 48.6839 34.4956C48.6871 34.4767 48.694 34.4587 48.7045 34.4428C48.7149 34.4268 48.7285 34.4132 48.7444 34.4027C48.9267 34.2623 49.1402 34.1685 49.3665 34.1292C49.5929 34.09 49.8253 34.1065 50.0439 34.1774C50.0788 34.1922 50.1066 34.2201 50.1213 34.2552C50.1361 34.2902 50.1366 34.3297 50.1228 34.3652C50.1168 34.3831 50.1072 34.3997 50.0946 34.4137C50.082 34.4278 50.0667 34.4391 50.0495 34.4469C50.0324 34.4547 50.0138 34.4589 49.995 34.4592C49.9762 34.4595 49.9575 34.4559 49.9401 34.4486C49.766 34.3952 49.5817 34.3843 49.4026 34.417C49.2235 34.4497 49.0548 34.5249 48.9105 34.6364C48.8871 34.6557 48.8577 34.666 48.8274 34.6657Z" fill="#111C21"/>
<path d="M41.7568 38.8847C42.1969 41.1298 42.6329 45.2361 41.0718 46.7343C41.0718 46.7343 41.6821 49.0086 45.8298 49.0086C50.3968 49.0086 48.0054 46.7343 48.0054 46.7343C45.5143 46.1375 45.5807 44.2805 46.0166 42.5403L41.7568 38.8847Z" fill="#C8BEBC"/>
<path d="M40.4905 47.5146C40.1625 46.7969 39.8055 45.9706 40.5487 45.7119C41.379 45.4281 45.8506 45.1401 47.3951 45.6701C47.5988 45.7269 47.7893 45.8237 47.9556 45.955C48.1218 46.0863 48.2605 46.2494 48.3636 46.4349C48.4667 46.6204 48.5322 46.8247 48.5562 47.0358C48.5802 47.2469 48.5623 47.4607 48.5036 47.6649L40.4905 47.5146Z" fill="#AFB5C0"/>
<path d="M30.8707 152.214C30.6027 152.212 30.3355 152.183 30.0736 152.126C30.0601 152.124 30.0477 152.117 30.038 152.107C30.0284 152.098 30.0219 152.085 30.0196 152.072C30.0168 152.058 30.0181 152.043 30.0232 152.03C30.0284 152.017 30.0372 152.005 30.0486 151.997C30.086 151.972 30.9288 151.396 31.3731 151.496C31.4207 151.506 31.4656 151.526 31.5044 151.556C31.5431 151.586 31.5749 151.624 31.5973 151.667C31.6328 151.718 31.6519 151.778 31.6519 151.84C31.6519 151.902 31.6328 151.963 31.5973 152.013C31.4954 152.093 31.3787 152.152 31.254 152.187C31.1293 152.221 30.999 152.23 30.8707 152.214ZM30.277 152.022C30.7337 152.097 31.3565 152.097 31.4852 151.922C31.4852 151.922 31.5392 151.855 31.4852 151.738C31.4717 151.712 31.4528 151.69 31.4299 151.673C31.4069 151.656 31.3804 151.644 31.3523 151.638C30.963 151.658 30.5886 151.795 30.277 152.03V152.022Z" fill="#AFB5C0"/>
<path d="M30.1109 152.139C30.0988 152.143 30.0857 152.143 30.0736 152.139C30.062 152.132 30.0527 152.122 30.0468 152.11C30.0409 152.098 30.0386 152.085 30.0404 152.072C30.0404 152.034 30.1151 151.15 30.4555 150.857C30.4981 150.822 30.5472 150.796 30.6 150.78C30.6527 150.765 30.7081 150.76 30.7628 150.766C30.8177 150.766 30.8709 150.785 30.9133 150.82C30.9557 150.855 30.9847 150.903 30.9953 150.958C31.0576 151.3 30.4472 151.967 30.1317 152.143L30.1109 152.139ZM30.7254 150.887C30.6645 150.888 30.6059 150.91 30.5593 150.949C30.347 151.226 30.2213 151.56 30.1981 151.909C30.5137 151.671 30.9039 151.166 30.8666 150.962C30.8666 150.962 30.8666 150.899 30.7586 150.887H30.7254Z" fill="#AFB5C0"/>
<path d="M49.1845 152.214C48.8711 152.214 48.5583 152.185 48.2503 152.126C48.2355 152.124 48.2218 152.118 48.2112 152.107C48.2007 152.096 48.194 152.082 48.1922 152.068C48.1899 152.053 48.1918 152.038 48.1977 152.025C48.2036 152.012 48.2132 152 48.2254 151.992C48.2711 151.967 49.3381 151.358 49.8446 151.496C49.8925 151.507 49.9376 151.527 49.977 151.557C50.0163 151.586 50.0491 151.624 50.073 151.667C50.1061 151.713 50.1239 151.769 50.1239 151.826C50.1239 151.882 50.1061 151.938 50.073 151.984C49.9526 152.168 49.5748 152.214 49.1845 152.214ZM48.4828 152.022C49.0558 152.101 49.8239 152.088 49.9651 151.897C49.9651 151.871 49.9983 151.83 49.9651 151.738C49.9499 151.712 49.9294 151.69 49.9051 151.673C49.8808 151.655 49.8531 151.644 49.8239 151.638C49.4751 151.554 48.7942 151.863 48.4828 152.03V152.022Z" fill="#AFB5C0"/>
<path d="M48.2628 152.139C48.2492 152.143 48.2348 152.143 48.2212 152.139C48.2108 152.131 48.2027 152.121 48.1975 152.109C48.1924 152.097 48.1906 152.085 48.1922 152.072C48.2192 151.637 48.3852 151.223 48.6655 150.891C48.7212 150.84 48.7873 150.803 48.8591 150.781C48.9309 150.76 49.0066 150.754 49.0807 150.766C49.28 150.786 49.3381 150.887 49.3505 150.97C49.4045 151.316 48.678 151.98 48.3084 152.143L48.2628 152.139ZM49.0059 150.887C48.9138 150.886 48.8246 150.92 48.7568 150.983C48.5229 151.245 48.3775 151.575 48.3417 151.926C48.7153 151.7 49.2135 151.179 49.172 150.97C49.172 150.97 49.172 150.903 49.0309 150.887H49.0059Z" fill="#AFB5C0"/>
<path d="M44.9081 152.063H47.9597L48.2628 144.965H45.2112L44.9081 152.063Z" fill="#C8BEBC"/>
<path d="M26.5943 152.063H29.6459L31.178 144.965H28.1305L26.5943 152.063Z" fill="#C8BEBC"/>
<path d="M29.8618 151.709H26.4365C26.3754 151.709 26.3162 151.731 26.2687 151.769C26.2212 151.808 26.1881 151.862 26.175 151.922L25.573 154.647C25.5592 154.713 25.5605 154.782 25.5768 154.847C25.5931 154.913 25.6239 154.974 25.667 155.027C25.7101 155.079 25.7644 155.12 25.8257 155.149C25.8871 155.177 25.9539 155.191 26.0214 155.189C27.2171 155.168 27.7983 155.097 29.3055 155.097C30.2313 155.097 32.1412 155.197 33.4241 155.197C34.707 155.197 34.8689 153.946 34.3458 153.808C31.9959 153.29 31.1115 152.577 30.3559 151.901C30.2213 151.776 30.0447 151.708 29.8618 151.709Z" fill="#111C21"/>
<path d="M47.9389 151.709H44.6175C44.5563 151.709 44.4972 151.73 44.4496 151.769C44.4021 151.808 44.3691 151.862 44.3559 151.922L43.7539 154.647C43.7395 154.712 43.7401 154.781 43.7556 154.846C43.7711 154.911 43.8011 154.973 43.8434 155.025C43.8858 155.077 43.9393 155.119 44 155.147C44.0607 155.176 44.127 155.19 44.194 155.189C45.3939 155.168 47.1293 155.097 48.6406 155.097C50.4051 155.097 51.933 155.197 54.0006 155.197C55.2462 155.197 55.6032 153.946 55.0801 153.808C52.6928 153.282 50.7456 153.228 48.6821 151.951C48.4624 151.801 48.2046 151.717 47.9389 151.709Z" fill="#111C21"/>
<path d="M51.9704 48.4828C53.7557 49.3675 55.6115 50.2731 57.4425 51.1202C59.2735 51.9673 61.1252 52.7894 62.9645 53.4947L63.6495 53.7409L63.8239 53.8035H63.8654C63.8654 53.8035 63.8654 53.8035 63.8862 53.8244C64.1346 53.8502 64.3856 53.8203 64.621 53.7367C65.4468 53.4598 66.2359 53.0829 66.971 52.6142C68.649 51.5548 70.2615 50.3939 71.7996 49.138L73.4811 50.6987C72.2 52.4803 70.7098 54.1 69.0427 55.5228C68.128 56.3168 67.1045 56.9745 66.0036 57.4758C65.2821 57.8042 64.4996 57.9748 63.7076 57.9766C63.4567 57.9718 63.2067 57.9453 62.9603 57.8973L62.761 57.8514L62.624 57.8139L62.4247 57.7596L61.6276 57.5384C59.5725 56.92 57.5542 56.1843 55.5825 55.335C53.6228 54.5004 51.7379 53.6074 49.8322 52.5933L51.9704 48.4828Z" fill="#C8BEBC"/>
<path d="M35.6121 47.427C32.7515 48.0864 29.4716 55.9193 29.4716 55.9193L35.2135 59.8754C36.6429 57.8167 37.9116 55.65 39.0083 53.3946C40.7023 49.8099 38.535 46.7551 35.6121 47.427Z" fill="#111C21"/>
<path d="M37.659 52.4222L34.9437 59.6876L35.2135 59.8754C35.2135 59.8754 36.3885 58.2061 37.659 55.9819V52.4222Z" fill="#AFB5C0"/>
<path opacity="0.8" d="M37.659 52.4222L34.9437 59.6876L35.2135 59.8754C35.2135 59.8754 36.3885 58.2061 37.659 55.9819V52.4222Z" fill="black"/>
<path d="M52.6969 47.5856C52.6969 47.5856 55.9437 51.2705 52.8796 74.0848H36.5629C36.4508 71.581 38.0243 59.287 35.6121 47.427C37.4152 47.078 39.2389 46.8466 41.0718 46.7343C43.3811 46.6007 45.6961 46.6007 48.0054 46.7343C49.5889 46.8947 51.1576 47.1793 52.6969 47.5856Z" fill="#111C21"/>
<path d="M54.1252 54.6048L50.2017 53.7701C50.2598 53.8411 52.6928 56.9083 54.1833 58.8154C54.2124 57.1879 54.1916 55.815 54.1252 54.6048Z" fill="#AFB5C0"/>
<path opacity="0.8" d="M54.1252 54.6048L50.2017 53.7701C50.2598 53.8411 52.6928 56.9083 54.1833 58.8154C54.2124 57.1879 54.1916 55.815 54.1252 54.6048Z" fill="black"/>
<path d="M47.5819 51.6669C48.4787 54.4545 57.5463 57.5092 57.5463 57.5092L60.245 51.0785C57.9696 49.6916 55.5534 48.5528 53.0374 47.6816C49.3589 46.5047 46.5938 48.608 47.5819 51.6669Z" fill="#111C21"/>
<path d="M71.5421 49.5553L72.4348 46.4463L75.9846 48.0613C75.9846 48.0613 75.1999 50.4734 73.0534 51.0493L71.5421 49.5553Z" fill="#C8BEBC"/>
<path d="M74.5605 43.8548L76.9727 46.246L75.9846 48.0446L72.4348 46.4296L74.5605 43.8548Z" fill="#C8BEBC"/>
<path d="M48.2627 144.969L48.105 148.625H45.0534L45.2111 144.969H48.2627Z" fill="#9C9594"/>
<path d="M28.1264 144.969H31.178L30.3891 148.625H27.3375L28.1264 144.969Z" fill="#9C9594"/>
<path d="M41.4953 35.5086C41.678 38.5466 41.6323 40.3327 43.156 41.8935C45.452 44.2388 49.1803 42.8449 49.9028 39.8069C50.5504 37.0777 50.1394 32.5708 47.1792 31.3606C46.528 31.0916 45.8193 30.9946 45.1204 31.0786C44.4214 31.1627 43.7555 31.425 43.1858 31.8407C42.6162 32.2564 42.1619 32.8117 41.866 33.4537C41.5701 34.0957 41.4425 34.8031 41.4953 35.5086Z" fill="#C8BEBC"/>
<path d="M47.366 33.4888C49.6454 34.1649 51.5552 30.914 51.2023 33.2134C50.8494 35.5128 53.3364 35.2624 53.3364 35.2624C53.3364 35.2624 51.385 34.5196 53.7059 32.5833C56.5416 30.2171 52.5143 28.7649 50.7498 30.0502C48.3749 31.7862 47.9099 28.7232 44.85 27.9011C42.7741 27.3502 40.2207 28.6606 40.175 30.1671C40.1169 32.0074 38.5433 30.5259 38.4271 33.2635C38.3482 35.0496 40.4656 40.9378 42.7492 41.1381C46.1869 41.4428 47.3411 37.061 47.366 33.4888Z" fill="#111C21"/>
<path d="M45.5724 36.3933C45.7352 37.1349 46.1382 37.8013 46.7183 38.2879C47.4864 38.9139 48.1008 38.3547 48.0842 37.4533C48.0635 36.6395 47.6441 35.3333 46.7806 35.0579C45.917 34.7825 45.3772 35.5044 45.5724 36.3933Z" fill="#C8BEBC"/>
<path d="M40.8393 31.878C40.4669 31.3101 40.2411 30.6579 40.1824 29.9803C40.1237 29.3027 40.2339 28.6211 40.503 27.997C40.503 27.997 37.2562 30.455 40.8393 31.878Z" fill="#111C21"/>
<path d="M38.2402 31.5775C38.5621 31.4406 38.9131 31.3876 39.2607 31.4233C39.6084 31.4591 39.9414 31.5824 40.229 31.782C40.229 31.782 39.3073 29.8916 38.2402 31.5775Z" fill="#111C21"/>
<path d="M47.0919 74.0848C47.0919 74.0848 43.6293 97.5126 41.7361 106.31C39.6601 115.908 31.8173 147.94 31.8173 147.94H26.2206C26.2206 147.94 31.3938 116.676 32.602 107.144C33.8891 96.8157 36.5836 74.0681 36.5836 74.0681L47.0919 74.0848Z" fill="#AFB5C0"/>
<path d="M32.7017 145.85C32.7266 145.85 32.1246 148.007 32.1246 148.007H25.8387L25.9549 146.083L32.7017 145.85Z" fill="#AFB5C0"/>
<path opacity="0.2" d="M32.7017 145.85C32.7266 145.85 32.1246 148.007 32.1246 148.007H25.8387L25.9549 146.083L32.7017 145.85Z" fill="black"/>
<path d="M44.9039 82.431C40.9016 83.2197 41.325 98.222 41.8067 105.938C42.9816 100.467 44.6424 89.9885 45.8049 82.5228C45.5237 82.3901 45.2059 82.3577 44.9039 82.431Z" fill="#AFB5C0"/>
<path opacity="0.2" d="M44.9039 82.431C40.9016 83.2197 41.325 98.222 41.8067 105.938C42.9816 100.467 44.6424 89.9885 45.8049 82.5228C45.5237 82.3901 45.2059 82.3577 44.9039 82.431Z" fill="black"/>
<path d="M52.8796 74.0848C52.8796 74.0848 53.2948 97.0035 52.9668 106.355C52.6222 116.079 49.2301 147.92 49.2301 147.92H44.0777C44.0777 147.92 43.8867 116.646 43.6625 107.098C43.4134 96.6864 42.1637 74.0848 42.1637 74.0848H52.8796Z" fill="#AFB5C0"/>
<path d="M48.1673 144.189C48.1534 144.187 48.1406 144.18 48.1315 144.169C48.1223 144.158 48.1173 144.145 48.1175 144.13C49.0309 135.317 51.1774 113.996 51.4389 106.351C51.7171 98.5183 51.4638 81.0247 51.3808 75.8459C51.3808 75.8393 51.3821 75.8328 51.3846 75.8267C51.3871 75.8206 51.3908 75.8151 51.3954 75.8104C51.4 75.8058 51.4055 75.8021 51.4116 75.7996C51.4176 75.7971 51.4241 75.7958 51.4306 75.7958C51.4443 75.7957 51.4574 75.8009 51.4674 75.8102C51.4774 75.8194 51.4836 75.8322 51.4846 75.8459C51.5676 81.0205 51.8209 98.5183 51.5427 106.355C51.2729 114.005 49.1264 135.329 48.2213 144.143C48.2207 144.149 48.2189 144.156 48.2159 144.162C48.2129 144.168 48.2088 144.173 48.2038 144.177C48.1988 144.181 48.193 144.185 48.1867 144.187C48.1804 144.189 48.1738 144.189 48.1673 144.189Z" fill="#AFB5C0"/>
<path opacity="0.2" d="M48.1673 144.189C48.1534 144.187 48.1406 144.18 48.1315 144.169C48.1223 144.158 48.1173 144.145 48.1175 144.13C49.0309 135.317 51.1774 113.996 51.4389 106.351C51.7171 98.5183 51.4638 81.0247 51.3808 75.8459C51.3808 75.8393 51.3821 75.8328 51.3846 75.8267C51.3871 75.8206 51.3908 75.8151 51.3954 75.8104C51.4 75.8058 51.4055 75.8021 51.4116 75.7996C51.4176 75.7971 51.4241 75.7958 51.4306 75.7958C51.4443 75.7957 51.4574 75.8009 51.4674 75.8102C51.4774 75.8194 51.4836 75.8322 51.4846 75.8459C51.5676 81.0205 51.8209 98.5183 51.5427 106.355C51.2729 114.005 49.1264 135.329 48.2213 144.143C48.2207 144.149 48.2189 144.156 48.2159 144.162C48.2129 144.168 48.2088 144.173 48.2038 144.177C48.1988 144.181 48.193 144.185 48.1867 144.187C48.1804 144.189 48.1738 144.189 48.1673 144.189Z" fill="black"/>
<path d="M50.2349 145.85C50.2598 145.85 49.9443 148.007 49.9443 148.007H43.6584L43.4882 146.083L50.2349 145.85Z" fill="#AFB5C0"/>
<path opacity="0.2" d="M50.2349 145.85C50.2598 145.85 49.9443 148.007 49.9443 148.007H43.6584L43.4882 146.083L50.2349 145.85Z" fill="black"/>
</svg>
