<svg width="28" height="28" viewBox="0 0 28 28" fill="none" xmlns="http://www.w3.org/2000/svg">
<path fill-rule="evenodd" clip-rule="evenodd" d="M21.875 4.375H18.5V9.5H9.5V4.375H6.125C5.89294 4.375 5.67038 4.46719 5.50628 4.63128C5.34219 4.79538 5.25 5.01794 5.25 5.25V23.625C5.25 23.8571 5.34219 24.0796 5.50628 24.2437C5.67038 24.4078 5.89294 24.5 6.125 24.5H21.875C22.1071 24.5 22.3296 24.4078 22.4937 24.2437C22.6578 24.0796 22.75 23.8571 22.75 23.625V5.25C22.75 5.01794 22.6578 4.79538 22.4937 4.63128C22.3296 4.46719 22.1071 4.375 21.875 4.375ZM9.5 16.625C9.5 16.0727 9.94772 15.625 10.5 15.625H17.5C18.0523 15.625 18.5 16.0727 18.5 16.625C18.5 17.1773 18.0523 17.625 17.5 17.625H10.5C9.94772 17.625 9.5 17.1773 9.5 16.625ZM9.5 13.125C9.5 12.5727 9.94772 12.125 10.5 12.125H17.5C18.0523 12.125 18.5 12.5727 18.5 13.125C18.5 13.6773 18.0523 14.125 17.5 14.125H10.5C9.94772 14.125 9.5 13.6773 9.5 13.125Z" fill="#115BCB"/>
<path d="M9.625 7.875V7C9.625 5.83968 10.0859 4.72688 10.9064 3.90641C11.7269 3.08594 12.8397 2.625 14 2.625C15.1603 2.625 16.2731 3.08594 17.0936 3.90641C17.9141 4.72688 18.375 5.83968 18.375 7V7.875M9.625 7.875H18.375M9.625 7.875V9.5H18.375V7.875" stroke="#115BCB" stroke-width="2" stroke-linecap="round" stroke-linejoin="round"/>
</svg>
