<svg width="24" height="24" viewBox="0 0 24 24" fill="none" xmlns="http://www.w3.org/2000/svg">
<path fill-rule="evenodd" clip-rule="evenodd" d="M10.8663 8.77147L14.4788 11.2263C14.7129 11.363 14.8567 11.6136 14.8567 11.8846C14.8567 12.1556 14.7129 12.4062 14.4788 12.5429L10.8663 15.2286C10.1805 15.6938 9.14282 15.2972 9.14282 14.5703V9.42747C9.14282 8.70404 10.1817 8.30633 10.8663 8.77147Z" stroke="black" stroke-width="2" stroke-linecap="round" stroke-linejoin="round"/>
<path fill-rule="evenodd" clip-rule="evenodd" d="M4 10.8571V13.1429C4 16.93 7.07005 20 10.8571 20H13.1429C16.93 20 20 16.93 20 13.1429V10.8571C20 7.07005 16.93 4 13.1429 4H10.8571C7.07005 4 4 7.07005 4 10.8571Z" stroke="black" stroke-width="2" stroke-linecap="round" stroke-linejoin="round"/>
</svg>
